G04 #@! TF.FileFunction,Legend,Bot*
%FSLAX46Y46*%
G04 Gerber Fmt 4.6, Leading zero omitted, Abs format (unit mm)*
G04 Created by KiCad (PCBNEW 4.0.6) date Friday 09 June 2017 11:09:25*
%MOMM*%
%LPD*%
G01*
G04 APERTURE LIST*
%ADD10C,0.100000*%
%ADD11R,2.000000X1.900000*%
%ADD12C,1.900000*%
%ADD13R,1.727200X2.032000*%
%ADD14O,1.727200X2.032000*%
%ADD15C,1.727200*%
%ADD16R,1.727200X1.727200*%
%ADD17C,6.200000*%
%ADD18C,1.998980*%
%ADD19C,2.000000*%
%ADD20R,1.800000X1.800000*%
%ADD21C,1.800000*%
%ADD22R,2.400000X1.600000*%
%ADD23O,2.400000X1.600000*%
%ADD24R,1.700000X1.200000*%
%ADD25O,1.700000X1.200000*%
%ADD26R,1.200000X1.200000*%
%ADD27C,1.200000*%
G04 APERTURE END LIST*
D10*
X92925900Y-30911800D02*
X92925900Y-80924400D01*
X27940000Y-30962600D02*
X27940000Y-46456600D01*
X92940000Y-30932000D02*
G75*
G03X89940000Y-27932000I-3000000J0D01*
G01*
X30940000Y-27932000D02*
X89940000Y-27932000D01*
X30940000Y-27932000D02*
G75*
G03X27940000Y-30932000I0J-3000000D01*
G01*
X73940000Y-79932000D02*
G75*
G02X71940000Y-79932000I-1000000J0D01*
G01*
X73940000Y-64932000D02*
G75*
G03X71940000Y-64932000I-1000000J0D01*
G01*
X73940000Y-64932000D02*
X73940000Y-79932000D01*
X71940000Y-64932000D02*
X71940000Y-79932000D01*
X28940000Y-64432000D02*
G75*
G03X27940000Y-65432000I0J-1000000D01*
G01*
X31940000Y-64432000D02*
G75*
G03X32940000Y-63432000I0J1000000D01*
G01*
X32940000Y-48432000D02*
G75*
G03X31940000Y-47432000I-1000000J0D01*
G01*
X27940000Y-46432000D02*
G75*
G03X28940000Y-47432000I1000000J0D01*
G01*
X89940000Y-83932000D02*
G75*
G03X92940000Y-80932000I0J3000000D01*
G01*
X27940000Y-80932000D02*
G75*
G03X30940000Y-83932000I3000000J0D01*
G01*
X27940000Y-65432000D02*
X27940000Y-80932000D01*
X28940000Y-64432000D02*
X31940000Y-64432000D01*
X28940000Y-47432000D02*
X31940000Y-47432000D01*
X32940000Y-48432000D02*
X32940000Y-63432000D01*
X30940000Y-83932000D02*
X89940000Y-83932000D01*
%LPC*%
D11*
X71818500Y-39370000D03*
D12*
X71818500Y-36830000D03*
D13*
X84010500Y-63627000D03*
D14*
X81470500Y-63627000D03*
X78930500Y-63627000D03*
X76390500Y-63627000D03*
D15*
X64250000Y-32702000D03*
X61710000Y-32702000D03*
X66790000Y-32702000D03*
X69330000Y-32702000D03*
X79490000Y-32702000D03*
X76950000Y-32702000D03*
X71870000Y-32702000D03*
X74410000Y-32702000D03*
X82030000Y-32702000D03*
X84570000Y-32702000D03*
X59170000Y-32702000D03*
X56630000Y-32702000D03*
X49010000Y-32702000D03*
X46470000Y-32702000D03*
X51550000Y-32702000D03*
X54090000Y-32702000D03*
X43930000Y-32702000D03*
X41390000Y-32702000D03*
D16*
X36310000Y-32702000D03*
D15*
X38850000Y-32702000D03*
X38850000Y-30162000D03*
X36310000Y-30162000D03*
X41390000Y-30162000D03*
X43930000Y-30162000D03*
X54090000Y-30162000D03*
X51550000Y-30162000D03*
X46470000Y-30162000D03*
X49010000Y-30162000D03*
X56630000Y-30162000D03*
X59170000Y-30162000D03*
X84570000Y-30162000D03*
X82030000Y-30162000D03*
X74410000Y-30162000D03*
X71870000Y-30162000D03*
X76950000Y-30162000D03*
X79490000Y-30162000D03*
X69330000Y-30162000D03*
X66790000Y-30162000D03*
X61710000Y-30162000D03*
X64250000Y-30162000D03*
D17*
X89440000Y-31432000D03*
X89440000Y-80432000D03*
X31440000Y-80432000D03*
X31440000Y-31432000D03*
D18*
X87566500Y-43942000D03*
X87566500Y-58942000D03*
X90868500Y-58928000D03*
X90868500Y-43928000D03*
X58229500Y-44005500D03*
X58229500Y-59005500D03*
X77914500Y-43942000D03*
X77914500Y-58942000D03*
D19*
X54030000Y-81915000D03*
X49530000Y-81915000D03*
X54030000Y-75415000D03*
X49530000Y-75415000D03*
X45775000Y-81915000D03*
X41275000Y-81915000D03*
X45775000Y-75415000D03*
X41275000Y-75415000D03*
D20*
X78930500Y-39370000D03*
D21*
X78930500Y-36830000D03*
D18*
X61404500Y-43942000D03*
X61404500Y-58942000D03*
D20*
X38036500Y-39116000D03*
D21*
X38036500Y-36576000D03*
D20*
X44894500Y-39116000D03*
D21*
X44894500Y-36576000D03*
D20*
X51498500Y-39116000D03*
D21*
X51498500Y-36576000D03*
D18*
X64706500Y-43942000D03*
X64706500Y-58942000D03*
X84264500Y-58928000D03*
X84264500Y-43928000D03*
X68262500Y-43942000D03*
X68262500Y-58942000D03*
D11*
X58102500Y-39116000D03*
D12*
X58102500Y-36576000D03*
D11*
X64960500Y-39116000D03*
D12*
X64960500Y-36576000D03*
D18*
X74612500Y-43942000D03*
X74612500Y-58942000D03*
X71310500Y-43942000D03*
X71310500Y-58942000D03*
X80962500Y-43942000D03*
X80962500Y-58942000D03*
D22*
X40068500Y-44450000D03*
D23*
X47688500Y-62230000D03*
X40068500Y-46990000D03*
X47688500Y-59690000D03*
X40068500Y-49530000D03*
X47688500Y-57150000D03*
X40068500Y-52070000D03*
X47688500Y-54610000D03*
X40068500Y-54610000D03*
X47688500Y-52070000D03*
X40068500Y-57150000D03*
X47688500Y-49530000D03*
X40068500Y-59690000D03*
X47688500Y-46990000D03*
X40068500Y-62230000D03*
X47688500Y-44450000D03*
D13*
X68580000Y-64135000D03*
D14*
X66040000Y-64135000D03*
X63500000Y-64135000D03*
X60960000Y-64135000D03*
X58420000Y-64135000D03*
D24*
X31115000Y-73660000D03*
D25*
X31115000Y-71660000D03*
X31115000Y-69660000D03*
X31115000Y-67660000D03*
D24*
X90170000Y-67945000D03*
D25*
X90170000Y-69945000D03*
X90170000Y-71945000D03*
X90170000Y-73945000D03*
D26*
X52705000Y-67310000D03*
D27*
X55205000Y-67310000D03*
D26*
X40005000Y-67310000D03*
D27*
X42505000Y-67310000D03*
M02*
