G04 #@! TF.FileFunction,Copper,L2,Bot,Signal*
%FSLAX46Y46*%
G04 Gerber Fmt 4.6, Leading zero omitted, Abs format (unit mm)*
G04 Created by KiCad (PCBNEW 4.0.6) date Friday 09 June 2017 11:09:25*
%MOMM*%
%LPD*%
G01*
G04 APERTURE LIST*
%ADD10C,0.100000*%
%ADD11R,2.000000X1.900000*%
%ADD12C,1.900000*%
%ADD13R,1.727200X2.032000*%
%ADD14O,1.727200X2.032000*%
%ADD15C,1.727200*%
%ADD16R,1.727200X1.727200*%
%ADD17C,1.998980*%
%ADD18C,2.000000*%
%ADD19R,1.800000X1.800000*%
%ADD20C,1.800000*%
%ADD21R,2.400000X1.600000*%
%ADD22O,2.400000X1.600000*%
%ADD23R,1.700000X1.200000*%
%ADD24O,1.700000X1.200000*%
%ADD25R,1.200000X1.200000*%
%ADD26C,1.200000*%
%ADD27C,0.250000*%
%ADD28C,0.200000*%
G04 APERTURE END LIST*
D10*
X92925900Y-30911800D02*
X92925900Y-80924400D01*
X27940000Y-30962600D02*
X27940000Y-46456600D01*
X92940000Y-30932000D02*
G75*
G03X89940000Y-27932000I-3000000J0D01*
G01*
X30940000Y-27932000D02*
X89940000Y-27932000D01*
X30940000Y-27932000D02*
G75*
G03X27940000Y-30932000I0J-3000000D01*
G01*
X73940000Y-79932000D02*
G75*
G02X71940000Y-79932000I-1000000J0D01*
G01*
X73940000Y-64932000D02*
G75*
G03X71940000Y-64932000I-1000000J0D01*
G01*
X73940000Y-64932000D02*
X73940000Y-79932000D01*
X71940000Y-64932000D02*
X71940000Y-79932000D01*
X28940000Y-64432000D02*
G75*
G03X27940000Y-65432000I0J-1000000D01*
G01*
X31940000Y-64432000D02*
G75*
G03X32940000Y-63432000I0J1000000D01*
G01*
X32940000Y-48432000D02*
G75*
G03X31940000Y-47432000I-1000000J0D01*
G01*
X27940000Y-46432000D02*
G75*
G03X28940000Y-47432000I1000000J0D01*
G01*
X89940000Y-83932000D02*
G75*
G03X92940000Y-80932000I0J3000000D01*
G01*
X27940000Y-80932000D02*
G75*
G03X30940000Y-83932000I3000000J0D01*
G01*
X27940000Y-65432000D02*
X27940000Y-80932000D01*
X28940000Y-64432000D02*
X31940000Y-64432000D01*
X28940000Y-47432000D02*
X31940000Y-47432000D01*
X32940000Y-48432000D02*
X32940000Y-63432000D01*
X30940000Y-83932000D02*
X89940000Y-83932000D01*
D11*
X71818500Y-39370000D03*
D12*
X71818500Y-36830000D03*
D13*
X84010500Y-63627000D03*
D14*
X81470500Y-63627000D03*
X78930500Y-63627000D03*
X76390500Y-63627000D03*
D15*
X64250000Y-32702000D03*
X61710000Y-32702000D03*
X66790000Y-32702000D03*
X69330000Y-32702000D03*
X79490000Y-32702000D03*
X76950000Y-32702000D03*
X71870000Y-32702000D03*
X74410000Y-32702000D03*
X82030000Y-32702000D03*
X84570000Y-32702000D03*
X59170000Y-32702000D03*
X56630000Y-32702000D03*
X49010000Y-32702000D03*
X46470000Y-32702000D03*
X51550000Y-32702000D03*
X54090000Y-32702000D03*
X43930000Y-32702000D03*
X41390000Y-32702000D03*
D16*
X36310000Y-32702000D03*
D15*
X38850000Y-32702000D03*
X38850000Y-30162000D03*
X36310000Y-30162000D03*
X41390000Y-30162000D03*
X43930000Y-30162000D03*
X54090000Y-30162000D03*
X51550000Y-30162000D03*
X46470000Y-30162000D03*
X49010000Y-30162000D03*
X56630000Y-30162000D03*
X59170000Y-30162000D03*
X84570000Y-30162000D03*
X82030000Y-30162000D03*
X74410000Y-30162000D03*
X71870000Y-30162000D03*
X76950000Y-30162000D03*
X79490000Y-30162000D03*
X69330000Y-30162000D03*
X66790000Y-30162000D03*
X61710000Y-30162000D03*
X64250000Y-30162000D03*
D17*
X87566500Y-43942000D03*
X87566500Y-58942000D03*
X90868500Y-58928000D03*
X90868500Y-43928000D03*
X58229500Y-44005500D03*
X58229500Y-59005500D03*
X77914500Y-43942000D03*
X77914500Y-58942000D03*
D18*
X54030000Y-81915000D03*
X49530000Y-81915000D03*
X54030000Y-75415000D03*
X49530000Y-75415000D03*
X45775000Y-81915000D03*
X41275000Y-81915000D03*
X45775000Y-75415000D03*
X41275000Y-75415000D03*
D19*
X78930500Y-39370000D03*
D20*
X78930500Y-36830000D03*
D17*
X61404500Y-43942000D03*
X61404500Y-58942000D03*
D19*
X38036500Y-39116000D03*
D20*
X38036500Y-36576000D03*
D19*
X44894500Y-39116000D03*
D20*
X44894500Y-36576000D03*
D19*
X51498500Y-39116000D03*
D20*
X51498500Y-36576000D03*
D17*
X64706500Y-43942000D03*
X64706500Y-58942000D03*
X84264500Y-58928000D03*
X84264500Y-43928000D03*
X68262500Y-43942000D03*
X68262500Y-58942000D03*
D11*
X58102500Y-39116000D03*
D12*
X58102500Y-36576000D03*
D11*
X64960500Y-39116000D03*
D12*
X64960500Y-36576000D03*
D17*
X74612500Y-43942000D03*
X74612500Y-58942000D03*
X71310500Y-43942000D03*
X71310500Y-58942000D03*
X80962500Y-43942000D03*
X80962500Y-58942000D03*
D21*
X40068500Y-44450000D03*
D22*
X47688500Y-62230000D03*
X40068500Y-46990000D03*
X47688500Y-59690000D03*
X40068500Y-49530000D03*
X47688500Y-57150000D03*
X40068500Y-52070000D03*
X47688500Y-54610000D03*
X40068500Y-54610000D03*
X47688500Y-52070000D03*
X40068500Y-57150000D03*
X47688500Y-49530000D03*
X40068500Y-59690000D03*
X47688500Y-46990000D03*
X40068500Y-62230000D03*
X47688500Y-44450000D03*
D13*
X68580000Y-64135000D03*
D14*
X66040000Y-64135000D03*
X63500000Y-64135000D03*
X60960000Y-64135000D03*
X58420000Y-64135000D03*
D23*
X31115000Y-73660000D03*
D24*
X31115000Y-71660000D03*
X31115000Y-69660000D03*
X31115000Y-67660000D03*
D23*
X90170000Y-67945000D03*
D24*
X90170000Y-69945000D03*
X90170000Y-71945000D03*
X90170000Y-73945000D03*
D25*
X52705000Y-67310000D03*
D26*
X55205000Y-67310000D03*
D25*
X40005000Y-67310000D03*
D26*
X42505000Y-67310000D03*
D27*
X47688500Y-44450000D02*
X47688500Y-41148000D01*
X37770000Y-28702000D02*
X36310000Y-30162000D01*
X46990000Y-28702000D02*
X37770000Y-28702000D01*
X47752000Y-29464000D02*
X46990000Y-28702000D01*
X47752000Y-41084500D02*
X47752000Y-29464000D01*
X47688500Y-41148000D02*
X47752000Y-41084500D01*
X52705000Y-67310000D02*
X52705000Y-72240000D01*
X52705000Y-72240000D02*
X49530000Y-75415000D01*
X58420000Y-64135000D02*
X55245000Y-64135000D01*
X52705000Y-66675000D02*
X52705000Y-67310000D01*
X55245000Y-64135000D02*
X52705000Y-66675000D01*
X41275000Y-75415000D02*
X41275000Y-81915000D01*
X41275000Y-75415000D02*
X41275000Y-74295000D01*
X49530000Y-75415000D02*
X49530000Y-73025000D01*
X41275000Y-74295000D02*
X42545000Y-73025000D01*
X42545000Y-73025000D02*
X49530000Y-73025000D01*
X47688500Y-49530000D02*
X49276000Y-49530000D01*
X54673500Y-34658500D02*
X56630000Y-32702000D01*
X54673500Y-39624000D02*
X54673500Y-34658500D01*
X50419000Y-43878500D02*
X54673500Y-39624000D01*
X50419000Y-48387000D02*
X50419000Y-43878500D01*
X49276000Y-49530000D02*
X50419000Y-48387000D01*
X54090000Y-30162000D02*
X54090000Y-30277500D01*
X54090000Y-30277500D02*
X55245000Y-31432500D01*
X63055500Y-34671000D02*
X64960500Y-36576000D01*
X63055500Y-32004000D02*
X63055500Y-34671000D01*
X62484000Y-31432500D02*
X63055500Y-32004000D01*
X55245000Y-31432500D02*
X62484000Y-31432500D01*
X81470500Y-63627000D02*
X81470500Y-62039500D01*
X80772000Y-31444000D02*
X79490000Y-30162000D01*
X80772000Y-33591500D02*
X80772000Y-31444000D01*
X81788000Y-34607500D02*
X80772000Y-33591500D01*
X84645500Y-34607500D02*
X81788000Y-34607500D01*
X92202000Y-42164000D02*
X84645500Y-34607500D01*
X92202000Y-51943000D02*
X92202000Y-42164000D01*
X89217500Y-54927500D02*
X92202000Y-51943000D01*
X89217500Y-59944000D02*
X89217500Y-54927500D01*
X87566500Y-61595000D02*
X89217500Y-59944000D01*
X81915000Y-61595000D02*
X87566500Y-61595000D01*
X81470500Y-62039500D02*
X81915000Y-61595000D01*
X41390000Y-32702000D02*
X41390000Y-39929500D01*
X44069000Y-56070500D02*
X47688500Y-59690000D01*
X44069000Y-42608500D02*
X44069000Y-56070500D01*
X41390000Y-39929500D02*
X44069000Y-42608500D01*
X47688500Y-62230000D02*
X45402500Y-62230000D01*
X39941500Y-33793500D02*
X38850000Y-32702000D01*
X39941500Y-39814500D02*
X39941500Y-33793500D01*
X43243500Y-43116500D02*
X39941500Y-39814500D01*
X43243500Y-60071000D02*
X43243500Y-43116500D01*
X45402500Y-62230000D02*
X43243500Y-60071000D01*
D28*
X51498500Y-36576000D02*
X51498500Y-32753500D01*
X51498500Y-32753500D02*
X51550000Y-32702000D01*
D27*
X68580000Y-64135000D02*
X68580000Y-59259500D01*
X68580000Y-59259500D02*
X68262500Y-58942000D01*
X61404500Y-58942000D02*
X61404500Y-63690500D01*
X61404500Y-63690500D02*
X60960000Y-64135000D01*
X80962500Y-58942000D02*
X80962500Y-59563000D01*
X80962500Y-59563000D02*
X82359500Y-60960000D01*
X85548500Y-60960000D02*
X87566500Y-58942000D01*
X82359500Y-60960000D02*
X85548500Y-60960000D01*
X87566500Y-58942000D02*
X87566500Y-54737000D01*
X87566500Y-54737000D02*
X90233500Y-52070000D01*
X90233500Y-52070000D02*
X90233500Y-44563000D01*
X90233500Y-44563000D02*
X90868500Y-43928000D01*
X76390500Y-63627000D02*
X76390500Y-63514000D01*
X76390500Y-63514000D02*
X80962500Y-58942000D01*
X40068500Y-59690000D02*
X41846500Y-59690000D01*
X52147500Y-65087500D02*
X58293000Y-58942000D01*
X45720000Y-65087500D02*
X52147500Y-65087500D01*
X43497500Y-62865000D02*
X45720000Y-65087500D01*
X43497500Y-61341000D02*
X43497500Y-62865000D01*
X41846500Y-59690000D02*
X43497500Y-61341000D01*
X40068500Y-44450000D02*
X38100000Y-44450000D01*
X35560000Y-73660000D02*
X31115000Y-73660000D01*
X36830000Y-72390000D02*
X35560000Y-73660000D01*
X36830000Y-45720000D02*
X36830000Y-72390000D01*
X38100000Y-44450000D02*
X36830000Y-45720000D01*
X54030000Y-75415000D02*
X54030000Y-73605000D01*
X55205000Y-72430000D02*
X55205000Y-67310000D01*
X54030000Y-73605000D02*
X55205000Y-72430000D01*
X54030000Y-81915000D02*
X74930000Y-81915000D01*
X75565000Y-81280000D02*
X75565000Y-65405000D01*
X74930000Y-81915000D02*
X75565000Y-81280000D01*
X77914500Y-58942000D02*
X77914500Y-59944000D01*
X90868500Y-62039500D02*
X90868500Y-58928000D01*
X87185500Y-65722500D02*
X90868500Y-62039500D01*
X75882500Y-65722500D02*
X87185500Y-65722500D01*
X74549000Y-64389000D02*
X75565000Y-65405000D01*
X75565000Y-65405000D02*
X75882500Y-65722500D01*
X74549000Y-62420500D02*
X74549000Y-64389000D01*
X75692000Y-61277500D02*
X75628500Y-61341000D01*
X75628500Y-61341000D02*
X74549000Y-62420500D01*
X76581000Y-61277500D02*
X75692000Y-61277500D01*
X77914500Y-59944000D02*
X76581000Y-61277500D01*
X90868500Y-58928000D02*
X90868500Y-58420000D01*
X45775000Y-75415000D02*
X45775000Y-81915000D01*
X45775000Y-75415000D02*
X46205000Y-75415000D01*
X46205000Y-75415000D02*
X48895000Y-78105000D01*
X48895000Y-78105000D02*
X67945000Y-78105000D01*
X67945000Y-78105000D02*
X71120000Y-74930000D01*
X71120000Y-74930000D02*
X71120000Y-62434500D01*
X71120000Y-62434500D02*
X74612500Y-58942000D01*
M02*
