G04 #@! TF.FileFunction,Copper,L2,Bot,Signal*
%FSLAX46Y46*%
G04 Gerber Fmt 4.6, Leading zero omitted, Abs format (unit mm)*
G04 Created by KiCad (PCBNEW 4.0.6) date Monday 17 April 2017 17:24:00*
%MOMM*%
%LPD*%
G01*
G04 APERTURE LIST*
%ADD10C,0.100000*%
%ADD11C,1.727200*%
%ADD12R,1.727200X1.727200*%
%ADD13C,1.998980*%
%ADD14C,2.000000*%
%ADD15R,1.800000X1.800000*%
%ADD16C,1.800000*%
%ADD17R,1.727200X2.032000*%
%ADD18O,1.727200X2.032000*%
%ADD19C,0.250000*%
G04 APERTURE END LIST*
D10*
D11*
X64250000Y-32702000D03*
X61710000Y-32702000D03*
X66790000Y-32702000D03*
X69330000Y-32702000D03*
X79490000Y-32702000D03*
X76950000Y-32702000D03*
X71870000Y-32702000D03*
X74410000Y-32702000D03*
X82030000Y-32702000D03*
X84570000Y-32702000D03*
X59170000Y-32702000D03*
X56630000Y-32702000D03*
X49010000Y-32702000D03*
X46470000Y-32702000D03*
X51550000Y-32702000D03*
X54090000Y-32702000D03*
X43930000Y-32702000D03*
X41390000Y-32702000D03*
D12*
X36310000Y-32702000D03*
D11*
X38850000Y-32702000D03*
X38850000Y-30162000D03*
X36310000Y-30162000D03*
X41390000Y-30162000D03*
X43930000Y-30162000D03*
X54090000Y-30162000D03*
X51550000Y-30162000D03*
X46470000Y-30162000D03*
X49010000Y-30162000D03*
X56630000Y-30162000D03*
X59170000Y-30162000D03*
X84570000Y-30162000D03*
X82030000Y-30162000D03*
X74410000Y-30162000D03*
X71870000Y-30162000D03*
X76950000Y-30162000D03*
X79490000Y-30162000D03*
X69330000Y-30162000D03*
X66790000Y-30162000D03*
X61710000Y-30162000D03*
X64250000Y-30162000D03*
D13*
X74676000Y-57531000D03*
X74676000Y-42531000D03*
X63182500Y-42672000D03*
X63182500Y-57672000D03*
X66865500Y-42608500D03*
X66865500Y-57608500D03*
X48768000Y-42672000D03*
X48768000Y-57672000D03*
D14*
X41910000Y-81462000D03*
X41910000Y-76962000D03*
X48410000Y-81462000D03*
X48410000Y-76962000D03*
X53340000Y-81462000D03*
X53340000Y-76962000D03*
X59840000Y-81462000D03*
X59840000Y-76962000D03*
D15*
X33274000Y-70612000D03*
D16*
X33274000Y-68072000D03*
D13*
X56070500Y-42672000D03*
X56070500Y-57672000D03*
D15*
X42926000Y-70612000D03*
D16*
X42926000Y-68072000D03*
D15*
X50038000Y-70612000D03*
D16*
X50038000Y-68072000D03*
D15*
X57150000Y-70612000D03*
D16*
X57150000Y-68072000D03*
D13*
X70739000Y-57404000D03*
X70739000Y-42404000D03*
X59753500Y-42608500D03*
X59753500Y-57608500D03*
X52451000Y-42672000D03*
X52451000Y-57672000D03*
D17*
X44196000Y-38100000D03*
D18*
X41656000Y-38100000D03*
X39116000Y-38100000D03*
X36576000Y-38100000D03*
D19*
X70739000Y-42404000D02*
X70739000Y-43434000D01*
X36576000Y-44005500D02*
X36576000Y-38100000D01*
X37782500Y-45212000D02*
X36576000Y-44005500D01*
X68961000Y-45212000D02*
X37782500Y-45212000D01*
X70739000Y-43434000D02*
X68961000Y-45212000D01*
X70739000Y-42418000D02*
X70739000Y-42404000D01*
X56630000Y-32702000D02*
X56630000Y-34048000D01*
X38417500Y-73469500D02*
X41910000Y-76962000D01*
X38417500Y-65278000D02*
X38417500Y-73469500D01*
X34544000Y-61404500D02*
X38417500Y-65278000D01*
X34544000Y-35814000D02*
X34544000Y-61404500D01*
X35369500Y-34988500D02*
X34544000Y-35814000D01*
X55689500Y-34988500D02*
X35369500Y-34988500D01*
X56630000Y-34048000D02*
X55689500Y-34988500D01*
X53340000Y-76962000D02*
X59840000Y-76962000D01*
X53022500Y-76644500D02*
X53340000Y-76962000D01*
X53340000Y-76962000D02*
X48410000Y-76962000D01*
X48410000Y-76962000D02*
X41910000Y-76962000D01*
X63182500Y-57672000D02*
X63182500Y-71247000D01*
X50751000Y-79121000D02*
X48410000Y-81462000D01*
X62039500Y-79121000D02*
X50751000Y-79121000D01*
X63182500Y-77978000D02*
X62039500Y-79121000D01*
X63182500Y-76073000D02*
X63182500Y-77978000D01*
X63182500Y-71247000D02*
X63182500Y-76073000D01*
X41910000Y-81462000D02*
X48410000Y-81462000D01*
X63246000Y-57658000D02*
X63182500Y-57672000D01*
X59840000Y-81462000D02*
X63699000Y-81462000D01*
X70739000Y-61150500D02*
X70739000Y-57404000D01*
X65913000Y-65976500D02*
X70739000Y-61150500D01*
X65913000Y-79248000D02*
X65913000Y-65976500D01*
X63699000Y-81462000D02*
X65913000Y-79248000D01*
X52514500Y-57608500D02*
X52514500Y-57594500D01*
X52514500Y-57594500D02*
X52451000Y-57658000D01*
X41656000Y-38100000D02*
X41656000Y-37592000D01*
X41656000Y-37592000D02*
X43307000Y-35941000D01*
X78232000Y-31420000D02*
X79438500Y-29972000D01*
X78232000Y-34480500D02*
X78232000Y-31420000D01*
X76771500Y-35941000D02*
X78232000Y-34480500D01*
X43307000Y-35941000D02*
X76771500Y-35941000D01*
X79438500Y-29972000D02*
X79450500Y-29909000D01*
X41656000Y-37973000D02*
X41656000Y-38100000D01*
M02*
