M48
;DRILL file {KiCad 4.0.6} date Friday 09 June 2017 11:09:40
;FORMAT={-:-/ absolute / metric / decimal}
FMAT,2
METRIC,TZ
T1C0.700
T2C0.750
T3C0.800
T4C0.900
T5C1.001
T6C1.016
T7C1.100
%
G90
G05
M71
T1
X40.005Y-67.31
X42.505Y-67.31
X52.705Y-67.31
X55.205Y-67.31
T2
X31.115Y-67.66
X31.115Y-69.66
X31.115Y-71.66
X31.115Y-73.66
X90.17Y-67.945
X90.17Y-69.945
X90.17Y-71.945
X90.17Y-73.945
T3
X40.069Y-44.45
X40.069Y-46.99
X40.069Y-49.53
X40.069Y-52.07
X40.069Y-54.61
X40.069Y-57.15
X40.069Y-59.69
X40.069Y-62.23
X47.688Y-44.45
X47.688Y-46.99
X47.688Y-49.53
X47.688Y-52.07
X47.688Y-54.61
X47.688Y-57.15
X47.688Y-59.69
X47.688Y-62.23
T4
X38.036Y-36.576
X38.036Y-39.116
X44.895Y-36.576
X44.895Y-39.116
X51.498Y-36.576
X51.498Y-39.116
X78.93Y-36.83
X78.93Y-39.37
T5
X58.102Y-36.576
X58.102Y-39.116
X58.229Y-44.005
X58.229Y-59.005
X61.404Y-43.942
X61.404Y-58.942
X64.706Y-43.942
X64.706Y-58.942
X64.96Y-36.576
X64.96Y-39.116
X68.263Y-43.942
X68.263Y-58.942
X71.31Y-43.942
X71.31Y-58.942
X71.819Y-36.83
X71.819Y-39.37
X74.612Y-43.942
X74.612Y-58.942
X77.914Y-43.942
X77.914Y-58.942
X80.962Y-43.942
X80.962Y-58.942
X84.264Y-43.928
X84.264Y-58.928
X87.566Y-43.942
X87.566Y-58.942
X90.868Y-43.928
X90.868Y-58.928
T6
X36.31Y-30.162
X36.31Y-32.702
X38.85Y-30.162
X38.85Y-32.702
X41.39Y-30.162
X41.39Y-32.702
X43.93Y-30.162
X43.93Y-32.702
X46.47Y-30.162
X46.47Y-32.702
X49.01Y-30.162
X49.01Y-32.702
X51.55Y-30.162
X51.55Y-32.702
X54.09Y-30.162
X54.09Y-32.702
X56.63Y-30.162
X56.63Y-32.702
X58.42Y-64.135
X59.17Y-30.162
X59.17Y-32.702
X60.96Y-64.135
X61.71Y-30.162
X61.71Y-32.702
X63.5Y-64.135
X64.25Y-30.162
X64.25Y-32.702
X66.04Y-64.135
X66.79Y-30.162
X66.79Y-32.702
X68.58Y-64.135
X69.33Y-30.162
X69.33Y-32.702
X71.87Y-30.162
X71.87Y-32.702
X74.41Y-30.162
X74.41Y-32.702
X76.391Y-63.627
X76.95Y-30.162
X76.95Y-32.702
X78.93Y-63.627
X79.49Y-30.162
X79.49Y-32.702
X81.471Y-63.627
X82.03Y-30.162
X82.03Y-32.702
X84.01Y-63.627
X84.57Y-30.162
X84.57Y-32.702
T7
X41.275Y-75.415
X41.275Y-81.915
X45.775Y-75.415
X45.775Y-81.915
X49.53Y-75.415
X49.53Y-81.915
X54.03Y-75.415
X54.03Y-81.915
T0
M30
