%FSLAX45Y45*%
G04 Gerber Fmt 4.5, Leading zero omitted, Abs format (unit mm)*
G04 Created by KiCad (PCBNEW 4.0.6) date Friday 09 June 2017 11:09:43*
%MOMM*%
%LPD*%
G01*
G04 APERTURE LIST*
%ADD10C,0.127000*%
%ADD11C,0.100000*%
%ADD12C,0.200000*%
%ADD13C,0.300000*%
G04 APERTURE END LIST*
D10*
D11*
X9292590Y-3091180D02*
X9292590Y-8092440D01*
X2794000Y-3096260D02*
X2794000Y-4645660D01*
X9294000Y-3093200D02*
G75*
G03X8994000Y-2793200I-300000J0D01*
G01*
X3094000Y-2793200D02*
X8994000Y-2793200D01*
X3094000Y-2793200D02*
G75*
G03X2794000Y-3093200I0J-300000D01*
G01*
X7394000Y-7993200D02*
G75*
G02X7194000Y-7993200I-100000J0D01*
G01*
X7394000Y-6493200D02*
G75*
G03X7194000Y-6493200I-100000J0D01*
G01*
X7394000Y-6493200D02*
X7394000Y-7993200D01*
X7194000Y-6493200D02*
X7194000Y-7993200D01*
X2894000Y-6443200D02*
G75*
G03X2794000Y-6543200I0J-100000D01*
G01*
X3194000Y-6443200D02*
G75*
G03X3294000Y-6343200I0J100000D01*
G01*
X3294000Y-4843200D02*
G75*
G03X3194000Y-4743200I-100000J0D01*
G01*
X2794000Y-4643200D02*
G75*
G03X2894000Y-4743200I100000J0D01*
G01*
X8994000Y-8393200D02*
G75*
G03X9294000Y-8093200I0J300000D01*
G01*
X2794000Y-8093200D02*
G75*
G03X3094000Y-8393200I300000J0D01*
G01*
X2794000Y-6543200D02*
X2794000Y-8093200D01*
X2894000Y-6443200D02*
X3194000Y-6443200D01*
X2894000Y-4743200D02*
X3194000Y-4743200D01*
X3294000Y-4843200D02*
X3294000Y-6343200D01*
X3094000Y-8393200D02*
X8994000Y-8393200D01*
D12*
X3006500Y-3005700D02*
X3281500Y-3280700D01*
X3281500Y-3005700D02*
X3006500Y-3280700D01*
X3006500Y-7905700D02*
X3281500Y-8180700D01*
X3281500Y-7905700D02*
X3006500Y-8180700D01*
X8806500Y-3005700D02*
X9081500Y-3280700D01*
X9081500Y-3005700D02*
X8806500Y-3280700D01*
X8806500Y-7905700D02*
X9081500Y-8180700D01*
X9081500Y-7905700D02*
X8806500Y-8180700D01*
D13*
X3060428Y-8863914D02*
X3060428Y-8563914D01*
X3131857Y-8563914D01*
X3174714Y-8578200D01*
X3203286Y-8606772D01*
X3217571Y-8635343D01*
X3231857Y-8692486D01*
X3231857Y-8735343D01*
X3217571Y-8792486D01*
X3203286Y-8821057D01*
X3174714Y-8849629D01*
X3131857Y-8863914D01*
X3060428Y-8863914D01*
X3360428Y-8863914D02*
X3360428Y-8663914D01*
X3360428Y-8721057D02*
X3374714Y-8692486D01*
X3389000Y-8678200D01*
X3417571Y-8663914D01*
X3446143Y-8663914D01*
X3546143Y-8863914D02*
X3546143Y-8663914D01*
X3546143Y-8563914D02*
X3531857Y-8578200D01*
X3546143Y-8592486D01*
X3560428Y-8578200D01*
X3546143Y-8563914D01*
X3546143Y-8592486D01*
X3731857Y-8863914D02*
X3703286Y-8849629D01*
X3689000Y-8821057D01*
X3689000Y-8563914D01*
X3889000Y-8863914D02*
X3860428Y-8849629D01*
X3846143Y-8821057D01*
X3846143Y-8563914D01*
X4231857Y-8863914D02*
X4231857Y-8563914D01*
X4331857Y-8778200D01*
X4431857Y-8563914D01*
X4431857Y-8863914D01*
X4703286Y-8863914D02*
X4703286Y-8706772D01*
X4689000Y-8678200D01*
X4660429Y-8663914D01*
X4603286Y-8663914D01*
X4574714Y-8678200D01*
X4703286Y-8849629D02*
X4674714Y-8863914D01*
X4603286Y-8863914D01*
X4574714Y-8849629D01*
X4560429Y-8821057D01*
X4560429Y-8792486D01*
X4574714Y-8763914D01*
X4603286Y-8749629D01*
X4674714Y-8749629D01*
X4703286Y-8735343D01*
X4846143Y-8663914D02*
X4846143Y-8963914D01*
X4846143Y-8678200D02*
X4874714Y-8663914D01*
X4931857Y-8663914D01*
X4960429Y-8678200D01*
X4974714Y-8692486D01*
X4989000Y-8721057D01*
X4989000Y-8806772D01*
X4974714Y-8835343D01*
X4960429Y-8849629D01*
X4931857Y-8863914D01*
X4874714Y-8863914D01*
X4846143Y-8849629D01*
X5117571Y-8835343D02*
X5131857Y-8849629D01*
X5117571Y-8863914D01*
X5103286Y-8849629D01*
X5117571Y-8835343D01*
X5117571Y-8863914D01*
X5117571Y-8678200D02*
X5131857Y-8692486D01*
X5117571Y-8706772D01*
X5103286Y-8692486D01*
X5117571Y-8678200D01*
X5117571Y-8706772D01*
X2514000Y-9220700D02*
X2789000Y-9495700D01*
X2789000Y-9220700D02*
X2514000Y-9495700D01*
X3046143Y-9222486D02*
X3060428Y-9208200D01*
X3089000Y-9193914D01*
X3160428Y-9193914D01*
X3189000Y-9208200D01*
X3203286Y-9222486D01*
X3217571Y-9251057D01*
X3217571Y-9279629D01*
X3203286Y-9322486D01*
X3031857Y-9493914D01*
X3217571Y-9493914D01*
X3346143Y-9465343D02*
X3360428Y-9479629D01*
X3346143Y-9493914D01*
X3331857Y-9479629D01*
X3346143Y-9465343D01*
X3346143Y-9493914D01*
X3460428Y-9193914D02*
X3660428Y-9193914D01*
X3531857Y-9493914D01*
X3917571Y-9193914D02*
X3774714Y-9193914D01*
X3760428Y-9336772D01*
X3774714Y-9322486D01*
X3803286Y-9308200D01*
X3874714Y-9308200D01*
X3903286Y-9322486D01*
X3917571Y-9336772D01*
X3931857Y-9365343D01*
X3931857Y-9436772D01*
X3917571Y-9465343D01*
X3903286Y-9479629D01*
X3874714Y-9493914D01*
X3803286Y-9493914D01*
X3774714Y-9479629D01*
X3760428Y-9465343D01*
X4060428Y-9493914D02*
X4060428Y-9293914D01*
X4060428Y-9322486D02*
X4074714Y-9308200D01*
X4103286Y-9293914D01*
X4146143Y-9293914D01*
X4174714Y-9308200D01*
X4189000Y-9336772D01*
X4189000Y-9493914D01*
X4189000Y-9336772D02*
X4203286Y-9308200D01*
X4231857Y-9293914D01*
X4274714Y-9293914D01*
X4303286Y-9308200D01*
X4317571Y-9336772D01*
X4317571Y-9493914D01*
X4460429Y-9493914D02*
X4460429Y-9293914D01*
X4460429Y-9322486D02*
X4474714Y-9308200D01*
X4503286Y-9293914D01*
X4546143Y-9293914D01*
X4574714Y-9308200D01*
X4589000Y-9336772D01*
X4589000Y-9493914D01*
X4589000Y-9336772D02*
X4603286Y-9308200D01*
X4631857Y-9293914D01*
X4674714Y-9293914D01*
X4703286Y-9308200D01*
X4717571Y-9336772D01*
X4717571Y-9493914D01*
X5303286Y-9179629D02*
X5046143Y-9565343D01*
X5689000Y-9193914D02*
X5717571Y-9193914D01*
X5746143Y-9208200D01*
X5760428Y-9222486D01*
X5774714Y-9251057D01*
X5789000Y-9308200D01*
X5789000Y-9379629D01*
X5774714Y-9436772D01*
X5760428Y-9465343D01*
X5746143Y-9479629D01*
X5717571Y-9493914D01*
X5689000Y-9493914D01*
X5660428Y-9479629D01*
X5646143Y-9465343D01*
X5631857Y-9436772D01*
X5617571Y-9379629D01*
X5617571Y-9308200D01*
X5631857Y-9251057D01*
X5646143Y-9222486D01*
X5660428Y-9208200D01*
X5689000Y-9193914D01*
X5917571Y-9465343D02*
X5931857Y-9479629D01*
X5917571Y-9493914D01*
X5903286Y-9479629D01*
X5917571Y-9465343D01*
X5917571Y-9493914D01*
X6217571Y-9493914D02*
X6046143Y-9493914D01*
X6131857Y-9493914D02*
X6131857Y-9193914D01*
X6103285Y-9236772D01*
X6074714Y-9265343D01*
X6046143Y-9279629D01*
X6403285Y-9193914D02*
X6431857Y-9193914D01*
X6460428Y-9208200D01*
X6474714Y-9222486D01*
X6489000Y-9251057D01*
X6503285Y-9308200D01*
X6503285Y-9379629D01*
X6489000Y-9436772D01*
X6474714Y-9465343D01*
X6460428Y-9479629D01*
X6431857Y-9493914D01*
X6403285Y-9493914D01*
X6374714Y-9479629D01*
X6360428Y-9465343D01*
X6346143Y-9436772D01*
X6331857Y-9379629D01*
X6331857Y-9308200D01*
X6346143Y-9251057D01*
X6360428Y-9222486D01*
X6374714Y-9208200D01*
X6403285Y-9193914D01*
X6674714Y-9322486D02*
X6646143Y-9308200D01*
X6631857Y-9293914D01*
X6617571Y-9265343D01*
X6617571Y-9251057D01*
X6631857Y-9222486D01*
X6646143Y-9208200D01*
X6674714Y-9193914D01*
X6731857Y-9193914D01*
X6760428Y-9208200D01*
X6774714Y-9222486D01*
X6789000Y-9251057D01*
X6789000Y-9265343D01*
X6774714Y-9293914D01*
X6760428Y-9308200D01*
X6731857Y-9322486D01*
X6674714Y-9322486D01*
X6646143Y-9336772D01*
X6631857Y-9351057D01*
X6617571Y-9379629D01*
X6617571Y-9436772D01*
X6631857Y-9465343D01*
X6646143Y-9479629D01*
X6674714Y-9493914D01*
X6731857Y-9493914D01*
X6760428Y-9479629D01*
X6774714Y-9465343D01*
X6789000Y-9436772D01*
X6789000Y-9379629D01*
X6774714Y-9351057D01*
X6760428Y-9336772D01*
X6731857Y-9322486D01*
X6903286Y-9193914D02*
X6903286Y-9251057D01*
X7017571Y-9193914D02*
X7017571Y-9251057D01*
X7460428Y-9608200D02*
X7446143Y-9593914D01*
X7417571Y-9551057D01*
X7403285Y-9522486D01*
X7389000Y-9479629D01*
X7374714Y-9408200D01*
X7374714Y-9351057D01*
X7389000Y-9279629D01*
X7403285Y-9236772D01*
X7417571Y-9208200D01*
X7446143Y-9165343D01*
X7460428Y-9151057D01*
X7703285Y-9293914D02*
X7703285Y-9493914D01*
X7631857Y-9179629D02*
X7560428Y-9393914D01*
X7746143Y-9393914D01*
X8089000Y-9493914D02*
X8089000Y-9193914D01*
X8217571Y-9493914D02*
X8217571Y-9336772D01*
X8203285Y-9308200D01*
X8174714Y-9293914D01*
X8131857Y-9293914D01*
X8103285Y-9308200D01*
X8089000Y-9322486D01*
X8403286Y-9493914D02*
X8374714Y-9479629D01*
X8360428Y-9465343D01*
X8346143Y-9436772D01*
X8346143Y-9351057D01*
X8360428Y-9322486D01*
X8374714Y-9308200D01*
X8403286Y-9293914D01*
X8446143Y-9293914D01*
X8474714Y-9308200D01*
X8489000Y-9322486D01*
X8503286Y-9351057D01*
X8503286Y-9436772D01*
X8489000Y-9465343D01*
X8474714Y-9479629D01*
X8446143Y-9493914D01*
X8403286Y-9493914D01*
X8674714Y-9493914D02*
X8646143Y-9479629D01*
X8631857Y-9451057D01*
X8631857Y-9193914D01*
X8903286Y-9479629D02*
X8874714Y-9493914D01*
X8817571Y-9493914D01*
X8789000Y-9479629D01*
X8774714Y-9451057D01*
X8774714Y-9336772D01*
X8789000Y-9308200D01*
X8817571Y-9293914D01*
X8874714Y-9293914D01*
X8903286Y-9308200D01*
X8917571Y-9336772D01*
X8917571Y-9365343D01*
X8774714Y-9393914D01*
X9031857Y-9479629D02*
X9060429Y-9493914D01*
X9117571Y-9493914D01*
X9146143Y-9479629D01*
X9160429Y-9451057D01*
X9160429Y-9436772D01*
X9146143Y-9408200D01*
X9117571Y-9393914D01*
X9074714Y-9393914D01*
X9046143Y-9379629D01*
X9031857Y-9351057D01*
X9031857Y-9336772D01*
X9046143Y-9308200D01*
X9074714Y-9293914D01*
X9117571Y-9293914D01*
X9146143Y-9308200D01*
X9260428Y-9608200D02*
X9274714Y-9593914D01*
X9303286Y-9551057D01*
X9317571Y-9522486D01*
X9331857Y-9479629D01*
X9346143Y-9408200D01*
X9346143Y-9351057D01*
X9331857Y-9279629D01*
X9317571Y-9236772D01*
X9303286Y-9208200D01*
X9274714Y-9165343D01*
X9260428Y-9151057D01*
X9803286Y-9608200D02*
X9789000Y-9593914D01*
X9760428Y-9551057D01*
X9746143Y-9522486D01*
X9731857Y-9479629D01*
X9717571Y-9408200D01*
X9717571Y-9351057D01*
X9731857Y-9279629D01*
X9746143Y-9236772D01*
X9760428Y-9208200D01*
X9789000Y-9165343D01*
X9803286Y-9151057D01*
X9917571Y-9293914D02*
X9917571Y-9493914D01*
X9917571Y-9322486D02*
X9931857Y-9308200D01*
X9960428Y-9293914D01*
X10003286Y-9293914D01*
X10031857Y-9308200D01*
X10046143Y-9336772D01*
X10046143Y-9493914D01*
X10231857Y-9493914D02*
X10203286Y-9479629D01*
X10189000Y-9465343D01*
X10174714Y-9436772D01*
X10174714Y-9351057D01*
X10189000Y-9322486D01*
X10203286Y-9308200D01*
X10231857Y-9293914D01*
X10274714Y-9293914D01*
X10303286Y-9308200D01*
X10317571Y-9322486D01*
X10331857Y-9351057D01*
X10331857Y-9436772D01*
X10317571Y-9465343D01*
X10303286Y-9479629D01*
X10274714Y-9493914D01*
X10231857Y-9493914D01*
X10417571Y-9293914D02*
X10531857Y-9293914D01*
X10460429Y-9193914D02*
X10460429Y-9451057D01*
X10474714Y-9479629D01*
X10503286Y-9493914D01*
X10531857Y-9493914D01*
X10860429Y-9293914D02*
X10860429Y-9593914D01*
X10860429Y-9308200D02*
X10889000Y-9293914D01*
X10946143Y-9293914D01*
X10974714Y-9308200D01*
X10989000Y-9322486D01*
X11003286Y-9351057D01*
X11003286Y-9436772D01*
X10989000Y-9465343D01*
X10974714Y-9479629D01*
X10946143Y-9493914D01*
X10889000Y-9493914D01*
X10860429Y-9479629D01*
X11174714Y-9493914D02*
X11146143Y-9479629D01*
X11131857Y-9451057D01*
X11131857Y-9193914D01*
X11417571Y-9493914D02*
X11417571Y-9336772D01*
X11403286Y-9308200D01*
X11374714Y-9293914D01*
X11317571Y-9293914D01*
X11289000Y-9308200D01*
X11417571Y-9479629D02*
X11389000Y-9493914D01*
X11317571Y-9493914D01*
X11289000Y-9479629D01*
X11274714Y-9451057D01*
X11274714Y-9422486D01*
X11289000Y-9393914D01*
X11317571Y-9379629D01*
X11389000Y-9379629D01*
X11417571Y-9365343D01*
X11517571Y-9293914D02*
X11631857Y-9293914D01*
X11560429Y-9193914D02*
X11560429Y-9451057D01*
X11574714Y-9479629D01*
X11603286Y-9493914D01*
X11631857Y-9493914D01*
X11846143Y-9479629D02*
X11817571Y-9493914D01*
X11760429Y-9493914D01*
X11731857Y-9479629D01*
X11717571Y-9451057D01*
X11717571Y-9336772D01*
X11731857Y-9308200D01*
X11760429Y-9293914D01*
X11817571Y-9293914D01*
X11846143Y-9308200D01*
X11860429Y-9336772D01*
X11860429Y-9365343D01*
X11717571Y-9393914D01*
X12117571Y-9493914D02*
X12117571Y-9193914D01*
X12117571Y-9479629D02*
X12089000Y-9493914D01*
X12031857Y-9493914D01*
X12003286Y-9479629D01*
X11989000Y-9465343D01*
X11974714Y-9436772D01*
X11974714Y-9351057D01*
X11989000Y-9322486D01*
X12003286Y-9308200D01*
X12031857Y-9293914D01*
X12089000Y-9293914D01*
X12117571Y-9308200D01*
X12231857Y-9608200D02*
X12246143Y-9593914D01*
X12274714Y-9551057D01*
X12289000Y-9522486D01*
X12303286Y-9479629D01*
X12317571Y-9408200D01*
X12317571Y-9351057D01*
X12303286Y-9279629D01*
X12289000Y-9236772D01*
X12274714Y-9208200D01*
X12246143Y-9165343D01*
X12231857Y-9151057D01*
M02*
