%FSLAX45Y45*%
G04 Gerber Fmt 4.5, Leading zero omitted, Abs format (unit mm)*
G04 Created by KiCad (PCBNEW 4.0.6) date Friday 09 June 2017 11:09:43*
%MOMM*%
%LPD*%
G01*
G04 APERTURE LIST*
%ADD10C,0.127000*%
%ADD11C,0.100000*%
%ADD12C,0.200000*%
%ADD13C,0.300000*%
G04 APERTURE END LIST*
D10*
D11*
X9292590Y-3091180D02*
X9292590Y-8092440D01*
X2794000Y-3096260D02*
X2794000Y-4645660D01*
X9294000Y-3093200D02*
G75*
G03X8994000Y-2793200I-300000J0D01*
G01*
X3094000Y-2793200D02*
X8994000Y-2793200D01*
X3094000Y-2793200D02*
G75*
G03X2794000Y-3093200I0J-300000D01*
G01*
X7394000Y-7993200D02*
G75*
G02X7194000Y-7993200I-100000J0D01*
G01*
X7394000Y-6493200D02*
G75*
G03X7194000Y-6493200I-100000J0D01*
G01*
X7394000Y-6493200D02*
X7394000Y-7993200D01*
X7194000Y-6493200D02*
X7194000Y-7993200D01*
X2894000Y-6443200D02*
G75*
G03X2794000Y-6543200I0J-100000D01*
G01*
X3194000Y-6443200D02*
G75*
G03X3294000Y-6343200I0J100000D01*
G01*
X3294000Y-4843200D02*
G75*
G03X3194000Y-4743200I-100000J0D01*
G01*
X2794000Y-4643200D02*
G75*
G03X2894000Y-4743200I100000J0D01*
G01*
X8994000Y-8393200D02*
G75*
G03X9294000Y-8093200I0J300000D01*
G01*
X2794000Y-8093200D02*
G75*
G03X3094000Y-8393200I300000J0D01*
G01*
X2794000Y-6543200D02*
X2794000Y-8093200D01*
X2894000Y-6443200D02*
X3194000Y-6443200D01*
X2894000Y-4743200D02*
X3194000Y-4743200D01*
X3294000Y-4843200D02*
X3294000Y-6343200D01*
X3094000Y-8393200D02*
X8994000Y-8393200D01*
D12*
X3965500Y-6696000D02*
X4035500Y-6766000D01*
X4035500Y-6696000D02*
X3965500Y-6766000D01*
X4215500Y-6696000D02*
X4285500Y-6766000D01*
X4285500Y-6696000D02*
X4215500Y-6766000D01*
X5235500Y-6696000D02*
X5305500Y-6766000D01*
X5305500Y-6696000D02*
X5235500Y-6766000D01*
X5485500Y-6696000D02*
X5555500Y-6766000D01*
X5555500Y-6696000D02*
X5485500Y-6766000D01*
X3149000Y-6766000D02*
G75*
G03X3149000Y-6766000I-37500J0D01*
G01*
X3149000Y-6966000D02*
G75*
G03X3149000Y-6966000I-37500J0D01*
G01*
X3149000Y-7166000D02*
G75*
G03X3149000Y-7166000I-37500J0D01*
G01*
X3149000Y-7366000D02*
G75*
G03X3149000Y-7366000I-37500J0D01*
G01*
X9054500Y-6794500D02*
G75*
G03X9054500Y-6794500I-37500J0D01*
G01*
X9054500Y-6994500D02*
G75*
G03X9054500Y-6994500I-37500J0D01*
G01*
X9054500Y-7194500D02*
G75*
G03X9054500Y-7194500I-37500J0D01*
G01*
X9054500Y-7394500D02*
G75*
G03X9054500Y-7394500I-37500J0D01*
G01*
X4006850Y-4405000D02*
X4006850Y-4485000D01*
X3966850Y-4445000D02*
X4046850Y-4445000D01*
X4006850Y-4659000D02*
X4006850Y-4739000D01*
X3966850Y-4699000D02*
X4046850Y-4699000D01*
X4006850Y-4913000D02*
X4006850Y-4993000D01*
X3966850Y-4953000D02*
X4046850Y-4953000D01*
X4006850Y-5167000D02*
X4006850Y-5247000D01*
X3966850Y-5207000D02*
X4046850Y-5207000D01*
X4006850Y-5421000D02*
X4006850Y-5501000D01*
X3966850Y-5461000D02*
X4046850Y-5461000D01*
X4006850Y-5675000D02*
X4006850Y-5755000D01*
X3966850Y-5715000D02*
X4046850Y-5715000D01*
X4006850Y-5929000D02*
X4006850Y-6009000D01*
X3966850Y-5969000D02*
X4046850Y-5969000D01*
X4006850Y-6183000D02*
X4006850Y-6263000D01*
X3966850Y-6223000D02*
X4046850Y-6223000D01*
X4768850Y-4405000D02*
X4768850Y-4485000D01*
X4728850Y-4445000D02*
X4808850Y-4445000D01*
X4768850Y-4659000D02*
X4768850Y-4739000D01*
X4728850Y-4699000D02*
X4808850Y-4699000D01*
X4768850Y-4913000D02*
X4768850Y-4993000D01*
X4728850Y-4953000D02*
X4808850Y-4953000D01*
X4768850Y-5167000D02*
X4768850Y-5247000D01*
X4728850Y-5207000D02*
X4808850Y-5207000D01*
X4768850Y-5421000D02*
X4768850Y-5501000D01*
X4728850Y-5461000D02*
X4808850Y-5461000D01*
X4768850Y-5675000D02*
X4768850Y-5755000D01*
X4728850Y-5715000D02*
X4808850Y-5715000D01*
X4768850Y-5929000D02*
X4768850Y-6009000D01*
X4728850Y-5969000D02*
X4808850Y-5969000D01*
X4768850Y-6183000D02*
X4768850Y-6263000D01*
X4728850Y-6223000D02*
X4808850Y-6223000D01*
X3835470Y-3689420D02*
X3835470Y-3625780D01*
X3771830Y-3625780D01*
X3771830Y-3689420D01*
X3835470Y-3689420D01*
X3835470Y-3943420D02*
X3835470Y-3879780D01*
X3771830Y-3879780D01*
X3771830Y-3943420D01*
X3835470Y-3943420D01*
X4521270Y-3689420D02*
X4521270Y-3625780D01*
X4457630Y-3625780D01*
X4457630Y-3689420D01*
X4521270Y-3689420D01*
X4521270Y-3943420D02*
X4521270Y-3879780D01*
X4457630Y-3879780D01*
X4457630Y-3943420D01*
X4521270Y-3943420D01*
X5181670Y-3689420D02*
X5181670Y-3625780D01*
X5118030Y-3625780D01*
X5118030Y-3689420D01*
X5181670Y-3689420D01*
X5181670Y-3943420D02*
X5181670Y-3879780D01*
X5118030Y-3879780D01*
X5118030Y-3943420D01*
X5181670Y-3943420D01*
X7924870Y-3714820D02*
X7924870Y-3651180D01*
X7861230Y-3651180D01*
X7861230Y-3714820D01*
X7924870Y-3714820D01*
X7924870Y-3968820D02*
X7924870Y-3905180D01*
X7861230Y-3905180D01*
X7861230Y-3968820D01*
X7924870Y-3968820D01*
X5810250Y-3707638D02*
X5860288Y-3657600D01*
X5810250Y-3607562D01*
X5760212Y-3657600D01*
X5810250Y-3707638D01*
X5810250Y-3961638D02*
X5860288Y-3911600D01*
X5810250Y-3861562D01*
X5760212Y-3911600D01*
X5810250Y-3961638D01*
X5822950Y-4450588D02*
X5872988Y-4400550D01*
X5822950Y-4350512D01*
X5772912Y-4400550D01*
X5822950Y-4450588D01*
X5822950Y-5950588D02*
X5872988Y-5900550D01*
X5822950Y-5850512D01*
X5772912Y-5900550D01*
X5822950Y-5950588D01*
X6140450Y-4444238D02*
X6190488Y-4394200D01*
X6140450Y-4344162D01*
X6090412Y-4394200D01*
X6140450Y-4444238D01*
X6140450Y-5944238D02*
X6190488Y-5894200D01*
X6140450Y-5844162D01*
X6090412Y-5894200D01*
X6140450Y-5944238D01*
X6470650Y-4444238D02*
X6520688Y-4394200D01*
X6470650Y-4344162D01*
X6420612Y-4394200D01*
X6470650Y-4444238D01*
X6470650Y-5944238D02*
X6520688Y-5894200D01*
X6470650Y-5844162D01*
X6420612Y-5894200D01*
X6470650Y-5944238D01*
X6496050Y-3707638D02*
X6546088Y-3657600D01*
X6496050Y-3607562D01*
X6446012Y-3657600D01*
X6496050Y-3707638D01*
X6496050Y-3961638D02*
X6546088Y-3911600D01*
X6496050Y-3861562D01*
X6446012Y-3911600D01*
X6496050Y-3961638D01*
X6826250Y-4444238D02*
X6876288Y-4394200D01*
X6826250Y-4344162D01*
X6776212Y-4394200D01*
X6826250Y-4444238D01*
X6826250Y-5944238D02*
X6876288Y-5894200D01*
X6826250Y-5844162D01*
X6776212Y-5894200D01*
X6826250Y-5944238D01*
X7131050Y-4444238D02*
X7181088Y-4394200D01*
X7131050Y-4344162D01*
X7081012Y-4394200D01*
X7131050Y-4444238D01*
X7131050Y-5944238D02*
X7181088Y-5894200D01*
X7131050Y-5844162D01*
X7081012Y-5894200D01*
X7131050Y-5944238D01*
X7181850Y-3733038D02*
X7231888Y-3683000D01*
X7181850Y-3632962D01*
X7131812Y-3683000D01*
X7181850Y-3733038D01*
X7181850Y-3987038D02*
X7231888Y-3937000D01*
X7181850Y-3886962D01*
X7131812Y-3937000D01*
X7181850Y-3987038D01*
X7461250Y-4444238D02*
X7511288Y-4394200D01*
X7461250Y-4344162D01*
X7411212Y-4394200D01*
X7461250Y-4444238D01*
X7461250Y-5944238D02*
X7511288Y-5894200D01*
X7461250Y-5844162D01*
X7411212Y-5894200D01*
X7461250Y-5944238D01*
X7791450Y-4444238D02*
X7841488Y-4394200D01*
X7791450Y-4344162D01*
X7741412Y-4394200D01*
X7791450Y-4444238D01*
X7791450Y-5944238D02*
X7841488Y-5894200D01*
X7791450Y-5844162D01*
X7741412Y-5894200D01*
X7791450Y-5944238D01*
X8096250Y-4444238D02*
X8146288Y-4394200D01*
X8096250Y-4344162D01*
X8046212Y-4394200D01*
X8096250Y-4444238D01*
X8096250Y-5944238D02*
X8146288Y-5894200D01*
X8096250Y-5844162D01*
X8046212Y-5894200D01*
X8096250Y-5944238D01*
X8426450Y-4442838D02*
X8476488Y-4392800D01*
X8426450Y-4342762D01*
X8376412Y-4392800D01*
X8426450Y-4442838D01*
X8426450Y-5942838D02*
X8476488Y-5892800D01*
X8426450Y-5842762D01*
X8376412Y-5892800D01*
X8426450Y-5942838D01*
X8756650Y-4444238D02*
X8806688Y-4394200D01*
X8756650Y-4344162D01*
X8706612Y-4394200D01*
X8756650Y-4444238D01*
X8756650Y-5944238D02*
X8806688Y-5894200D01*
X8756650Y-5844162D01*
X8706612Y-5894200D01*
X8756650Y-5944238D01*
X9086850Y-4442838D02*
X9136888Y-4392800D01*
X9086850Y-4342762D01*
X9036812Y-4392800D01*
X9086850Y-4442838D01*
X9086850Y-5942838D02*
X9136888Y-5892800D01*
X9086850Y-5842762D01*
X9036812Y-5892800D01*
X9086850Y-5942838D01*
X3580200Y-2965400D02*
X3681800Y-3067000D01*
X3681800Y-2965400D02*
X3580200Y-3067000D01*
X3681800Y-3016200D02*
G75*
G03X3681800Y-3016200I-50800J0D01*
G01*
X3580200Y-3219400D02*
X3681800Y-3321000D01*
X3681800Y-3219400D02*
X3580200Y-3321000D01*
X3681800Y-3270200D02*
G75*
G03X3681800Y-3270200I-50800J0D01*
G01*
X3834200Y-2965400D02*
X3935800Y-3067000D01*
X3935800Y-2965400D02*
X3834200Y-3067000D01*
X3935800Y-3016200D02*
G75*
G03X3935800Y-3016200I-50800J0D01*
G01*
X3834200Y-3219400D02*
X3935800Y-3321000D01*
X3935800Y-3219400D02*
X3834200Y-3321000D01*
X3935800Y-3270200D02*
G75*
G03X3935800Y-3270200I-50800J0D01*
G01*
X4088200Y-2965400D02*
X4189800Y-3067000D01*
X4189800Y-2965400D02*
X4088200Y-3067000D01*
X4189800Y-3016200D02*
G75*
G03X4189800Y-3016200I-50800J0D01*
G01*
X4088200Y-3219400D02*
X4189800Y-3321000D01*
X4189800Y-3219400D02*
X4088200Y-3321000D01*
X4189800Y-3270200D02*
G75*
G03X4189800Y-3270200I-50800J0D01*
G01*
X4342200Y-2965400D02*
X4443800Y-3067000D01*
X4443800Y-2965400D02*
X4342200Y-3067000D01*
X4443800Y-3016200D02*
G75*
G03X4443800Y-3016200I-50800J0D01*
G01*
X4342200Y-3219400D02*
X4443800Y-3321000D01*
X4443800Y-3219400D02*
X4342200Y-3321000D01*
X4443800Y-3270200D02*
G75*
G03X4443800Y-3270200I-50800J0D01*
G01*
X4596200Y-2965400D02*
X4697800Y-3067000D01*
X4697800Y-2965400D02*
X4596200Y-3067000D01*
X4697800Y-3016200D02*
G75*
G03X4697800Y-3016200I-50800J0D01*
G01*
X4596200Y-3219400D02*
X4697800Y-3321000D01*
X4697800Y-3219400D02*
X4596200Y-3321000D01*
X4697800Y-3270200D02*
G75*
G03X4697800Y-3270200I-50800J0D01*
G01*
X4850200Y-2965400D02*
X4951800Y-3067000D01*
X4951800Y-2965400D02*
X4850200Y-3067000D01*
X4951800Y-3016200D02*
G75*
G03X4951800Y-3016200I-50800J0D01*
G01*
X4850200Y-3219400D02*
X4951800Y-3321000D01*
X4951800Y-3219400D02*
X4850200Y-3321000D01*
X4951800Y-3270200D02*
G75*
G03X4951800Y-3270200I-50800J0D01*
G01*
X5104200Y-2965400D02*
X5205800Y-3067000D01*
X5205800Y-2965400D02*
X5104200Y-3067000D01*
X5205800Y-3016200D02*
G75*
G03X5205800Y-3016200I-50800J0D01*
G01*
X5104200Y-3219400D02*
X5205800Y-3321000D01*
X5205800Y-3219400D02*
X5104200Y-3321000D01*
X5205800Y-3270200D02*
G75*
G03X5205800Y-3270200I-50800J0D01*
G01*
X5358200Y-2965400D02*
X5459800Y-3067000D01*
X5459800Y-2965400D02*
X5358200Y-3067000D01*
X5459800Y-3016200D02*
G75*
G03X5459800Y-3016200I-50800J0D01*
G01*
X5358200Y-3219400D02*
X5459800Y-3321000D01*
X5459800Y-3219400D02*
X5358200Y-3321000D01*
X5459800Y-3270200D02*
G75*
G03X5459800Y-3270200I-50800J0D01*
G01*
X5612200Y-2965400D02*
X5713800Y-3067000D01*
X5713800Y-2965400D02*
X5612200Y-3067000D01*
X5713800Y-3016200D02*
G75*
G03X5713800Y-3016200I-50800J0D01*
G01*
X5612200Y-3219400D02*
X5713800Y-3321000D01*
X5713800Y-3219400D02*
X5612200Y-3321000D01*
X5713800Y-3270200D02*
G75*
G03X5713800Y-3270200I-50800J0D01*
G01*
X5791200Y-6362700D02*
X5892800Y-6464300D01*
X5892800Y-6362700D02*
X5791200Y-6464300D01*
X5892800Y-6413500D02*
G75*
G03X5892800Y-6413500I-50800J0D01*
G01*
X5866200Y-2965400D02*
X5967800Y-3067000D01*
X5967800Y-2965400D02*
X5866200Y-3067000D01*
X5967800Y-3016200D02*
G75*
G03X5967800Y-3016200I-50800J0D01*
G01*
X5866200Y-3219400D02*
X5967800Y-3321000D01*
X5967800Y-3219400D02*
X5866200Y-3321000D01*
X5967800Y-3270200D02*
G75*
G03X5967800Y-3270200I-50800J0D01*
G01*
X6045200Y-6362700D02*
X6146800Y-6464300D01*
X6146800Y-6362700D02*
X6045200Y-6464300D01*
X6146800Y-6413500D02*
G75*
G03X6146800Y-6413500I-50800J0D01*
G01*
X6120200Y-2965400D02*
X6221800Y-3067000D01*
X6221800Y-2965400D02*
X6120200Y-3067000D01*
X6221800Y-3016200D02*
G75*
G03X6221800Y-3016200I-50800J0D01*
G01*
X6120200Y-3219400D02*
X6221800Y-3321000D01*
X6221800Y-3219400D02*
X6120200Y-3321000D01*
X6221800Y-3270200D02*
G75*
G03X6221800Y-3270200I-50800J0D01*
G01*
X6299200Y-6362700D02*
X6400800Y-6464300D01*
X6400800Y-6362700D02*
X6299200Y-6464300D01*
X6400800Y-6413500D02*
G75*
G03X6400800Y-6413500I-50800J0D01*
G01*
X6374200Y-2965400D02*
X6475800Y-3067000D01*
X6475800Y-2965400D02*
X6374200Y-3067000D01*
X6475800Y-3016200D02*
G75*
G03X6475800Y-3016200I-50800J0D01*
G01*
X6374200Y-3219400D02*
X6475800Y-3321000D01*
X6475800Y-3219400D02*
X6374200Y-3321000D01*
X6475800Y-3270200D02*
G75*
G03X6475800Y-3270200I-50800J0D01*
G01*
X6553200Y-6362700D02*
X6654800Y-6464300D01*
X6654800Y-6362700D02*
X6553200Y-6464300D01*
X6654800Y-6413500D02*
G75*
G03X6654800Y-6413500I-50800J0D01*
G01*
X6628200Y-2965400D02*
X6729800Y-3067000D01*
X6729800Y-2965400D02*
X6628200Y-3067000D01*
X6729800Y-3016200D02*
G75*
G03X6729800Y-3016200I-50800J0D01*
G01*
X6628200Y-3219400D02*
X6729800Y-3321000D01*
X6729800Y-3219400D02*
X6628200Y-3321000D01*
X6729800Y-3270200D02*
G75*
G03X6729800Y-3270200I-50800J0D01*
G01*
X6807200Y-6362700D02*
X6908800Y-6464300D01*
X6908800Y-6362700D02*
X6807200Y-6464300D01*
X6908800Y-6413500D02*
G75*
G03X6908800Y-6413500I-50800J0D01*
G01*
X6882200Y-2965400D02*
X6983800Y-3067000D01*
X6983800Y-2965400D02*
X6882200Y-3067000D01*
X6983800Y-3016200D02*
G75*
G03X6983800Y-3016200I-50800J0D01*
G01*
X6882200Y-3219400D02*
X6983800Y-3321000D01*
X6983800Y-3219400D02*
X6882200Y-3321000D01*
X6983800Y-3270200D02*
G75*
G03X6983800Y-3270200I-50800J0D01*
G01*
X7136200Y-2965400D02*
X7237800Y-3067000D01*
X7237800Y-2965400D02*
X7136200Y-3067000D01*
X7237800Y-3016200D02*
G75*
G03X7237800Y-3016200I-50800J0D01*
G01*
X7136200Y-3219400D02*
X7237800Y-3321000D01*
X7237800Y-3219400D02*
X7136200Y-3321000D01*
X7237800Y-3270200D02*
G75*
G03X7237800Y-3270200I-50800J0D01*
G01*
X7390200Y-2965400D02*
X7491800Y-3067000D01*
X7491800Y-2965400D02*
X7390200Y-3067000D01*
X7491800Y-3016200D02*
G75*
G03X7491800Y-3016200I-50800J0D01*
G01*
X7390200Y-3219400D02*
X7491800Y-3321000D01*
X7491800Y-3219400D02*
X7390200Y-3321000D01*
X7491800Y-3270200D02*
G75*
G03X7491800Y-3270200I-50800J0D01*
G01*
X7588250Y-6311900D02*
X7689850Y-6413500D01*
X7689850Y-6311900D02*
X7588250Y-6413500D01*
X7689850Y-6362700D02*
G75*
G03X7689850Y-6362700I-50800J0D01*
G01*
X7644200Y-2965400D02*
X7745800Y-3067000D01*
X7745800Y-2965400D02*
X7644200Y-3067000D01*
X7745800Y-3016200D02*
G75*
G03X7745800Y-3016200I-50800J0D01*
G01*
X7644200Y-3219400D02*
X7745800Y-3321000D01*
X7745800Y-3219400D02*
X7644200Y-3321000D01*
X7745800Y-3270200D02*
G75*
G03X7745800Y-3270200I-50800J0D01*
G01*
X7842250Y-6311900D02*
X7943850Y-6413500D01*
X7943850Y-6311900D02*
X7842250Y-6413500D01*
X7943850Y-6362700D02*
G75*
G03X7943850Y-6362700I-50800J0D01*
G01*
X7898200Y-2965400D02*
X7999800Y-3067000D01*
X7999800Y-2965400D02*
X7898200Y-3067000D01*
X7999800Y-3016200D02*
G75*
G03X7999800Y-3016200I-50800J0D01*
G01*
X7898200Y-3219400D02*
X7999800Y-3321000D01*
X7999800Y-3219400D02*
X7898200Y-3321000D01*
X7999800Y-3270200D02*
G75*
G03X7999800Y-3270200I-50800J0D01*
G01*
X8096250Y-6311900D02*
X8197850Y-6413500D01*
X8197850Y-6311900D02*
X8096250Y-6413500D01*
X8197850Y-6362700D02*
G75*
G03X8197850Y-6362700I-50800J0D01*
G01*
X8152200Y-2965400D02*
X8253800Y-3067000D01*
X8253800Y-2965400D02*
X8152200Y-3067000D01*
X8253800Y-3016200D02*
G75*
G03X8253800Y-3016200I-50800J0D01*
G01*
X8152200Y-3219400D02*
X8253800Y-3321000D01*
X8253800Y-3219400D02*
X8152200Y-3321000D01*
X8253800Y-3270200D02*
G75*
G03X8253800Y-3270200I-50800J0D01*
G01*
X8350250Y-6311900D02*
X8451850Y-6413500D01*
X8451850Y-6311900D02*
X8350250Y-6413500D01*
X8451850Y-6362700D02*
G75*
G03X8451850Y-6362700I-50800J0D01*
G01*
X8406200Y-2965400D02*
X8507800Y-3067000D01*
X8507800Y-2965400D02*
X8406200Y-3067000D01*
X8507800Y-3016200D02*
G75*
G03X8507800Y-3016200I-50800J0D01*
G01*
X8406200Y-3219400D02*
X8507800Y-3321000D01*
X8507800Y-3219400D02*
X8406200Y-3321000D01*
X8507800Y-3270200D02*
G75*
G03X8507800Y-3270200I-50800J0D01*
G01*
X4072500Y-7486500D02*
X4182500Y-7596500D01*
X4182500Y-7486500D02*
X4072500Y-7596500D01*
X4127500Y-7486500D02*
X4127500Y-7596500D01*
X4072500Y-7541500D02*
X4182500Y-7541500D01*
X4072500Y-8136500D02*
X4182500Y-8246500D01*
X4182500Y-8136500D02*
X4072500Y-8246500D01*
X4127500Y-8136500D02*
X4127500Y-8246500D01*
X4072500Y-8191500D02*
X4182500Y-8191500D01*
X4522500Y-7486500D02*
X4632500Y-7596500D01*
X4632500Y-7486500D02*
X4522500Y-7596500D01*
X4577500Y-7486500D02*
X4577500Y-7596500D01*
X4522500Y-7541500D02*
X4632500Y-7541500D01*
X4522500Y-8136500D02*
X4632500Y-8246500D01*
X4632500Y-8136500D02*
X4522500Y-8246500D01*
X4577500Y-8136500D02*
X4577500Y-8246500D01*
X4522500Y-8191500D02*
X4632500Y-8191500D01*
X4898000Y-7486500D02*
X5008000Y-7596500D01*
X5008000Y-7486500D02*
X4898000Y-7596500D01*
X4953000Y-7486500D02*
X4953000Y-7596500D01*
X4898000Y-7541500D02*
X5008000Y-7541500D01*
X4898000Y-8136500D02*
X5008000Y-8246500D01*
X5008000Y-8136500D02*
X4898000Y-8246500D01*
X4953000Y-8136500D02*
X4953000Y-8246500D01*
X4898000Y-8191500D02*
X5008000Y-8191500D01*
X5348000Y-7486500D02*
X5458000Y-7596500D01*
X5458000Y-7486500D02*
X5348000Y-7596500D01*
X5403000Y-7486500D02*
X5403000Y-7596500D01*
X5348000Y-7541500D02*
X5458000Y-7541500D01*
X5348000Y-8136500D02*
X5458000Y-8246500D01*
X5458000Y-8136500D02*
X5348000Y-8246500D01*
X5403000Y-8136500D02*
X5403000Y-8246500D01*
X5348000Y-8191500D02*
X5458000Y-8191500D01*
D13*
X3060428Y-8863914D02*
X3060428Y-8563914D01*
X3131857Y-8563914D01*
X3174714Y-8578200D01*
X3203286Y-8606772D01*
X3217571Y-8635343D01*
X3231857Y-8692486D01*
X3231857Y-8735343D01*
X3217571Y-8792486D01*
X3203286Y-8821057D01*
X3174714Y-8849629D01*
X3131857Y-8863914D01*
X3060428Y-8863914D01*
X3360428Y-8863914D02*
X3360428Y-8663914D01*
X3360428Y-8721057D02*
X3374714Y-8692486D01*
X3389000Y-8678200D01*
X3417571Y-8663914D01*
X3446143Y-8663914D01*
X3546143Y-8863914D02*
X3546143Y-8663914D01*
X3546143Y-8563914D02*
X3531857Y-8578200D01*
X3546143Y-8592486D01*
X3560428Y-8578200D01*
X3546143Y-8563914D01*
X3546143Y-8592486D01*
X3731857Y-8863914D02*
X3703286Y-8849629D01*
X3689000Y-8821057D01*
X3689000Y-8563914D01*
X3889000Y-8863914D02*
X3860428Y-8849629D01*
X3846143Y-8821057D01*
X3846143Y-8563914D01*
X4231857Y-8863914D02*
X4231857Y-8563914D01*
X4331857Y-8778200D01*
X4431857Y-8563914D01*
X4431857Y-8863914D01*
X4703286Y-8863914D02*
X4703286Y-8706772D01*
X4689000Y-8678200D01*
X4660429Y-8663914D01*
X4603286Y-8663914D01*
X4574714Y-8678200D01*
X4703286Y-8849629D02*
X4674714Y-8863914D01*
X4603286Y-8863914D01*
X4574714Y-8849629D01*
X4560429Y-8821057D01*
X4560429Y-8792486D01*
X4574714Y-8763914D01*
X4603286Y-8749629D01*
X4674714Y-8749629D01*
X4703286Y-8735343D01*
X4846143Y-8663914D02*
X4846143Y-8963914D01*
X4846143Y-8678200D02*
X4874714Y-8663914D01*
X4931857Y-8663914D01*
X4960429Y-8678200D01*
X4974714Y-8692486D01*
X4989000Y-8721057D01*
X4989000Y-8806772D01*
X4974714Y-8835343D01*
X4960429Y-8849629D01*
X4931857Y-8863914D01*
X4874714Y-8863914D01*
X4846143Y-8849629D01*
X5117571Y-8835343D02*
X5131857Y-8849629D01*
X5117571Y-8863914D01*
X5103286Y-8849629D01*
X5117571Y-8835343D01*
X5117571Y-8863914D01*
X5117571Y-8678200D02*
X5131857Y-8692486D01*
X5117571Y-8706772D01*
X5103286Y-8692486D01*
X5117571Y-8678200D01*
X5117571Y-8706772D01*
X2719000Y-9323200D02*
X2789000Y-9393200D01*
X2789000Y-9323200D02*
X2719000Y-9393200D01*
X3117571Y-9193914D02*
X3146143Y-9193914D01*
X3174714Y-9208200D01*
X3189000Y-9222486D01*
X3203286Y-9251057D01*
X3217571Y-9308200D01*
X3217571Y-9379629D01*
X3203286Y-9436772D01*
X3189000Y-9465343D01*
X3174714Y-9479629D01*
X3146143Y-9493914D01*
X3117571Y-9493914D01*
X3089000Y-9479629D01*
X3074714Y-9465343D01*
X3060428Y-9436772D01*
X3046143Y-9379629D01*
X3046143Y-9308200D01*
X3060428Y-9251057D01*
X3074714Y-9222486D01*
X3089000Y-9208200D01*
X3117571Y-9193914D01*
X3346143Y-9465343D02*
X3360428Y-9479629D01*
X3346143Y-9493914D01*
X3331857Y-9479629D01*
X3346143Y-9465343D01*
X3346143Y-9493914D01*
X3460428Y-9193914D02*
X3660428Y-9193914D01*
X3531857Y-9493914D01*
X3831857Y-9193914D02*
X3860428Y-9193914D01*
X3889000Y-9208200D01*
X3903286Y-9222486D01*
X3917571Y-9251057D01*
X3931857Y-9308200D01*
X3931857Y-9379629D01*
X3917571Y-9436772D01*
X3903286Y-9465343D01*
X3889000Y-9479629D01*
X3860428Y-9493914D01*
X3831857Y-9493914D01*
X3803286Y-9479629D01*
X3789000Y-9465343D01*
X3774714Y-9436772D01*
X3760428Y-9379629D01*
X3760428Y-9308200D01*
X3774714Y-9251057D01*
X3789000Y-9222486D01*
X3803286Y-9208200D01*
X3831857Y-9193914D01*
X4060428Y-9493914D02*
X4060428Y-9293914D01*
X4060428Y-9322486D02*
X4074714Y-9308200D01*
X4103286Y-9293914D01*
X4146143Y-9293914D01*
X4174714Y-9308200D01*
X4189000Y-9336772D01*
X4189000Y-9493914D01*
X4189000Y-9336772D02*
X4203286Y-9308200D01*
X4231857Y-9293914D01*
X4274714Y-9293914D01*
X4303286Y-9308200D01*
X4317571Y-9336772D01*
X4317571Y-9493914D01*
X4460429Y-9493914D02*
X4460429Y-9293914D01*
X4460429Y-9322486D02*
X4474714Y-9308200D01*
X4503286Y-9293914D01*
X4546143Y-9293914D01*
X4574714Y-9308200D01*
X4589000Y-9336772D01*
X4589000Y-9493914D01*
X4589000Y-9336772D02*
X4603286Y-9308200D01*
X4631857Y-9293914D01*
X4674714Y-9293914D01*
X4703286Y-9308200D01*
X4717571Y-9336772D01*
X4717571Y-9493914D01*
X5303286Y-9179629D02*
X5046143Y-9565343D01*
X5689000Y-9193914D02*
X5717571Y-9193914D01*
X5746143Y-9208200D01*
X5760428Y-9222486D01*
X5774714Y-9251057D01*
X5789000Y-9308200D01*
X5789000Y-9379629D01*
X5774714Y-9436772D01*
X5760428Y-9465343D01*
X5746143Y-9479629D01*
X5717571Y-9493914D01*
X5689000Y-9493914D01*
X5660428Y-9479629D01*
X5646143Y-9465343D01*
X5631857Y-9436772D01*
X5617571Y-9379629D01*
X5617571Y-9308200D01*
X5631857Y-9251057D01*
X5646143Y-9222486D01*
X5660428Y-9208200D01*
X5689000Y-9193914D01*
X5917571Y-9465343D02*
X5931857Y-9479629D01*
X5917571Y-9493914D01*
X5903286Y-9479629D01*
X5917571Y-9465343D01*
X5917571Y-9493914D01*
X6117571Y-9193914D02*
X6146143Y-9193914D01*
X6174714Y-9208200D01*
X6189000Y-9222486D01*
X6203285Y-9251057D01*
X6217571Y-9308200D01*
X6217571Y-9379629D01*
X6203285Y-9436772D01*
X6189000Y-9465343D01*
X6174714Y-9479629D01*
X6146143Y-9493914D01*
X6117571Y-9493914D01*
X6089000Y-9479629D01*
X6074714Y-9465343D01*
X6060428Y-9436772D01*
X6046143Y-9379629D01*
X6046143Y-9308200D01*
X6060428Y-9251057D01*
X6074714Y-9222486D01*
X6089000Y-9208200D01*
X6117571Y-9193914D01*
X6331857Y-9222486D02*
X6346143Y-9208200D01*
X6374714Y-9193914D01*
X6446143Y-9193914D01*
X6474714Y-9208200D01*
X6489000Y-9222486D01*
X6503285Y-9251057D01*
X6503285Y-9279629D01*
X6489000Y-9322486D01*
X6317571Y-9493914D01*
X6503285Y-9493914D01*
X6674714Y-9322486D02*
X6646143Y-9308200D01*
X6631857Y-9293914D01*
X6617571Y-9265343D01*
X6617571Y-9251057D01*
X6631857Y-9222486D01*
X6646143Y-9208200D01*
X6674714Y-9193914D01*
X6731857Y-9193914D01*
X6760428Y-9208200D01*
X6774714Y-9222486D01*
X6789000Y-9251057D01*
X6789000Y-9265343D01*
X6774714Y-9293914D01*
X6760428Y-9308200D01*
X6731857Y-9322486D01*
X6674714Y-9322486D01*
X6646143Y-9336772D01*
X6631857Y-9351057D01*
X6617571Y-9379629D01*
X6617571Y-9436772D01*
X6631857Y-9465343D01*
X6646143Y-9479629D01*
X6674714Y-9493914D01*
X6731857Y-9493914D01*
X6760428Y-9479629D01*
X6774714Y-9465343D01*
X6789000Y-9436772D01*
X6789000Y-9379629D01*
X6774714Y-9351057D01*
X6760428Y-9336772D01*
X6731857Y-9322486D01*
X6903286Y-9193914D02*
X6903286Y-9251057D01*
X7017571Y-9193914D02*
X7017571Y-9251057D01*
X7460428Y-9608200D02*
X7446143Y-9593914D01*
X7417571Y-9551057D01*
X7403285Y-9522486D01*
X7389000Y-9479629D01*
X7374714Y-9408200D01*
X7374714Y-9351057D01*
X7389000Y-9279629D01*
X7403285Y-9236772D01*
X7417571Y-9208200D01*
X7446143Y-9165343D01*
X7460428Y-9151057D01*
X7703285Y-9293914D02*
X7703285Y-9493914D01*
X7631857Y-9179629D02*
X7560428Y-9393914D01*
X7746143Y-9393914D01*
X8089000Y-9493914D02*
X8089000Y-9193914D01*
X8217571Y-9493914D02*
X8217571Y-9336772D01*
X8203285Y-9308200D01*
X8174714Y-9293914D01*
X8131857Y-9293914D01*
X8103285Y-9308200D01*
X8089000Y-9322486D01*
X8403286Y-9493914D02*
X8374714Y-9479629D01*
X8360428Y-9465343D01*
X8346143Y-9436772D01*
X8346143Y-9351057D01*
X8360428Y-9322486D01*
X8374714Y-9308200D01*
X8403286Y-9293914D01*
X8446143Y-9293914D01*
X8474714Y-9308200D01*
X8489000Y-9322486D01*
X8503286Y-9351057D01*
X8503286Y-9436772D01*
X8489000Y-9465343D01*
X8474714Y-9479629D01*
X8446143Y-9493914D01*
X8403286Y-9493914D01*
X8674714Y-9493914D02*
X8646143Y-9479629D01*
X8631857Y-9451057D01*
X8631857Y-9193914D01*
X8903286Y-9479629D02*
X8874714Y-9493914D01*
X8817571Y-9493914D01*
X8789000Y-9479629D01*
X8774714Y-9451057D01*
X8774714Y-9336772D01*
X8789000Y-9308200D01*
X8817571Y-9293914D01*
X8874714Y-9293914D01*
X8903286Y-9308200D01*
X8917571Y-9336772D01*
X8917571Y-9365343D01*
X8774714Y-9393914D01*
X9031857Y-9479629D02*
X9060429Y-9493914D01*
X9117571Y-9493914D01*
X9146143Y-9479629D01*
X9160429Y-9451057D01*
X9160429Y-9436772D01*
X9146143Y-9408200D01*
X9117571Y-9393914D01*
X9074714Y-9393914D01*
X9046143Y-9379629D01*
X9031857Y-9351057D01*
X9031857Y-9336772D01*
X9046143Y-9308200D01*
X9074714Y-9293914D01*
X9117571Y-9293914D01*
X9146143Y-9308200D01*
X9260428Y-9608200D02*
X9274714Y-9593914D01*
X9303286Y-9551057D01*
X9317571Y-9522486D01*
X9331857Y-9479629D01*
X9346143Y-9408200D01*
X9346143Y-9351057D01*
X9331857Y-9279629D01*
X9317571Y-9236772D01*
X9303286Y-9208200D01*
X9274714Y-9165343D01*
X9260428Y-9151057D01*
X2789000Y-9754200D02*
G75*
G03X2789000Y-9754200I-37500J0D01*
G01*
X3117571Y-9589914D02*
X3146143Y-9589914D01*
X3174714Y-9604200D01*
X3189000Y-9618486D01*
X3203286Y-9647057D01*
X3217571Y-9704200D01*
X3217571Y-9775629D01*
X3203286Y-9832772D01*
X3189000Y-9861343D01*
X3174714Y-9875629D01*
X3146143Y-9889914D01*
X3117571Y-9889914D01*
X3089000Y-9875629D01*
X3074714Y-9861343D01*
X3060428Y-9832772D01*
X3046143Y-9775629D01*
X3046143Y-9704200D01*
X3060428Y-9647057D01*
X3074714Y-9618486D01*
X3089000Y-9604200D01*
X3117571Y-9589914D01*
X3346143Y-9861343D02*
X3360428Y-9875629D01*
X3346143Y-9889914D01*
X3331857Y-9875629D01*
X3346143Y-9861343D01*
X3346143Y-9889914D01*
X3460428Y-9589914D02*
X3660428Y-9589914D01*
X3531857Y-9889914D01*
X3917571Y-9589914D02*
X3774714Y-9589914D01*
X3760428Y-9732772D01*
X3774714Y-9718486D01*
X3803286Y-9704200D01*
X3874714Y-9704200D01*
X3903286Y-9718486D01*
X3917571Y-9732772D01*
X3931857Y-9761343D01*
X3931857Y-9832772D01*
X3917571Y-9861343D01*
X3903286Y-9875629D01*
X3874714Y-9889914D01*
X3803286Y-9889914D01*
X3774714Y-9875629D01*
X3760428Y-9861343D01*
X4060428Y-9889914D02*
X4060428Y-9689914D01*
X4060428Y-9718486D02*
X4074714Y-9704200D01*
X4103286Y-9689914D01*
X4146143Y-9689914D01*
X4174714Y-9704200D01*
X4189000Y-9732772D01*
X4189000Y-9889914D01*
X4189000Y-9732772D02*
X4203286Y-9704200D01*
X4231857Y-9689914D01*
X4274714Y-9689914D01*
X4303286Y-9704200D01*
X4317571Y-9732772D01*
X4317571Y-9889914D01*
X4460429Y-9889914D02*
X4460429Y-9689914D01*
X4460429Y-9718486D02*
X4474714Y-9704200D01*
X4503286Y-9689914D01*
X4546143Y-9689914D01*
X4574714Y-9704200D01*
X4589000Y-9732772D01*
X4589000Y-9889914D01*
X4589000Y-9732772D02*
X4603286Y-9704200D01*
X4631857Y-9689914D01*
X4674714Y-9689914D01*
X4703286Y-9704200D01*
X4717571Y-9732772D01*
X4717571Y-9889914D01*
X5303286Y-9575629D02*
X5046143Y-9961343D01*
X5689000Y-9589914D02*
X5717571Y-9589914D01*
X5746143Y-9604200D01*
X5760428Y-9618486D01*
X5774714Y-9647057D01*
X5789000Y-9704200D01*
X5789000Y-9775629D01*
X5774714Y-9832772D01*
X5760428Y-9861343D01*
X5746143Y-9875629D01*
X5717571Y-9889914D01*
X5689000Y-9889914D01*
X5660428Y-9875629D01*
X5646143Y-9861343D01*
X5631857Y-9832772D01*
X5617571Y-9775629D01*
X5617571Y-9704200D01*
X5631857Y-9647057D01*
X5646143Y-9618486D01*
X5660428Y-9604200D01*
X5689000Y-9589914D01*
X5917571Y-9861343D02*
X5931857Y-9875629D01*
X5917571Y-9889914D01*
X5903286Y-9875629D01*
X5917571Y-9861343D01*
X5917571Y-9889914D01*
X6117571Y-9589914D02*
X6146143Y-9589914D01*
X6174714Y-9604200D01*
X6189000Y-9618486D01*
X6203285Y-9647057D01*
X6217571Y-9704200D01*
X6217571Y-9775629D01*
X6203285Y-9832772D01*
X6189000Y-9861343D01*
X6174714Y-9875629D01*
X6146143Y-9889914D01*
X6117571Y-9889914D01*
X6089000Y-9875629D01*
X6074714Y-9861343D01*
X6060428Y-9832772D01*
X6046143Y-9775629D01*
X6046143Y-9704200D01*
X6060428Y-9647057D01*
X6074714Y-9618486D01*
X6089000Y-9604200D01*
X6117571Y-9589914D01*
X6317571Y-9589914D02*
X6503285Y-9589914D01*
X6403285Y-9704200D01*
X6446143Y-9704200D01*
X6474714Y-9718486D01*
X6489000Y-9732772D01*
X6503285Y-9761343D01*
X6503285Y-9832772D01*
X6489000Y-9861343D01*
X6474714Y-9875629D01*
X6446143Y-9889914D01*
X6360428Y-9889914D01*
X6331857Y-9875629D01*
X6317571Y-9861343D01*
X6689000Y-9589914D02*
X6717571Y-9589914D01*
X6746143Y-9604200D01*
X6760428Y-9618486D01*
X6774714Y-9647057D01*
X6789000Y-9704200D01*
X6789000Y-9775629D01*
X6774714Y-9832772D01*
X6760428Y-9861343D01*
X6746143Y-9875629D01*
X6717571Y-9889914D01*
X6689000Y-9889914D01*
X6660428Y-9875629D01*
X6646143Y-9861343D01*
X6631857Y-9832772D01*
X6617571Y-9775629D01*
X6617571Y-9704200D01*
X6631857Y-9647057D01*
X6646143Y-9618486D01*
X6660428Y-9604200D01*
X6689000Y-9589914D01*
X6903286Y-9589914D02*
X6903286Y-9647057D01*
X7017571Y-9589914D02*
X7017571Y-9647057D01*
X7460428Y-10004200D02*
X7446143Y-9989914D01*
X7417571Y-9947057D01*
X7403285Y-9918486D01*
X7389000Y-9875629D01*
X7374714Y-9804200D01*
X7374714Y-9747057D01*
X7389000Y-9675629D01*
X7403285Y-9632772D01*
X7417571Y-9604200D01*
X7446143Y-9561343D01*
X7460428Y-9547057D01*
X7617571Y-9718486D02*
X7589000Y-9704200D01*
X7574714Y-9689914D01*
X7560428Y-9661343D01*
X7560428Y-9647057D01*
X7574714Y-9618486D01*
X7589000Y-9604200D01*
X7617571Y-9589914D01*
X7674714Y-9589914D01*
X7703285Y-9604200D01*
X7717571Y-9618486D01*
X7731857Y-9647057D01*
X7731857Y-9661343D01*
X7717571Y-9689914D01*
X7703285Y-9704200D01*
X7674714Y-9718486D01*
X7617571Y-9718486D01*
X7589000Y-9732772D01*
X7574714Y-9747057D01*
X7560428Y-9775629D01*
X7560428Y-9832772D01*
X7574714Y-9861343D01*
X7589000Y-9875629D01*
X7617571Y-9889914D01*
X7674714Y-9889914D01*
X7703285Y-9875629D01*
X7717571Y-9861343D01*
X7731857Y-9832772D01*
X7731857Y-9775629D01*
X7717571Y-9747057D01*
X7703285Y-9732772D01*
X7674714Y-9718486D01*
X8089000Y-9889914D02*
X8089000Y-9589914D01*
X8217571Y-9889914D02*
X8217571Y-9732772D01*
X8203285Y-9704200D01*
X8174714Y-9689914D01*
X8131857Y-9689914D01*
X8103285Y-9704200D01*
X8089000Y-9718486D01*
X8403286Y-9889914D02*
X8374714Y-9875629D01*
X8360428Y-9861343D01*
X8346143Y-9832772D01*
X8346143Y-9747057D01*
X8360428Y-9718486D01*
X8374714Y-9704200D01*
X8403286Y-9689914D01*
X8446143Y-9689914D01*
X8474714Y-9704200D01*
X8489000Y-9718486D01*
X8503286Y-9747057D01*
X8503286Y-9832772D01*
X8489000Y-9861343D01*
X8474714Y-9875629D01*
X8446143Y-9889914D01*
X8403286Y-9889914D01*
X8674714Y-9889914D02*
X8646143Y-9875629D01*
X8631857Y-9847057D01*
X8631857Y-9589914D01*
X8903286Y-9875629D02*
X8874714Y-9889914D01*
X8817571Y-9889914D01*
X8789000Y-9875629D01*
X8774714Y-9847057D01*
X8774714Y-9732772D01*
X8789000Y-9704200D01*
X8817571Y-9689914D01*
X8874714Y-9689914D01*
X8903286Y-9704200D01*
X8917571Y-9732772D01*
X8917571Y-9761343D01*
X8774714Y-9789914D01*
X9031857Y-9875629D02*
X9060429Y-9889914D01*
X9117571Y-9889914D01*
X9146143Y-9875629D01*
X9160429Y-9847057D01*
X9160429Y-9832772D01*
X9146143Y-9804200D01*
X9117571Y-9789914D01*
X9074714Y-9789914D01*
X9046143Y-9775629D01*
X9031857Y-9747057D01*
X9031857Y-9732772D01*
X9046143Y-9704200D01*
X9074714Y-9689914D01*
X9117571Y-9689914D01*
X9146143Y-9704200D01*
X9260428Y-10004200D02*
X9274714Y-9989914D01*
X9303286Y-9947057D01*
X9317571Y-9918486D01*
X9331857Y-9875629D01*
X9346143Y-9804200D01*
X9346143Y-9747057D01*
X9331857Y-9675629D01*
X9317571Y-9632772D01*
X9303286Y-9604200D01*
X9274714Y-9561343D01*
X9260428Y-9547057D01*
X2749000Y-10110200D02*
X2749000Y-10190200D01*
X2709000Y-10150200D02*
X2789000Y-10150200D01*
X3117571Y-9985914D02*
X3146143Y-9985914D01*
X3174714Y-10000200D01*
X3189000Y-10014486D01*
X3203286Y-10043057D01*
X3217571Y-10100200D01*
X3217571Y-10171629D01*
X3203286Y-10228772D01*
X3189000Y-10257343D01*
X3174714Y-10271629D01*
X3146143Y-10285914D01*
X3117571Y-10285914D01*
X3089000Y-10271629D01*
X3074714Y-10257343D01*
X3060428Y-10228772D01*
X3046143Y-10171629D01*
X3046143Y-10100200D01*
X3060428Y-10043057D01*
X3074714Y-10014486D01*
X3089000Y-10000200D01*
X3117571Y-9985914D01*
X3346143Y-10257343D02*
X3360428Y-10271629D01*
X3346143Y-10285914D01*
X3331857Y-10271629D01*
X3346143Y-10257343D01*
X3346143Y-10285914D01*
X3531857Y-10114486D02*
X3503286Y-10100200D01*
X3489000Y-10085914D01*
X3474714Y-10057343D01*
X3474714Y-10043057D01*
X3489000Y-10014486D01*
X3503286Y-10000200D01*
X3531857Y-9985914D01*
X3589000Y-9985914D01*
X3617571Y-10000200D01*
X3631857Y-10014486D01*
X3646143Y-10043057D01*
X3646143Y-10057343D01*
X3631857Y-10085914D01*
X3617571Y-10100200D01*
X3589000Y-10114486D01*
X3531857Y-10114486D01*
X3503286Y-10128772D01*
X3489000Y-10143057D01*
X3474714Y-10171629D01*
X3474714Y-10228772D01*
X3489000Y-10257343D01*
X3503286Y-10271629D01*
X3531857Y-10285914D01*
X3589000Y-10285914D01*
X3617571Y-10271629D01*
X3631857Y-10257343D01*
X3646143Y-10228772D01*
X3646143Y-10171629D01*
X3631857Y-10143057D01*
X3617571Y-10128772D01*
X3589000Y-10114486D01*
X3831857Y-9985914D02*
X3860428Y-9985914D01*
X3889000Y-10000200D01*
X3903286Y-10014486D01*
X3917571Y-10043057D01*
X3931857Y-10100200D01*
X3931857Y-10171629D01*
X3917571Y-10228772D01*
X3903286Y-10257343D01*
X3889000Y-10271629D01*
X3860428Y-10285914D01*
X3831857Y-10285914D01*
X3803286Y-10271629D01*
X3789000Y-10257343D01*
X3774714Y-10228772D01*
X3760428Y-10171629D01*
X3760428Y-10100200D01*
X3774714Y-10043057D01*
X3789000Y-10014486D01*
X3803286Y-10000200D01*
X3831857Y-9985914D01*
X4060428Y-10285914D02*
X4060428Y-10085914D01*
X4060428Y-10114486D02*
X4074714Y-10100200D01*
X4103286Y-10085914D01*
X4146143Y-10085914D01*
X4174714Y-10100200D01*
X4189000Y-10128772D01*
X4189000Y-10285914D01*
X4189000Y-10128772D02*
X4203286Y-10100200D01*
X4231857Y-10085914D01*
X4274714Y-10085914D01*
X4303286Y-10100200D01*
X4317571Y-10128772D01*
X4317571Y-10285914D01*
X4460429Y-10285914D02*
X4460429Y-10085914D01*
X4460429Y-10114486D02*
X4474714Y-10100200D01*
X4503286Y-10085914D01*
X4546143Y-10085914D01*
X4574714Y-10100200D01*
X4589000Y-10128772D01*
X4589000Y-10285914D01*
X4589000Y-10128772D02*
X4603286Y-10100200D01*
X4631857Y-10085914D01*
X4674714Y-10085914D01*
X4703286Y-10100200D01*
X4717571Y-10128772D01*
X4717571Y-10285914D01*
X5303286Y-9971629D02*
X5046143Y-10357343D01*
X5689000Y-9985914D02*
X5717571Y-9985914D01*
X5746143Y-10000200D01*
X5760428Y-10014486D01*
X5774714Y-10043057D01*
X5789000Y-10100200D01*
X5789000Y-10171629D01*
X5774714Y-10228772D01*
X5760428Y-10257343D01*
X5746143Y-10271629D01*
X5717571Y-10285914D01*
X5689000Y-10285914D01*
X5660428Y-10271629D01*
X5646143Y-10257343D01*
X5631857Y-10228772D01*
X5617571Y-10171629D01*
X5617571Y-10100200D01*
X5631857Y-10043057D01*
X5646143Y-10014486D01*
X5660428Y-10000200D01*
X5689000Y-9985914D01*
X5917571Y-10257343D02*
X5931857Y-10271629D01*
X5917571Y-10285914D01*
X5903286Y-10271629D01*
X5917571Y-10257343D01*
X5917571Y-10285914D01*
X6117571Y-9985914D02*
X6146143Y-9985914D01*
X6174714Y-10000200D01*
X6189000Y-10014486D01*
X6203285Y-10043057D01*
X6217571Y-10100200D01*
X6217571Y-10171629D01*
X6203285Y-10228772D01*
X6189000Y-10257343D01*
X6174714Y-10271629D01*
X6146143Y-10285914D01*
X6117571Y-10285914D01*
X6089000Y-10271629D01*
X6074714Y-10257343D01*
X6060428Y-10228772D01*
X6046143Y-10171629D01*
X6046143Y-10100200D01*
X6060428Y-10043057D01*
X6074714Y-10014486D01*
X6089000Y-10000200D01*
X6117571Y-9985914D01*
X6317571Y-9985914D02*
X6503285Y-9985914D01*
X6403285Y-10100200D01*
X6446143Y-10100200D01*
X6474714Y-10114486D01*
X6489000Y-10128772D01*
X6503285Y-10157343D01*
X6503285Y-10228772D01*
X6489000Y-10257343D01*
X6474714Y-10271629D01*
X6446143Y-10285914D01*
X6360428Y-10285914D01*
X6331857Y-10271629D01*
X6317571Y-10257343D01*
X6789000Y-10285914D02*
X6617571Y-10285914D01*
X6703285Y-10285914D02*
X6703285Y-9985914D01*
X6674714Y-10028772D01*
X6646143Y-10057343D01*
X6617571Y-10071629D01*
X6903286Y-9985914D02*
X6903286Y-10043057D01*
X7017571Y-9985914D02*
X7017571Y-10043057D01*
X7460428Y-10400200D02*
X7446143Y-10385914D01*
X7417571Y-10343057D01*
X7403285Y-10314486D01*
X7389000Y-10271629D01*
X7374714Y-10200200D01*
X7374714Y-10143057D01*
X7389000Y-10071629D01*
X7403285Y-10028772D01*
X7417571Y-10000200D01*
X7446143Y-9957343D01*
X7460428Y-9943057D01*
X7731857Y-10285914D02*
X7560428Y-10285914D01*
X7646143Y-10285914D02*
X7646143Y-9985914D01*
X7617571Y-10028772D01*
X7589000Y-10057343D01*
X7560428Y-10071629D01*
X7989000Y-9985914D02*
X7931857Y-9985914D01*
X7903285Y-10000200D01*
X7889000Y-10014486D01*
X7860428Y-10057343D01*
X7846143Y-10114486D01*
X7846143Y-10228772D01*
X7860428Y-10257343D01*
X7874714Y-10271629D01*
X7903285Y-10285914D01*
X7960428Y-10285914D01*
X7989000Y-10271629D01*
X8003285Y-10257343D01*
X8017571Y-10228772D01*
X8017571Y-10157343D01*
X8003285Y-10128772D01*
X7989000Y-10114486D01*
X7960428Y-10100200D01*
X7903285Y-10100200D01*
X7874714Y-10114486D01*
X7860428Y-10128772D01*
X7846143Y-10157343D01*
X8374714Y-10285914D02*
X8374714Y-9985914D01*
X8503286Y-10285914D02*
X8503286Y-10128772D01*
X8489000Y-10100200D01*
X8460428Y-10085914D01*
X8417571Y-10085914D01*
X8389000Y-10100200D01*
X8374714Y-10114486D01*
X8689000Y-10285914D02*
X8660428Y-10271629D01*
X8646143Y-10257343D01*
X8631857Y-10228772D01*
X8631857Y-10143057D01*
X8646143Y-10114486D01*
X8660428Y-10100200D01*
X8689000Y-10085914D01*
X8731857Y-10085914D01*
X8760428Y-10100200D01*
X8774714Y-10114486D01*
X8789000Y-10143057D01*
X8789000Y-10228772D01*
X8774714Y-10257343D01*
X8760428Y-10271629D01*
X8731857Y-10285914D01*
X8689000Y-10285914D01*
X8960428Y-10285914D02*
X8931857Y-10271629D01*
X8917571Y-10243057D01*
X8917571Y-9985914D01*
X9189000Y-10271629D02*
X9160429Y-10285914D01*
X9103286Y-10285914D01*
X9074714Y-10271629D01*
X9060429Y-10243057D01*
X9060429Y-10128772D01*
X9074714Y-10100200D01*
X9103286Y-10085914D01*
X9160429Y-10085914D01*
X9189000Y-10100200D01*
X9203286Y-10128772D01*
X9203286Y-10157343D01*
X9060429Y-10185914D01*
X9317571Y-10271629D02*
X9346143Y-10285914D01*
X9403286Y-10285914D01*
X9431857Y-10271629D01*
X9446143Y-10243057D01*
X9446143Y-10228772D01*
X9431857Y-10200200D01*
X9403286Y-10185914D01*
X9360429Y-10185914D01*
X9331857Y-10171629D01*
X9317571Y-10143057D01*
X9317571Y-10128772D01*
X9331857Y-10100200D01*
X9360429Y-10085914D01*
X9403286Y-10085914D01*
X9431857Y-10100200D01*
X9546143Y-10400200D02*
X9560429Y-10385914D01*
X9589000Y-10343057D01*
X9603286Y-10314486D01*
X9617571Y-10271629D01*
X9631857Y-10200200D01*
X9631857Y-10143057D01*
X9617571Y-10071629D01*
X9603286Y-10028772D01*
X9589000Y-10000200D01*
X9560429Y-9957343D01*
X9546143Y-9943057D01*
X2775820Y-10578020D02*
X2775820Y-10514380D01*
X2712180Y-10514380D01*
X2712180Y-10578020D01*
X2775820Y-10578020D01*
X3117571Y-10381914D02*
X3146143Y-10381914D01*
X3174714Y-10396200D01*
X3189000Y-10410486D01*
X3203286Y-10439057D01*
X3217571Y-10496200D01*
X3217571Y-10567629D01*
X3203286Y-10624772D01*
X3189000Y-10653343D01*
X3174714Y-10667629D01*
X3146143Y-10681914D01*
X3117571Y-10681914D01*
X3089000Y-10667629D01*
X3074714Y-10653343D01*
X3060428Y-10624772D01*
X3046143Y-10567629D01*
X3046143Y-10496200D01*
X3060428Y-10439057D01*
X3074714Y-10410486D01*
X3089000Y-10396200D01*
X3117571Y-10381914D01*
X3346143Y-10653343D02*
X3360428Y-10667629D01*
X3346143Y-10681914D01*
X3331857Y-10667629D01*
X3346143Y-10653343D01*
X3346143Y-10681914D01*
X3503286Y-10681914D02*
X3560428Y-10681914D01*
X3589000Y-10667629D01*
X3603286Y-10653343D01*
X3631857Y-10610486D01*
X3646143Y-10553343D01*
X3646143Y-10439057D01*
X3631857Y-10410486D01*
X3617571Y-10396200D01*
X3589000Y-10381914D01*
X3531857Y-10381914D01*
X3503286Y-10396200D01*
X3489000Y-10410486D01*
X3474714Y-10439057D01*
X3474714Y-10510486D01*
X3489000Y-10539057D01*
X3503286Y-10553343D01*
X3531857Y-10567629D01*
X3589000Y-10567629D01*
X3617571Y-10553343D01*
X3631857Y-10539057D01*
X3646143Y-10510486D01*
X3831857Y-10381914D02*
X3860428Y-10381914D01*
X3889000Y-10396200D01*
X3903286Y-10410486D01*
X3917571Y-10439057D01*
X3931857Y-10496200D01*
X3931857Y-10567629D01*
X3917571Y-10624772D01*
X3903286Y-10653343D01*
X3889000Y-10667629D01*
X3860428Y-10681914D01*
X3831857Y-10681914D01*
X3803286Y-10667629D01*
X3789000Y-10653343D01*
X3774714Y-10624772D01*
X3760428Y-10567629D01*
X3760428Y-10496200D01*
X3774714Y-10439057D01*
X3789000Y-10410486D01*
X3803286Y-10396200D01*
X3831857Y-10381914D01*
X4060428Y-10681914D02*
X4060428Y-10481914D01*
X4060428Y-10510486D02*
X4074714Y-10496200D01*
X4103286Y-10481914D01*
X4146143Y-10481914D01*
X4174714Y-10496200D01*
X4189000Y-10524772D01*
X4189000Y-10681914D01*
X4189000Y-10524772D02*
X4203286Y-10496200D01*
X4231857Y-10481914D01*
X4274714Y-10481914D01*
X4303286Y-10496200D01*
X4317571Y-10524772D01*
X4317571Y-10681914D01*
X4460429Y-10681914D02*
X4460429Y-10481914D01*
X4460429Y-10510486D02*
X4474714Y-10496200D01*
X4503286Y-10481914D01*
X4546143Y-10481914D01*
X4574714Y-10496200D01*
X4589000Y-10524772D01*
X4589000Y-10681914D01*
X4589000Y-10524772D02*
X4603286Y-10496200D01*
X4631857Y-10481914D01*
X4674714Y-10481914D01*
X4703286Y-10496200D01*
X4717571Y-10524772D01*
X4717571Y-10681914D01*
X5303286Y-10367629D02*
X5046143Y-10753343D01*
X5689000Y-10381914D02*
X5717571Y-10381914D01*
X5746143Y-10396200D01*
X5760428Y-10410486D01*
X5774714Y-10439057D01*
X5789000Y-10496200D01*
X5789000Y-10567629D01*
X5774714Y-10624772D01*
X5760428Y-10653343D01*
X5746143Y-10667629D01*
X5717571Y-10681914D01*
X5689000Y-10681914D01*
X5660428Y-10667629D01*
X5646143Y-10653343D01*
X5631857Y-10624772D01*
X5617571Y-10567629D01*
X5617571Y-10496200D01*
X5631857Y-10439057D01*
X5646143Y-10410486D01*
X5660428Y-10396200D01*
X5689000Y-10381914D01*
X5917571Y-10653343D02*
X5931857Y-10667629D01*
X5917571Y-10681914D01*
X5903286Y-10667629D01*
X5917571Y-10653343D01*
X5917571Y-10681914D01*
X6117571Y-10381914D02*
X6146143Y-10381914D01*
X6174714Y-10396200D01*
X6189000Y-10410486D01*
X6203285Y-10439057D01*
X6217571Y-10496200D01*
X6217571Y-10567629D01*
X6203285Y-10624772D01*
X6189000Y-10653343D01*
X6174714Y-10667629D01*
X6146143Y-10681914D01*
X6117571Y-10681914D01*
X6089000Y-10667629D01*
X6074714Y-10653343D01*
X6060428Y-10624772D01*
X6046143Y-10567629D01*
X6046143Y-10496200D01*
X6060428Y-10439057D01*
X6074714Y-10410486D01*
X6089000Y-10396200D01*
X6117571Y-10381914D01*
X6317571Y-10381914D02*
X6503285Y-10381914D01*
X6403285Y-10496200D01*
X6446143Y-10496200D01*
X6474714Y-10510486D01*
X6489000Y-10524772D01*
X6503285Y-10553343D01*
X6503285Y-10624772D01*
X6489000Y-10653343D01*
X6474714Y-10667629D01*
X6446143Y-10681914D01*
X6360428Y-10681914D01*
X6331857Y-10667629D01*
X6317571Y-10653343D01*
X6774714Y-10381914D02*
X6631857Y-10381914D01*
X6617571Y-10524772D01*
X6631857Y-10510486D01*
X6660428Y-10496200D01*
X6731857Y-10496200D01*
X6760428Y-10510486D01*
X6774714Y-10524772D01*
X6789000Y-10553343D01*
X6789000Y-10624772D01*
X6774714Y-10653343D01*
X6760428Y-10667629D01*
X6731857Y-10681914D01*
X6660428Y-10681914D01*
X6631857Y-10667629D01*
X6617571Y-10653343D01*
X6903286Y-10381914D02*
X6903286Y-10439057D01*
X7017571Y-10381914D02*
X7017571Y-10439057D01*
X7460428Y-10796200D02*
X7446143Y-10781914D01*
X7417571Y-10739057D01*
X7403285Y-10710486D01*
X7389000Y-10667629D01*
X7374714Y-10596200D01*
X7374714Y-10539057D01*
X7389000Y-10467629D01*
X7403285Y-10424772D01*
X7417571Y-10396200D01*
X7446143Y-10353343D01*
X7460428Y-10339057D01*
X7617571Y-10510486D02*
X7589000Y-10496200D01*
X7574714Y-10481914D01*
X7560428Y-10453343D01*
X7560428Y-10439057D01*
X7574714Y-10410486D01*
X7589000Y-10396200D01*
X7617571Y-10381914D01*
X7674714Y-10381914D01*
X7703285Y-10396200D01*
X7717571Y-10410486D01*
X7731857Y-10439057D01*
X7731857Y-10453343D01*
X7717571Y-10481914D01*
X7703285Y-10496200D01*
X7674714Y-10510486D01*
X7617571Y-10510486D01*
X7589000Y-10524772D01*
X7574714Y-10539057D01*
X7560428Y-10567629D01*
X7560428Y-10624772D01*
X7574714Y-10653343D01*
X7589000Y-10667629D01*
X7617571Y-10681914D01*
X7674714Y-10681914D01*
X7703285Y-10667629D01*
X7717571Y-10653343D01*
X7731857Y-10624772D01*
X7731857Y-10567629D01*
X7717571Y-10539057D01*
X7703285Y-10524772D01*
X7674714Y-10510486D01*
X8089000Y-10681914D02*
X8089000Y-10381914D01*
X8217571Y-10681914D02*
X8217571Y-10524772D01*
X8203285Y-10496200D01*
X8174714Y-10481914D01*
X8131857Y-10481914D01*
X8103285Y-10496200D01*
X8089000Y-10510486D01*
X8403286Y-10681914D02*
X8374714Y-10667629D01*
X8360428Y-10653343D01*
X8346143Y-10624772D01*
X8346143Y-10539057D01*
X8360428Y-10510486D01*
X8374714Y-10496200D01*
X8403286Y-10481914D01*
X8446143Y-10481914D01*
X8474714Y-10496200D01*
X8489000Y-10510486D01*
X8503286Y-10539057D01*
X8503286Y-10624772D01*
X8489000Y-10653343D01*
X8474714Y-10667629D01*
X8446143Y-10681914D01*
X8403286Y-10681914D01*
X8674714Y-10681914D02*
X8646143Y-10667629D01*
X8631857Y-10639057D01*
X8631857Y-10381914D01*
X8903286Y-10667629D02*
X8874714Y-10681914D01*
X8817571Y-10681914D01*
X8789000Y-10667629D01*
X8774714Y-10639057D01*
X8774714Y-10524772D01*
X8789000Y-10496200D01*
X8817571Y-10481914D01*
X8874714Y-10481914D01*
X8903286Y-10496200D01*
X8917571Y-10524772D01*
X8917571Y-10553343D01*
X8774714Y-10581914D01*
X9031857Y-10667629D02*
X9060429Y-10681914D01*
X9117571Y-10681914D01*
X9146143Y-10667629D01*
X9160429Y-10639057D01*
X9160429Y-10624772D01*
X9146143Y-10596200D01*
X9117571Y-10581914D01*
X9074714Y-10581914D01*
X9046143Y-10567629D01*
X9031857Y-10539057D01*
X9031857Y-10524772D01*
X9046143Y-10496200D01*
X9074714Y-10481914D01*
X9117571Y-10481914D01*
X9146143Y-10496200D01*
X9260428Y-10796200D02*
X9274714Y-10781914D01*
X9303286Y-10739057D01*
X9317571Y-10710486D01*
X9331857Y-10667629D01*
X9346143Y-10596200D01*
X9346143Y-10539057D01*
X9331857Y-10467629D01*
X9317571Y-10424772D01*
X9303286Y-10396200D01*
X9274714Y-10353343D01*
X9260428Y-10339057D01*
X2738962Y-10992238D02*
X2789000Y-10942200D01*
X2738962Y-10892162D01*
X2688924Y-10942200D01*
X2738962Y-10992238D01*
X3217571Y-11077914D02*
X3046143Y-11077914D01*
X3131857Y-11077914D02*
X3131857Y-10777914D01*
X3103286Y-10820772D01*
X3074714Y-10849343D01*
X3046143Y-10863629D01*
X3346143Y-11049343D02*
X3360428Y-11063629D01*
X3346143Y-11077914D01*
X3331857Y-11063629D01*
X3346143Y-11049343D01*
X3346143Y-11077914D01*
X3546143Y-10777914D02*
X3574714Y-10777914D01*
X3603286Y-10792200D01*
X3617571Y-10806486D01*
X3631857Y-10835057D01*
X3646143Y-10892200D01*
X3646143Y-10963629D01*
X3631857Y-11020772D01*
X3617571Y-11049343D01*
X3603286Y-11063629D01*
X3574714Y-11077914D01*
X3546143Y-11077914D01*
X3517571Y-11063629D01*
X3503286Y-11049343D01*
X3489000Y-11020772D01*
X3474714Y-10963629D01*
X3474714Y-10892200D01*
X3489000Y-10835057D01*
X3503286Y-10806486D01*
X3517571Y-10792200D01*
X3546143Y-10777914D01*
X3831857Y-10777914D02*
X3860428Y-10777914D01*
X3889000Y-10792200D01*
X3903286Y-10806486D01*
X3917571Y-10835057D01*
X3931857Y-10892200D01*
X3931857Y-10963629D01*
X3917571Y-11020772D01*
X3903286Y-11049343D01*
X3889000Y-11063629D01*
X3860428Y-11077914D01*
X3831857Y-11077914D01*
X3803286Y-11063629D01*
X3789000Y-11049343D01*
X3774714Y-11020772D01*
X3760428Y-10963629D01*
X3760428Y-10892200D01*
X3774714Y-10835057D01*
X3789000Y-10806486D01*
X3803286Y-10792200D01*
X3831857Y-10777914D01*
X4060428Y-11077914D02*
X4060428Y-10877914D01*
X4060428Y-10906486D02*
X4074714Y-10892200D01*
X4103286Y-10877914D01*
X4146143Y-10877914D01*
X4174714Y-10892200D01*
X4189000Y-10920772D01*
X4189000Y-11077914D01*
X4189000Y-10920772D02*
X4203286Y-10892200D01*
X4231857Y-10877914D01*
X4274714Y-10877914D01*
X4303286Y-10892200D01*
X4317571Y-10920772D01*
X4317571Y-11077914D01*
X4460429Y-11077914D02*
X4460429Y-10877914D01*
X4460429Y-10906486D02*
X4474714Y-10892200D01*
X4503286Y-10877914D01*
X4546143Y-10877914D01*
X4574714Y-10892200D01*
X4589000Y-10920772D01*
X4589000Y-11077914D01*
X4589000Y-10920772D02*
X4603286Y-10892200D01*
X4631857Y-10877914D01*
X4674714Y-10877914D01*
X4703286Y-10892200D01*
X4717571Y-10920772D01*
X4717571Y-11077914D01*
X5303286Y-10763629D02*
X5046143Y-11149343D01*
X5689000Y-10777914D02*
X5717571Y-10777914D01*
X5746143Y-10792200D01*
X5760428Y-10806486D01*
X5774714Y-10835057D01*
X5789000Y-10892200D01*
X5789000Y-10963629D01*
X5774714Y-11020772D01*
X5760428Y-11049343D01*
X5746143Y-11063629D01*
X5717571Y-11077914D01*
X5689000Y-11077914D01*
X5660428Y-11063629D01*
X5646143Y-11049343D01*
X5631857Y-11020772D01*
X5617571Y-10963629D01*
X5617571Y-10892200D01*
X5631857Y-10835057D01*
X5646143Y-10806486D01*
X5660428Y-10792200D01*
X5689000Y-10777914D01*
X5917571Y-11049343D02*
X5931857Y-11063629D01*
X5917571Y-11077914D01*
X5903286Y-11063629D01*
X5917571Y-11049343D01*
X5917571Y-11077914D01*
X6117571Y-10777914D02*
X6146143Y-10777914D01*
X6174714Y-10792200D01*
X6189000Y-10806486D01*
X6203285Y-10835057D01*
X6217571Y-10892200D01*
X6217571Y-10963629D01*
X6203285Y-11020772D01*
X6189000Y-11049343D01*
X6174714Y-11063629D01*
X6146143Y-11077914D01*
X6117571Y-11077914D01*
X6089000Y-11063629D01*
X6074714Y-11049343D01*
X6060428Y-11020772D01*
X6046143Y-10963629D01*
X6046143Y-10892200D01*
X6060428Y-10835057D01*
X6074714Y-10806486D01*
X6089000Y-10792200D01*
X6117571Y-10777914D01*
X6317571Y-10777914D02*
X6503285Y-10777914D01*
X6403285Y-10892200D01*
X6446143Y-10892200D01*
X6474714Y-10906486D01*
X6489000Y-10920772D01*
X6503285Y-10949343D01*
X6503285Y-11020772D01*
X6489000Y-11049343D01*
X6474714Y-11063629D01*
X6446143Y-11077914D01*
X6360428Y-11077914D01*
X6331857Y-11063629D01*
X6317571Y-11049343D01*
X6646143Y-11077914D02*
X6703285Y-11077914D01*
X6731857Y-11063629D01*
X6746143Y-11049343D01*
X6774714Y-11006486D01*
X6789000Y-10949343D01*
X6789000Y-10835057D01*
X6774714Y-10806486D01*
X6760428Y-10792200D01*
X6731857Y-10777914D01*
X6674714Y-10777914D01*
X6646143Y-10792200D01*
X6631857Y-10806486D01*
X6617571Y-10835057D01*
X6617571Y-10906486D01*
X6631857Y-10935057D01*
X6646143Y-10949343D01*
X6674714Y-10963629D01*
X6731857Y-10963629D01*
X6760428Y-10949343D01*
X6774714Y-10935057D01*
X6789000Y-10906486D01*
X6903286Y-10777914D02*
X6903286Y-10835057D01*
X7017571Y-10777914D02*
X7017571Y-10835057D01*
X7460428Y-11192200D02*
X7446143Y-11177914D01*
X7417571Y-11135057D01*
X7403285Y-11106486D01*
X7389000Y-11063629D01*
X7374714Y-10992200D01*
X7374714Y-10935057D01*
X7389000Y-10863629D01*
X7403285Y-10820772D01*
X7417571Y-10792200D01*
X7446143Y-10749343D01*
X7460428Y-10735057D01*
X7560428Y-10806486D02*
X7574714Y-10792200D01*
X7603285Y-10777914D01*
X7674714Y-10777914D01*
X7703285Y-10792200D01*
X7717571Y-10806486D01*
X7731857Y-10835057D01*
X7731857Y-10863629D01*
X7717571Y-10906486D01*
X7546143Y-11077914D01*
X7731857Y-11077914D01*
X7903285Y-10906486D02*
X7874714Y-10892200D01*
X7860428Y-10877914D01*
X7846143Y-10849343D01*
X7846143Y-10835057D01*
X7860428Y-10806486D01*
X7874714Y-10792200D01*
X7903285Y-10777914D01*
X7960428Y-10777914D01*
X7989000Y-10792200D01*
X8003285Y-10806486D01*
X8017571Y-10835057D01*
X8017571Y-10849343D01*
X8003285Y-10877914D01*
X7989000Y-10892200D01*
X7960428Y-10906486D01*
X7903285Y-10906486D01*
X7874714Y-10920772D01*
X7860428Y-10935057D01*
X7846143Y-10963629D01*
X7846143Y-11020772D01*
X7860428Y-11049343D01*
X7874714Y-11063629D01*
X7903285Y-11077914D01*
X7960428Y-11077914D01*
X7989000Y-11063629D01*
X8003285Y-11049343D01*
X8017571Y-11020772D01*
X8017571Y-10963629D01*
X8003285Y-10935057D01*
X7989000Y-10920772D01*
X7960428Y-10906486D01*
X8374714Y-11077914D02*
X8374714Y-10777914D01*
X8503286Y-11077914D02*
X8503286Y-10920772D01*
X8489000Y-10892200D01*
X8460428Y-10877914D01*
X8417571Y-10877914D01*
X8389000Y-10892200D01*
X8374714Y-10906486D01*
X8689000Y-11077914D02*
X8660428Y-11063629D01*
X8646143Y-11049343D01*
X8631857Y-11020772D01*
X8631857Y-10935057D01*
X8646143Y-10906486D01*
X8660428Y-10892200D01*
X8689000Y-10877914D01*
X8731857Y-10877914D01*
X8760428Y-10892200D01*
X8774714Y-10906486D01*
X8789000Y-10935057D01*
X8789000Y-11020772D01*
X8774714Y-11049343D01*
X8760428Y-11063629D01*
X8731857Y-11077914D01*
X8689000Y-11077914D01*
X8960428Y-11077914D02*
X8931857Y-11063629D01*
X8917571Y-11035057D01*
X8917571Y-10777914D01*
X9189000Y-11063629D02*
X9160429Y-11077914D01*
X9103286Y-11077914D01*
X9074714Y-11063629D01*
X9060429Y-11035057D01*
X9060429Y-10920772D01*
X9074714Y-10892200D01*
X9103286Y-10877914D01*
X9160429Y-10877914D01*
X9189000Y-10892200D01*
X9203286Y-10920772D01*
X9203286Y-10949343D01*
X9060429Y-10977914D01*
X9317571Y-11063629D02*
X9346143Y-11077914D01*
X9403286Y-11077914D01*
X9431857Y-11063629D01*
X9446143Y-11035057D01*
X9446143Y-11020772D01*
X9431857Y-10992200D01*
X9403286Y-10977914D01*
X9360429Y-10977914D01*
X9331857Y-10963629D01*
X9317571Y-10935057D01*
X9317571Y-10920772D01*
X9331857Y-10892200D01*
X9360429Y-10877914D01*
X9403286Y-10877914D01*
X9431857Y-10892200D01*
X9546143Y-11192200D02*
X9560429Y-11177914D01*
X9589000Y-11135057D01*
X9603286Y-11106486D01*
X9617571Y-11063629D01*
X9631857Y-10992200D01*
X9631857Y-10935057D01*
X9617571Y-10863629D01*
X9603286Y-10820772D01*
X9589000Y-10792200D01*
X9560429Y-10749343D01*
X9546143Y-10735057D01*
X2687400Y-11287400D02*
X2789000Y-11389000D01*
X2789000Y-11287400D02*
X2687400Y-11389000D01*
X2789000Y-11338200D02*
G75*
G03X2789000Y-11338200I-50800J0D01*
G01*
X3217571Y-11473914D02*
X3046143Y-11473914D01*
X3131857Y-11473914D02*
X3131857Y-11173914D01*
X3103286Y-11216771D01*
X3074714Y-11245343D01*
X3046143Y-11259629D01*
X3346143Y-11445343D02*
X3360428Y-11459629D01*
X3346143Y-11473914D01*
X3331857Y-11459629D01*
X3346143Y-11445343D01*
X3346143Y-11473914D01*
X3546143Y-11173914D02*
X3574714Y-11173914D01*
X3603286Y-11188200D01*
X3617571Y-11202486D01*
X3631857Y-11231057D01*
X3646143Y-11288200D01*
X3646143Y-11359629D01*
X3631857Y-11416771D01*
X3617571Y-11445343D01*
X3603286Y-11459629D01*
X3574714Y-11473914D01*
X3546143Y-11473914D01*
X3517571Y-11459629D01*
X3503286Y-11445343D01*
X3489000Y-11416771D01*
X3474714Y-11359629D01*
X3474714Y-11288200D01*
X3489000Y-11231057D01*
X3503286Y-11202486D01*
X3517571Y-11188200D01*
X3546143Y-11173914D01*
X3760428Y-11202486D02*
X3774714Y-11188200D01*
X3803286Y-11173914D01*
X3874714Y-11173914D01*
X3903286Y-11188200D01*
X3917571Y-11202486D01*
X3931857Y-11231057D01*
X3931857Y-11259629D01*
X3917571Y-11302486D01*
X3746143Y-11473914D01*
X3931857Y-11473914D01*
X4060428Y-11473914D02*
X4060428Y-11273914D01*
X4060428Y-11302486D02*
X4074714Y-11288200D01*
X4103286Y-11273914D01*
X4146143Y-11273914D01*
X4174714Y-11288200D01*
X4189000Y-11316771D01*
X4189000Y-11473914D01*
X4189000Y-11316771D02*
X4203286Y-11288200D01*
X4231857Y-11273914D01*
X4274714Y-11273914D01*
X4303286Y-11288200D01*
X4317571Y-11316771D01*
X4317571Y-11473914D01*
X4460429Y-11473914D02*
X4460429Y-11273914D01*
X4460429Y-11302486D02*
X4474714Y-11288200D01*
X4503286Y-11273914D01*
X4546143Y-11273914D01*
X4574714Y-11288200D01*
X4589000Y-11316771D01*
X4589000Y-11473914D01*
X4589000Y-11316771D02*
X4603286Y-11288200D01*
X4631857Y-11273914D01*
X4674714Y-11273914D01*
X4703286Y-11288200D01*
X4717571Y-11316771D01*
X4717571Y-11473914D01*
X5303286Y-11159629D02*
X5046143Y-11545343D01*
X5689000Y-11173914D02*
X5717571Y-11173914D01*
X5746143Y-11188200D01*
X5760428Y-11202486D01*
X5774714Y-11231057D01*
X5789000Y-11288200D01*
X5789000Y-11359629D01*
X5774714Y-11416771D01*
X5760428Y-11445343D01*
X5746143Y-11459629D01*
X5717571Y-11473914D01*
X5689000Y-11473914D01*
X5660428Y-11459629D01*
X5646143Y-11445343D01*
X5631857Y-11416771D01*
X5617571Y-11359629D01*
X5617571Y-11288200D01*
X5631857Y-11231057D01*
X5646143Y-11202486D01*
X5660428Y-11188200D01*
X5689000Y-11173914D01*
X5917571Y-11445343D02*
X5931857Y-11459629D01*
X5917571Y-11473914D01*
X5903286Y-11459629D01*
X5917571Y-11445343D01*
X5917571Y-11473914D01*
X6117571Y-11173914D02*
X6146143Y-11173914D01*
X6174714Y-11188200D01*
X6189000Y-11202486D01*
X6203285Y-11231057D01*
X6217571Y-11288200D01*
X6217571Y-11359629D01*
X6203285Y-11416771D01*
X6189000Y-11445343D01*
X6174714Y-11459629D01*
X6146143Y-11473914D01*
X6117571Y-11473914D01*
X6089000Y-11459629D01*
X6074714Y-11445343D01*
X6060428Y-11416771D01*
X6046143Y-11359629D01*
X6046143Y-11288200D01*
X6060428Y-11231057D01*
X6074714Y-11202486D01*
X6089000Y-11188200D01*
X6117571Y-11173914D01*
X6474714Y-11273914D02*
X6474714Y-11473914D01*
X6403285Y-11159629D02*
X6331857Y-11373914D01*
X6517571Y-11373914D01*
X6689000Y-11173914D02*
X6717571Y-11173914D01*
X6746143Y-11188200D01*
X6760428Y-11202486D01*
X6774714Y-11231057D01*
X6789000Y-11288200D01*
X6789000Y-11359629D01*
X6774714Y-11416771D01*
X6760428Y-11445343D01*
X6746143Y-11459629D01*
X6717571Y-11473914D01*
X6689000Y-11473914D01*
X6660428Y-11459629D01*
X6646143Y-11445343D01*
X6631857Y-11416771D01*
X6617571Y-11359629D01*
X6617571Y-11288200D01*
X6631857Y-11231057D01*
X6646143Y-11202486D01*
X6660428Y-11188200D01*
X6689000Y-11173914D01*
X6903286Y-11173914D02*
X6903286Y-11231057D01*
X7017571Y-11173914D02*
X7017571Y-11231057D01*
X7460428Y-11588200D02*
X7446143Y-11573914D01*
X7417571Y-11531057D01*
X7403285Y-11502486D01*
X7389000Y-11459629D01*
X7374714Y-11388200D01*
X7374714Y-11331057D01*
X7389000Y-11259629D01*
X7403285Y-11216771D01*
X7417571Y-11188200D01*
X7446143Y-11145343D01*
X7460428Y-11131057D01*
X7703285Y-11273914D02*
X7703285Y-11473914D01*
X7631857Y-11159629D02*
X7560428Y-11373914D01*
X7746143Y-11373914D01*
X7874714Y-11473914D02*
X7931857Y-11473914D01*
X7960428Y-11459629D01*
X7974714Y-11445343D01*
X8003285Y-11402486D01*
X8017571Y-11345343D01*
X8017571Y-11231057D01*
X8003285Y-11202486D01*
X7989000Y-11188200D01*
X7960428Y-11173914D01*
X7903285Y-11173914D01*
X7874714Y-11188200D01*
X7860428Y-11202486D01*
X7846143Y-11231057D01*
X7846143Y-11302486D01*
X7860428Y-11331057D01*
X7874714Y-11345343D01*
X7903285Y-11359629D01*
X7960428Y-11359629D01*
X7989000Y-11345343D01*
X8003285Y-11331057D01*
X8017571Y-11302486D01*
X8374714Y-11473914D02*
X8374714Y-11173914D01*
X8503286Y-11473914D02*
X8503286Y-11316771D01*
X8489000Y-11288200D01*
X8460428Y-11273914D01*
X8417571Y-11273914D01*
X8389000Y-11288200D01*
X8374714Y-11302486D01*
X8689000Y-11473914D02*
X8660428Y-11459629D01*
X8646143Y-11445343D01*
X8631857Y-11416771D01*
X8631857Y-11331057D01*
X8646143Y-11302486D01*
X8660428Y-11288200D01*
X8689000Y-11273914D01*
X8731857Y-11273914D01*
X8760428Y-11288200D01*
X8774714Y-11302486D01*
X8789000Y-11331057D01*
X8789000Y-11416771D01*
X8774714Y-11445343D01*
X8760428Y-11459629D01*
X8731857Y-11473914D01*
X8689000Y-11473914D01*
X8960428Y-11473914D02*
X8931857Y-11459629D01*
X8917571Y-11431057D01*
X8917571Y-11173914D01*
X9189000Y-11459629D02*
X9160429Y-11473914D01*
X9103286Y-11473914D01*
X9074714Y-11459629D01*
X9060429Y-11431057D01*
X9060429Y-11316771D01*
X9074714Y-11288200D01*
X9103286Y-11273914D01*
X9160429Y-11273914D01*
X9189000Y-11288200D01*
X9203286Y-11316771D01*
X9203286Y-11345343D01*
X9060429Y-11373914D01*
X9317571Y-11459629D02*
X9346143Y-11473914D01*
X9403286Y-11473914D01*
X9431857Y-11459629D01*
X9446143Y-11431057D01*
X9446143Y-11416771D01*
X9431857Y-11388200D01*
X9403286Y-11373914D01*
X9360429Y-11373914D01*
X9331857Y-11359629D01*
X9317571Y-11331057D01*
X9317571Y-11316771D01*
X9331857Y-11288200D01*
X9360429Y-11273914D01*
X9403286Y-11273914D01*
X9431857Y-11288200D01*
X9546143Y-11588200D02*
X9560429Y-11573914D01*
X9589000Y-11531057D01*
X9603286Y-11502486D01*
X9617571Y-11459629D01*
X9631857Y-11388200D01*
X9631857Y-11331057D01*
X9617571Y-11259629D01*
X9603286Y-11216771D01*
X9589000Y-11188200D01*
X9560429Y-11145343D01*
X9546143Y-11131057D01*
X2679000Y-11679200D02*
X2789000Y-11789200D01*
X2789000Y-11679200D02*
X2679000Y-11789200D01*
X2734000Y-11679200D02*
X2734000Y-11789200D01*
X2679000Y-11734200D02*
X2789000Y-11734200D01*
X3217571Y-11869914D02*
X3046143Y-11869914D01*
X3131857Y-11869914D02*
X3131857Y-11569914D01*
X3103286Y-11612771D01*
X3074714Y-11641343D01*
X3046143Y-11655629D01*
X3346143Y-11841343D02*
X3360428Y-11855629D01*
X3346143Y-11869914D01*
X3331857Y-11855629D01*
X3346143Y-11841343D01*
X3346143Y-11869914D01*
X3646143Y-11869914D02*
X3474714Y-11869914D01*
X3560428Y-11869914D02*
X3560428Y-11569914D01*
X3531857Y-11612771D01*
X3503286Y-11641343D01*
X3474714Y-11655629D01*
X3831857Y-11569914D02*
X3860428Y-11569914D01*
X3889000Y-11584200D01*
X3903286Y-11598486D01*
X3917571Y-11627057D01*
X3931857Y-11684200D01*
X3931857Y-11755629D01*
X3917571Y-11812771D01*
X3903286Y-11841343D01*
X3889000Y-11855629D01*
X3860428Y-11869914D01*
X3831857Y-11869914D01*
X3803286Y-11855629D01*
X3789000Y-11841343D01*
X3774714Y-11812771D01*
X3760428Y-11755629D01*
X3760428Y-11684200D01*
X3774714Y-11627057D01*
X3789000Y-11598486D01*
X3803286Y-11584200D01*
X3831857Y-11569914D01*
X4060428Y-11869914D02*
X4060428Y-11669914D01*
X4060428Y-11698486D02*
X4074714Y-11684200D01*
X4103286Y-11669914D01*
X4146143Y-11669914D01*
X4174714Y-11684200D01*
X4189000Y-11712771D01*
X4189000Y-11869914D01*
X4189000Y-11712771D02*
X4203286Y-11684200D01*
X4231857Y-11669914D01*
X4274714Y-11669914D01*
X4303286Y-11684200D01*
X4317571Y-11712771D01*
X4317571Y-11869914D01*
X4460429Y-11869914D02*
X4460429Y-11669914D01*
X4460429Y-11698486D02*
X4474714Y-11684200D01*
X4503286Y-11669914D01*
X4546143Y-11669914D01*
X4574714Y-11684200D01*
X4589000Y-11712771D01*
X4589000Y-11869914D01*
X4589000Y-11712771D02*
X4603286Y-11684200D01*
X4631857Y-11669914D01*
X4674714Y-11669914D01*
X4703286Y-11684200D01*
X4717571Y-11712771D01*
X4717571Y-11869914D01*
X5303286Y-11555629D02*
X5046143Y-11941343D01*
X5689000Y-11569914D02*
X5717571Y-11569914D01*
X5746143Y-11584200D01*
X5760428Y-11598486D01*
X5774714Y-11627057D01*
X5789000Y-11684200D01*
X5789000Y-11755629D01*
X5774714Y-11812771D01*
X5760428Y-11841343D01*
X5746143Y-11855629D01*
X5717571Y-11869914D01*
X5689000Y-11869914D01*
X5660428Y-11855629D01*
X5646143Y-11841343D01*
X5631857Y-11812771D01*
X5617571Y-11755629D01*
X5617571Y-11684200D01*
X5631857Y-11627057D01*
X5646143Y-11598486D01*
X5660428Y-11584200D01*
X5689000Y-11569914D01*
X5917571Y-11841343D02*
X5931857Y-11855629D01*
X5917571Y-11869914D01*
X5903286Y-11855629D01*
X5917571Y-11841343D01*
X5917571Y-11869914D01*
X6117571Y-11569914D02*
X6146143Y-11569914D01*
X6174714Y-11584200D01*
X6189000Y-11598486D01*
X6203285Y-11627057D01*
X6217571Y-11684200D01*
X6217571Y-11755629D01*
X6203285Y-11812771D01*
X6189000Y-11841343D01*
X6174714Y-11855629D01*
X6146143Y-11869914D01*
X6117571Y-11869914D01*
X6089000Y-11855629D01*
X6074714Y-11841343D01*
X6060428Y-11812771D01*
X6046143Y-11755629D01*
X6046143Y-11684200D01*
X6060428Y-11627057D01*
X6074714Y-11598486D01*
X6089000Y-11584200D01*
X6117571Y-11569914D01*
X6474714Y-11669914D02*
X6474714Y-11869914D01*
X6403285Y-11555629D02*
X6331857Y-11769914D01*
X6517571Y-11769914D01*
X6603285Y-11569914D02*
X6789000Y-11569914D01*
X6689000Y-11684200D01*
X6731857Y-11684200D01*
X6760428Y-11698486D01*
X6774714Y-11712771D01*
X6789000Y-11741343D01*
X6789000Y-11812771D01*
X6774714Y-11841343D01*
X6760428Y-11855629D01*
X6731857Y-11869914D01*
X6646143Y-11869914D01*
X6617571Y-11855629D01*
X6603285Y-11841343D01*
X6903286Y-11569914D02*
X6903286Y-11627057D01*
X7017571Y-11569914D02*
X7017571Y-11627057D01*
X7460428Y-11984200D02*
X7446143Y-11969914D01*
X7417571Y-11927057D01*
X7403285Y-11898486D01*
X7389000Y-11855629D01*
X7374714Y-11784200D01*
X7374714Y-11727057D01*
X7389000Y-11655629D01*
X7403285Y-11612771D01*
X7417571Y-11584200D01*
X7446143Y-11541343D01*
X7460428Y-11527057D01*
X7617571Y-11698486D02*
X7589000Y-11684200D01*
X7574714Y-11669914D01*
X7560428Y-11641343D01*
X7560428Y-11627057D01*
X7574714Y-11598486D01*
X7589000Y-11584200D01*
X7617571Y-11569914D01*
X7674714Y-11569914D01*
X7703285Y-11584200D01*
X7717571Y-11598486D01*
X7731857Y-11627057D01*
X7731857Y-11641343D01*
X7717571Y-11669914D01*
X7703285Y-11684200D01*
X7674714Y-11698486D01*
X7617571Y-11698486D01*
X7589000Y-11712771D01*
X7574714Y-11727057D01*
X7560428Y-11755629D01*
X7560428Y-11812771D01*
X7574714Y-11841343D01*
X7589000Y-11855629D01*
X7617571Y-11869914D01*
X7674714Y-11869914D01*
X7703285Y-11855629D01*
X7717571Y-11841343D01*
X7731857Y-11812771D01*
X7731857Y-11755629D01*
X7717571Y-11727057D01*
X7703285Y-11712771D01*
X7674714Y-11698486D01*
X8089000Y-11869914D02*
X8089000Y-11569914D01*
X8217571Y-11869914D02*
X8217571Y-11712771D01*
X8203285Y-11684200D01*
X8174714Y-11669914D01*
X8131857Y-11669914D01*
X8103285Y-11684200D01*
X8089000Y-11698486D01*
X8403286Y-11869914D02*
X8374714Y-11855629D01*
X8360428Y-11841343D01*
X8346143Y-11812771D01*
X8346143Y-11727057D01*
X8360428Y-11698486D01*
X8374714Y-11684200D01*
X8403286Y-11669914D01*
X8446143Y-11669914D01*
X8474714Y-11684200D01*
X8489000Y-11698486D01*
X8503286Y-11727057D01*
X8503286Y-11812771D01*
X8489000Y-11841343D01*
X8474714Y-11855629D01*
X8446143Y-11869914D01*
X8403286Y-11869914D01*
X8674714Y-11869914D02*
X8646143Y-11855629D01*
X8631857Y-11827057D01*
X8631857Y-11569914D01*
X8903286Y-11855629D02*
X8874714Y-11869914D01*
X8817571Y-11869914D01*
X8789000Y-11855629D01*
X8774714Y-11827057D01*
X8774714Y-11712771D01*
X8789000Y-11684200D01*
X8817571Y-11669914D01*
X8874714Y-11669914D01*
X8903286Y-11684200D01*
X8917571Y-11712771D01*
X8917571Y-11741343D01*
X8774714Y-11769914D01*
X9031857Y-11855629D02*
X9060429Y-11869914D01*
X9117571Y-11869914D01*
X9146143Y-11855629D01*
X9160429Y-11827057D01*
X9160429Y-11812771D01*
X9146143Y-11784200D01*
X9117571Y-11769914D01*
X9074714Y-11769914D01*
X9046143Y-11755629D01*
X9031857Y-11727057D01*
X9031857Y-11712771D01*
X9046143Y-11684200D01*
X9074714Y-11669914D01*
X9117571Y-11669914D01*
X9146143Y-11684200D01*
X9260428Y-11984200D02*
X9274714Y-11969914D01*
X9303286Y-11927057D01*
X9317571Y-11898486D01*
X9331857Y-11855629D01*
X9346143Y-11784200D01*
X9346143Y-11727057D01*
X9331857Y-11655629D01*
X9317571Y-11612771D01*
X9303286Y-11584200D01*
X9274714Y-11541343D01*
X9260428Y-11527057D01*
M02*
