G04 #@! TF.FileFunction,Drawing*
%FSLAX46Y46*%
G04 Gerber Fmt 4.6, Leading zero omitted, Abs format (unit mm)*
G04 Created by KiCad (PCBNEW 4.0.6) date Friday 09 June 2017 11:09:25*
%MOMM*%
%LPD*%
G01*
G04 APERTURE LIST*
%ADD10C,0.100000*%
%ADD11C,0.150000*%
G04 APERTURE END LIST*
D10*
X92925900Y-30911800D02*
X92925900Y-80924400D01*
X27940000Y-30962600D02*
X27940000Y-46456600D01*
D11*
X104111429Y-53003430D02*
X104111429Y-52289144D01*
X103397143Y-52217715D01*
X103468571Y-52289144D01*
X103540000Y-52432001D01*
X103540000Y-52789144D01*
X103468571Y-52932001D01*
X103397143Y-53003430D01*
X103254286Y-53074858D01*
X102897143Y-53074858D01*
X102754286Y-53003430D01*
X102682857Y-52932001D01*
X102611429Y-52789144D01*
X102611429Y-52432001D01*
X102682857Y-52289144D01*
X102754286Y-52217715D01*
X104111429Y-54360572D02*
X104111429Y-54074858D01*
X104040000Y-53932001D01*
X103968571Y-53860572D01*
X103754286Y-53717715D01*
X103468571Y-53646286D01*
X102897143Y-53646286D01*
X102754286Y-53717715D01*
X102682857Y-53789143D01*
X102611429Y-53932001D01*
X102611429Y-54217715D01*
X102682857Y-54360572D01*
X102754286Y-54432001D01*
X102897143Y-54503429D01*
X103254286Y-54503429D01*
X103397143Y-54432001D01*
X103468571Y-54360572D01*
X103540000Y-54217715D01*
X103540000Y-53932001D01*
X103468571Y-53789143D01*
X103397143Y-53717715D01*
X103254286Y-53646286D01*
X102611429Y-56289143D02*
X103611429Y-56289143D01*
X103468571Y-56289143D02*
X103540000Y-56360571D01*
X103611429Y-56503429D01*
X103611429Y-56717714D01*
X103540000Y-56860571D01*
X103397143Y-56932000D01*
X102611429Y-56932000D01*
X103397143Y-56932000D02*
X103540000Y-57003429D01*
X103611429Y-57146286D01*
X103611429Y-57360571D01*
X103540000Y-57503429D01*
X103397143Y-57574857D01*
X102611429Y-57574857D01*
X102611429Y-58289143D02*
X103611429Y-58289143D01*
X103468571Y-58289143D02*
X103540000Y-58360571D01*
X103611429Y-58503429D01*
X103611429Y-58717714D01*
X103540000Y-58860571D01*
X103397143Y-58932000D01*
X102611429Y-58932000D01*
X103397143Y-58932000D02*
X103540000Y-59003429D01*
X103611429Y-59146286D01*
X103611429Y-59360571D01*
X103540000Y-59503429D01*
X103397143Y-59574857D01*
X102611429Y-59574857D01*
X101940000Y-27932000D02*
X101940000Y-83932000D01*
X93940000Y-27932000D02*
X104640000Y-27932000D01*
X93940000Y-83932000D02*
X104640000Y-83932000D01*
X101940000Y-83932000D02*
X101353579Y-82805496D01*
X101940000Y-83932000D02*
X102526421Y-82805496D01*
X101940000Y-27932000D02*
X101353579Y-29058504D01*
X101940000Y-27932000D02*
X102526421Y-29058504D01*
D10*
X92940000Y-30932000D02*
G75*
G03X89940000Y-27932000I-3000000J0D01*
G01*
X30940000Y-27932000D02*
X89940000Y-27932000D01*
X30940000Y-27932000D02*
G75*
G03X27940000Y-30932000I0J-3000000D01*
G01*
D11*
X66411430Y-74253429D02*
X66411430Y-73396286D01*
X66411430Y-73824858D02*
X67911430Y-73824858D01*
X67697144Y-73682001D01*
X67554287Y-73539143D01*
X67482858Y-73396286D01*
X66411430Y-75682000D02*
X66411430Y-74824857D01*
X66411430Y-75253429D02*
X67911430Y-75253429D01*
X67697144Y-75110572D01*
X67554287Y-74967714D01*
X67482858Y-74824857D01*
X66554287Y-76324857D02*
X66482858Y-76396285D01*
X66411430Y-76324857D01*
X66482858Y-76253428D01*
X66554287Y-76324857D01*
X66411430Y-76324857D01*
X67911430Y-77753429D02*
X67911430Y-77039143D01*
X67197144Y-76967714D01*
X67268572Y-77039143D01*
X67340001Y-77182000D01*
X67340001Y-77539143D01*
X67268572Y-77682000D01*
X67197144Y-77753429D01*
X67054287Y-77824857D01*
X66697144Y-77824857D01*
X66554287Y-77753429D01*
X66482858Y-77682000D01*
X66411430Y-77539143D01*
X66411430Y-77182000D01*
X66482858Y-77039143D01*
X66554287Y-76967714D01*
X66411430Y-79610571D02*
X67411430Y-79610571D01*
X67268572Y-79610571D02*
X67340001Y-79681999D01*
X67411430Y-79824857D01*
X67411430Y-80039142D01*
X67340001Y-80181999D01*
X67197144Y-80253428D01*
X66411430Y-80253428D01*
X67197144Y-80253428D02*
X67340001Y-80324857D01*
X67411430Y-80467714D01*
X67411430Y-80681999D01*
X67340001Y-80824857D01*
X67197144Y-80896285D01*
X66411430Y-80896285D01*
X66411430Y-81610571D02*
X67411430Y-81610571D01*
X67268572Y-81610571D02*
X67340001Y-81681999D01*
X67411430Y-81824857D01*
X67411430Y-82039142D01*
X67340001Y-82181999D01*
X67197144Y-82253428D01*
X66411430Y-82253428D01*
X67197144Y-82253428D02*
X67340001Y-82324857D01*
X67411430Y-82467714D01*
X67411430Y-82681999D01*
X67340001Y-82824857D01*
X67197144Y-82896285D01*
X66411430Y-82896285D01*
X68440001Y-72432000D02*
X68440001Y-83932000D01*
X70940000Y-72432000D02*
X65740001Y-72432000D01*
X70940000Y-83932000D02*
X65740001Y-83932000D01*
X68440001Y-83932000D02*
X67853580Y-82805496D01*
X68440001Y-83932000D02*
X69026422Y-82805496D01*
X68440001Y-72432000D02*
X67853580Y-73558504D01*
X68440001Y-72432000D02*
X69026422Y-73558504D01*
X74690000Y-59753429D02*
X74761429Y-59682000D01*
X74904286Y-59610571D01*
X75261429Y-59610571D01*
X75404286Y-59682000D01*
X75475715Y-59753429D01*
X75547143Y-59896286D01*
X75547143Y-60039143D01*
X75475715Y-60253429D01*
X74618572Y-61110571D01*
X75547143Y-61110571D01*
X77332857Y-61110571D02*
X77332857Y-60110571D01*
X77332857Y-60253429D02*
X77404285Y-60182000D01*
X77547143Y-60110571D01*
X77761428Y-60110571D01*
X77904285Y-60182000D01*
X77975714Y-60324857D01*
X77975714Y-61110571D01*
X77975714Y-60324857D02*
X78047143Y-60182000D01*
X78190000Y-60110571D01*
X78404285Y-60110571D01*
X78547143Y-60182000D01*
X78618571Y-60324857D01*
X78618571Y-61110571D01*
X79332857Y-61110571D02*
X79332857Y-60110571D01*
X79332857Y-60253429D02*
X79404285Y-60182000D01*
X79547143Y-60110571D01*
X79761428Y-60110571D01*
X79904285Y-60182000D01*
X79975714Y-60324857D01*
X79975714Y-61110571D01*
X79975714Y-60324857D02*
X80047143Y-60182000D01*
X80190000Y-60110571D01*
X80404285Y-60110571D01*
X80547143Y-60182000D01*
X80618571Y-60324857D01*
X80618571Y-61110571D01*
X71940000Y-60432001D02*
X73940000Y-60432001D01*
X71940000Y-62932000D02*
X71940000Y-57732001D01*
X73940000Y-62932000D02*
X73940000Y-57732001D01*
X73940000Y-60432001D02*
X72813496Y-61018422D01*
X73940000Y-60432001D02*
X72813496Y-59845580D01*
X71940000Y-60432001D02*
X73066504Y-61018422D01*
X71940000Y-60432001D02*
X73066504Y-59845580D01*
X78611429Y-69574858D02*
X78611429Y-68717715D01*
X78611429Y-69146287D02*
X80111429Y-69146287D01*
X79897143Y-69003430D01*
X79754286Y-68860572D01*
X79682857Y-68717715D01*
X80111429Y-70074858D02*
X80111429Y-71074858D01*
X78611429Y-70432001D01*
X78611429Y-72789143D02*
X79611429Y-72789143D01*
X79468571Y-72789143D02*
X79540000Y-72860571D01*
X79611429Y-73003429D01*
X79611429Y-73217714D01*
X79540000Y-73360571D01*
X79397143Y-73432000D01*
X78611429Y-73432000D01*
X79397143Y-73432000D02*
X79540000Y-73503429D01*
X79611429Y-73646286D01*
X79611429Y-73860571D01*
X79540000Y-74003429D01*
X79397143Y-74074857D01*
X78611429Y-74074857D01*
X78611429Y-74789143D02*
X79611429Y-74789143D01*
X79468571Y-74789143D02*
X79540000Y-74860571D01*
X79611429Y-75003429D01*
X79611429Y-75217714D01*
X79540000Y-75360571D01*
X79397143Y-75432000D01*
X78611429Y-75432000D01*
X79397143Y-75432000D02*
X79540000Y-75503429D01*
X79611429Y-75646286D01*
X79611429Y-75860571D01*
X79540000Y-76003429D01*
X79397143Y-76074857D01*
X78611429Y-76074857D01*
X77940000Y-63932000D02*
X77940000Y-80932000D01*
X74940000Y-63932000D02*
X80640000Y-63932000D01*
X74940000Y-80932000D02*
X80640000Y-80932000D01*
X77940000Y-80932000D02*
X77353579Y-79805496D01*
X77940000Y-80932000D02*
X78526421Y-79805496D01*
X77940000Y-63932000D02*
X77353579Y-65058504D01*
X77940000Y-63932000D02*
X78526421Y-65058504D01*
X32297144Y-86610571D02*
X33225715Y-86610571D01*
X32725715Y-87182000D01*
X32940001Y-87182000D01*
X33082858Y-87253429D01*
X33154287Y-87324857D01*
X33225715Y-87467714D01*
X33225715Y-87824857D01*
X33154287Y-87967714D01*
X33082858Y-88039143D01*
X32940001Y-88110571D01*
X32511429Y-88110571D01*
X32368572Y-88039143D01*
X32297144Y-87967714D01*
X33868572Y-87967714D02*
X33940000Y-88039143D01*
X33868572Y-88110571D01*
X33797143Y-88039143D01*
X33868572Y-87967714D01*
X33868572Y-88110571D01*
X35297144Y-86610571D02*
X34582858Y-86610571D01*
X34511429Y-87324857D01*
X34582858Y-87253429D01*
X34725715Y-87182000D01*
X35082858Y-87182000D01*
X35225715Y-87253429D01*
X35297144Y-87324857D01*
X35368572Y-87467714D01*
X35368572Y-87824857D01*
X35297144Y-87967714D01*
X35225715Y-88039143D01*
X35082858Y-88110571D01*
X34725715Y-88110571D01*
X34582858Y-88039143D01*
X34511429Y-87967714D01*
X37154286Y-88110571D02*
X37154286Y-87110571D01*
X37154286Y-87253429D02*
X37225714Y-87182000D01*
X37368572Y-87110571D01*
X37582857Y-87110571D01*
X37725714Y-87182000D01*
X37797143Y-87324857D01*
X37797143Y-88110571D01*
X37797143Y-87324857D02*
X37868572Y-87182000D01*
X38011429Y-87110571D01*
X38225714Y-87110571D01*
X38368572Y-87182000D01*
X38440000Y-87324857D01*
X38440000Y-88110571D01*
X39154286Y-88110571D02*
X39154286Y-87110571D01*
X39154286Y-87253429D02*
X39225714Y-87182000D01*
X39368572Y-87110571D01*
X39582857Y-87110571D01*
X39725714Y-87182000D01*
X39797143Y-87324857D01*
X39797143Y-88110571D01*
X39797143Y-87324857D02*
X39868572Y-87182000D01*
X40011429Y-87110571D01*
X40225714Y-87110571D01*
X40368572Y-87182000D01*
X40440000Y-87324857D01*
X40440000Y-88110571D01*
X27940000Y-87432000D02*
X31440000Y-87432000D01*
X27940000Y-84932000D02*
X27940000Y-90132000D01*
X31440000Y-84932000D02*
X31440000Y-90132000D01*
X31440000Y-87432000D02*
X30313496Y-88018421D01*
X31440000Y-87432000D02*
X30313496Y-86845579D01*
X27940000Y-87432000D02*
X29066504Y-88018421D01*
X27940000Y-87432000D02*
X29066504Y-86845579D01*
X39011429Y-71539144D02*
X39011429Y-72467715D01*
X38440000Y-71967715D01*
X38440000Y-72182001D01*
X38368571Y-72324858D01*
X38297143Y-72396287D01*
X38154286Y-72467715D01*
X37797143Y-72467715D01*
X37654286Y-72396287D01*
X37582857Y-72324858D01*
X37511429Y-72182001D01*
X37511429Y-71753429D01*
X37582857Y-71610572D01*
X37654286Y-71539144D01*
X37654286Y-73110572D02*
X37582857Y-73182000D01*
X37511429Y-73110572D01*
X37582857Y-73039143D01*
X37654286Y-73110572D01*
X37511429Y-73110572D01*
X39011429Y-74539144D02*
X39011429Y-73824858D01*
X38297143Y-73753429D01*
X38368571Y-73824858D01*
X38440000Y-73967715D01*
X38440000Y-74324858D01*
X38368571Y-74467715D01*
X38297143Y-74539144D01*
X38154286Y-74610572D01*
X37797143Y-74610572D01*
X37654286Y-74539144D01*
X37582857Y-74467715D01*
X37511429Y-74324858D01*
X37511429Y-73967715D01*
X37582857Y-73824858D01*
X37654286Y-73753429D01*
X37511429Y-76396286D02*
X38511429Y-76396286D01*
X38368571Y-76396286D02*
X38440000Y-76467714D01*
X38511429Y-76610572D01*
X38511429Y-76824857D01*
X38440000Y-76967714D01*
X38297143Y-77039143D01*
X37511429Y-77039143D01*
X38297143Y-77039143D02*
X38440000Y-77110572D01*
X38511429Y-77253429D01*
X38511429Y-77467714D01*
X38440000Y-77610572D01*
X38297143Y-77682000D01*
X37511429Y-77682000D01*
X37511429Y-78396286D02*
X38511429Y-78396286D01*
X38368571Y-78396286D02*
X38440000Y-78467714D01*
X38511429Y-78610572D01*
X38511429Y-78824857D01*
X38440000Y-78967714D01*
X38297143Y-79039143D01*
X37511429Y-79039143D01*
X38297143Y-79039143D02*
X38440000Y-79110572D01*
X38511429Y-79253429D01*
X38511429Y-79467714D01*
X38440000Y-79610572D01*
X38297143Y-79682000D01*
X37511429Y-79682000D01*
X37940000Y-80432000D02*
X37940000Y-83932000D01*
X34940000Y-80432000D02*
X40640000Y-80432000D01*
X34940000Y-83932000D02*
X40640000Y-83932000D01*
X37940000Y-83932000D02*
X37353579Y-82805496D01*
X37940000Y-83932000D02*
X38526421Y-82805496D01*
X37940000Y-80432000D02*
X37353579Y-81558504D01*
X37940000Y-80432000D02*
X38526421Y-81558504D01*
X98611428Y-52932001D02*
X97611428Y-52932001D01*
X99182856Y-52574858D02*
X98111428Y-52217715D01*
X98111428Y-53146287D01*
X97611428Y-53789143D02*
X97611428Y-54074858D01*
X97682856Y-54217715D01*
X97754285Y-54289143D01*
X97968570Y-54432001D01*
X98254285Y-54503429D01*
X98825713Y-54503429D01*
X98968570Y-54432001D01*
X99039999Y-54360572D01*
X99111428Y-54217715D01*
X99111428Y-53932001D01*
X99039999Y-53789143D01*
X98968570Y-53717715D01*
X98825713Y-53646286D01*
X98468570Y-53646286D01*
X98325713Y-53717715D01*
X98254285Y-53789143D01*
X98182856Y-53932001D01*
X98182856Y-54217715D01*
X98254285Y-54360572D01*
X98325713Y-54432001D01*
X98468570Y-54503429D01*
X97611428Y-56289143D02*
X98611428Y-56289143D01*
X98468570Y-56289143D02*
X98539999Y-56360571D01*
X98611428Y-56503429D01*
X98611428Y-56717714D01*
X98539999Y-56860571D01*
X98397142Y-56932000D01*
X97611428Y-56932000D01*
X98397142Y-56932000D02*
X98539999Y-57003429D01*
X98611428Y-57146286D01*
X98611428Y-57360571D01*
X98539999Y-57503429D01*
X98397142Y-57574857D01*
X97611428Y-57574857D01*
X97611428Y-58289143D02*
X98611428Y-58289143D01*
X98468570Y-58289143D02*
X98539999Y-58360571D01*
X98611428Y-58503429D01*
X98611428Y-58717714D01*
X98539999Y-58860571D01*
X98397142Y-58932000D01*
X97611428Y-58932000D01*
X98397142Y-58932000D02*
X98539999Y-59003429D01*
X98611428Y-59146286D01*
X98611428Y-59360571D01*
X98539999Y-59503429D01*
X98397142Y-59574857D01*
X97611428Y-59574857D01*
X96939999Y-31432000D02*
X96939999Y-80432000D01*
X93940000Y-31432000D02*
X99639999Y-31432000D01*
X93940000Y-80432000D02*
X99639999Y-80432000D01*
X96939999Y-80432000D02*
X96353578Y-79305496D01*
X96939999Y-80432000D02*
X97526420Y-79305496D01*
X96939999Y-31432000D02*
X96353578Y-32558504D01*
X96939999Y-31432000D02*
X97526420Y-32558504D01*
X21911429Y-70253429D02*
X21911429Y-69396286D01*
X21911429Y-69824858D02*
X23411429Y-69824858D01*
X23197143Y-69682001D01*
X23054286Y-69539143D01*
X22982857Y-69396286D01*
X21911429Y-70967714D02*
X21911429Y-71253429D01*
X21982857Y-71396286D01*
X22054286Y-71467714D01*
X22268571Y-71610572D01*
X22554286Y-71682000D01*
X23125714Y-71682000D01*
X23268571Y-71610572D01*
X23340000Y-71539143D01*
X23411429Y-71396286D01*
X23411429Y-71110572D01*
X23340000Y-70967714D01*
X23268571Y-70896286D01*
X23125714Y-70824857D01*
X22768571Y-70824857D01*
X22625714Y-70896286D01*
X22554286Y-70967714D01*
X22482857Y-71110572D01*
X22482857Y-71396286D01*
X22554286Y-71539143D01*
X22625714Y-71610572D01*
X22768571Y-71682000D01*
X22054286Y-72324857D02*
X21982857Y-72396285D01*
X21911429Y-72324857D01*
X21982857Y-72253428D01*
X22054286Y-72324857D01*
X21911429Y-72324857D01*
X23411429Y-73753429D02*
X23411429Y-73039143D01*
X22697143Y-72967714D01*
X22768571Y-73039143D01*
X22840000Y-73182000D01*
X22840000Y-73539143D01*
X22768571Y-73682000D01*
X22697143Y-73753429D01*
X22554286Y-73824857D01*
X22197143Y-73824857D01*
X22054286Y-73753429D01*
X21982857Y-73682000D01*
X21911429Y-73539143D01*
X21911429Y-73182000D01*
X21982857Y-73039143D01*
X22054286Y-72967714D01*
X21911429Y-75610571D02*
X22911429Y-75610571D01*
X22768571Y-75610571D02*
X22840000Y-75681999D01*
X22911429Y-75824857D01*
X22911429Y-76039142D01*
X22840000Y-76181999D01*
X22697143Y-76253428D01*
X21911429Y-76253428D01*
X22697143Y-76253428D02*
X22840000Y-76324857D01*
X22911429Y-76467714D01*
X22911429Y-76681999D01*
X22840000Y-76824857D01*
X22697143Y-76896285D01*
X21911429Y-76896285D01*
X21911429Y-77610571D02*
X22911429Y-77610571D01*
X22768571Y-77610571D02*
X22840000Y-77681999D01*
X22911429Y-77824857D01*
X22911429Y-78039142D01*
X22840000Y-78181999D01*
X22697143Y-78253428D01*
X21911429Y-78253428D01*
X22697143Y-78253428D02*
X22840000Y-78324857D01*
X22911429Y-78467714D01*
X22911429Y-78681999D01*
X22840000Y-78824857D01*
X22697143Y-78896285D01*
X21911429Y-78896285D01*
X23940000Y-64432000D02*
X23940000Y-83932000D01*
X26940000Y-64432000D02*
X21240000Y-64432000D01*
X26940000Y-83932000D02*
X21240000Y-83932000D01*
X23940000Y-83932000D02*
X23353579Y-82805496D01*
X23940000Y-83932000D02*
X24526421Y-82805496D01*
X23940000Y-64432000D02*
X23353579Y-65558504D01*
X23940000Y-64432000D02*
X24526421Y-65558504D01*
X36611429Y-53074858D02*
X36611429Y-52217715D01*
X36611429Y-52646287D02*
X38111429Y-52646287D01*
X37897143Y-52503430D01*
X37754286Y-52360572D01*
X37682857Y-52217715D01*
X38111429Y-53574858D02*
X38111429Y-54574858D01*
X36611429Y-53932001D01*
X36611429Y-56289143D02*
X37611429Y-56289143D01*
X37468571Y-56289143D02*
X37540000Y-56360571D01*
X37611429Y-56503429D01*
X37611429Y-56717714D01*
X37540000Y-56860571D01*
X37397143Y-56932000D01*
X36611429Y-56932000D01*
X37397143Y-56932000D02*
X37540000Y-57003429D01*
X37611429Y-57146286D01*
X37611429Y-57360571D01*
X37540000Y-57503429D01*
X37397143Y-57574857D01*
X36611429Y-57574857D01*
X36611429Y-58289143D02*
X37611429Y-58289143D01*
X37468571Y-58289143D02*
X37540000Y-58360571D01*
X37611429Y-58503429D01*
X37611429Y-58717714D01*
X37540000Y-58860571D01*
X37397143Y-58932000D01*
X36611429Y-58932000D01*
X37397143Y-58932000D02*
X37540000Y-59003429D01*
X37611429Y-59146286D01*
X37611429Y-59360571D01*
X37540000Y-59503429D01*
X37397143Y-59574857D01*
X36611429Y-59574857D01*
X35940000Y-47432000D02*
X35940000Y-64432000D01*
X33940000Y-47432000D02*
X38640000Y-47432000D01*
X33940000Y-64432000D02*
X38640000Y-64432000D01*
X35940000Y-64432000D02*
X35353579Y-63305496D01*
X35940000Y-64432000D02*
X36526421Y-63305496D01*
X35940000Y-47432000D02*
X35353579Y-48558504D01*
X35940000Y-47432000D02*
X36526421Y-48558504D01*
X34475715Y-44610571D02*
X33761429Y-44610571D01*
X33690000Y-45324857D01*
X33761429Y-45253429D01*
X33904286Y-45182000D01*
X34261429Y-45182000D01*
X34404286Y-45253429D01*
X34475715Y-45324857D01*
X34547143Y-45467714D01*
X34547143Y-45824857D01*
X34475715Y-45967714D01*
X34404286Y-46039143D01*
X34261429Y-46110571D01*
X33904286Y-46110571D01*
X33761429Y-46039143D01*
X33690000Y-45967714D01*
X36332857Y-46110571D02*
X36332857Y-45110571D01*
X36332857Y-45253429D02*
X36404285Y-45182000D01*
X36547143Y-45110571D01*
X36761428Y-45110571D01*
X36904285Y-45182000D01*
X36975714Y-45324857D01*
X36975714Y-46110571D01*
X36975714Y-45324857D02*
X37047143Y-45182000D01*
X37190000Y-45110571D01*
X37404285Y-45110571D01*
X37547143Y-45182000D01*
X37618571Y-45324857D01*
X37618571Y-46110571D01*
X38332857Y-46110571D02*
X38332857Y-45110571D01*
X38332857Y-45253429D02*
X38404285Y-45182000D01*
X38547143Y-45110571D01*
X38761428Y-45110571D01*
X38904285Y-45182000D01*
X38975714Y-45324857D01*
X38975714Y-46110571D01*
X38975714Y-45324857D02*
X39047143Y-45182000D01*
X39190000Y-45110571D01*
X39404285Y-45110571D01*
X39547143Y-45182000D01*
X39618571Y-45324857D01*
X39618571Y-46110571D01*
X27940000Y-45432000D02*
X32940000Y-45432000D01*
X27940000Y-47432000D02*
X27940000Y-42732000D01*
X32940000Y-47432000D02*
X32940000Y-42732000D01*
X32940000Y-45432000D02*
X31813496Y-46018421D01*
X32940000Y-45432000D02*
X31813496Y-44845579D01*
X27940000Y-45432000D02*
X29066504Y-46018421D01*
X27940000Y-45432000D02*
X29066504Y-44845579D01*
X42225715Y-38603428D02*
X42297144Y-38531999D01*
X42440001Y-38460570D01*
X42797144Y-38460570D01*
X42940001Y-38531999D01*
X43011430Y-38603428D01*
X43082858Y-38746285D01*
X43082858Y-38889142D01*
X43011430Y-39103428D01*
X42154287Y-39960570D01*
X43082858Y-39960570D01*
X43797143Y-39960570D02*
X44082858Y-39960570D01*
X44225715Y-39889142D01*
X44297143Y-39817713D01*
X44440001Y-39603428D01*
X44511429Y-39317713D01*
X44511429Y-38746285D01*
X44440001Y-38603428D01*
X44368572Y-38531999D01*
X44225715Y-38460570D01*
X43940001Y-38460570D01*
X43797143Y-38531999D01*
X43725715Y-38603428D01*
X43654286Y-38746285D01*
X43654286Y-39103428D01*
X43725715Y-39246285D01*
X43797143Y-39317713D01*
X43940001Y-39389142D01*
X44225715Y-39389142D01*
X44368572Y-39317713D01*
X44440001Y-39246285D01*
X44511429Y-39103428D01*
X46297143Y-39960570D02*
X46297143Y-38960570D01*
X46297143Y-39103428D02*
X46368571Y-39031999D01*
X46511429Y-38960570D01*
X46725714Y-38960570D01*
X46868571Y-39031999D01*
X46940000Y-39174856D01*
X46940000Y-39960570D01*
X46940000Y-39174856D02*
X47011429Y-39031999D01*
X47154286Y-38960570D01*
X47368571Y-38960570D01*
X47511429Y-39031999D01*
X47582857Y-39174856D01*
X47582857Y-39960570D01*
X48297143Y-39960570D02*
X48297143Y-38960570D01*
X48297143Y-39103428D02*
X48368571Y-39031999D01*
X48511429Y-38960570D01*
X48725714Y-38960570D01*
X48868571Y-39031999D01*
X48940000Y-39174856D01*
X48940000Y-39960570D01*
X48940000Y-39174856D02*
X49011429Y-39031999D01*
X49154286Y-38960570D01*
X49368571Y-38960570D01*
X49511429Y-39031999D01*
X49582857Y-39174856D01*
X49582857Y-39960570D01*
X31440000Y-37931999D02*
X60440000Y-37931999D01*
X31440000Y-35432000D02*
X31440000Y-40631999D01*
X60440000Y-35432000D02*
X60440000Y-40631999D01*
X60440000Y-37931999D02*
X59313496Y-38518420D01*
X60440000Y-37931999D02*
X59313496Y-37345578D01*
X31440000Y-37931999D02*
X32566504Y-38518420D01*
X31440000Y-37931999D02*
X32566504Y-37345578D01*
X57511430Y-21760571D02*
X56797144Y-21760571D01*
X56725715Y-22474857D01*
X56797144Y-22403429D01*
X56940001Y-22332000D01*
X57297144Y-22332000D01*
X57440001Y-22403429D01*
X57511430Y-22474857D01*
X57582858Y-22617714D01*
X57582858Y-22974857D01*
X57511430Y-23117714D01*
X57440001Y-23189143D01*
X57297144Y-23260571D01*
X56940001Y-23260571D01*
X56797144Y-23189143D01*
X56725715Y-23117714D01*
X58440001Y-22403429D02*
X58297143Y-22332000D01*
X58225715Y-22260571D01*
X58154286Y-22117714D01*
X58154286Y-22046286D01*
X58225715Y-21903429D01*
X58297143Y-21832000D01*
X58440001Y-21760571D01*
X58725715Y-21760571D01*
X58868572Y-21832000D01*
X58940001Y-21903429D01*
X59011429Y-22046286D01*
X59011429Y-22117714D01*
X58940001Y-22260571D01*
X58868572Y-22332000D01*
X58725715Y-22403429D01*
X58440001Y-22403429D01*
X58297143Y-22474857D01*
X58225715Y-22546286D01*
X58154286Y-22689143D01*
X58154286Y-22974857D01*
X58225715Y-23117714D01*
X58297143Y-23189143D01*
X58440001Y-23260571D01*
X58725715Y-23260571D01*
X58868572Y-23189143D01*
X58940001Y-23117714D01*
X59011429Y-22974857D01*
X59011429Y-22689143D01*
X58940001Y-22546286D01*
X58868572Y-22474857D01*
X58725715Y-22403429D01*
X60797143Y-23260571D02*
X60797143Y-22260571D01*
X60797143Y-22403429D02*
X60868571Y-22332000D01*
X61011429Y-22260571D01*
X61225714Y-22260571D01*
X61368571Y-22332000D01*
X61440000Y-22474857D01*
X61440000Y-23260571D01*
X61440000Y-22474857D02*
X61511429Y-22332000D01*
X61654286Y-22260571D01*
X61868571Y-22260571D01*
X62011429Y-22332000D01*
X62082857Y-22474857D01*
X62082857Y-23260571D01*
X62797143Y-23260571D02*
X62797143Y-22260571D01*
X62797143Y-22403429D02*
X62868571Y-22332000D01*
X63011429Y-22260571D01*
X63225714Y-22260571D01*
X63368571Y-22332000D01*
X63440000Y-22474857D01*
X63440000Y-23260571D01*
X63440000Y-22474857D02*
X63511429Y-22332000D01*
X63654286Y-22260571D01*
X63868571Y-22260571D01*
X64011429Y-22332000D01*
X64082857Y-22474857D01*
X64082857Y-23260571D01*
X31440000Y-23932000D02*
X89440000Y-23932000D01*
X31440000Y-26432000D02*
X31440000Y-21232000D01*
X89440000Y-26432000D02*
X89440000Y-21232000D01*
X89440000Y-23932000D02*
X88313496Y-24518421D01*
X89440000Y-23932000D02*
X88313496Y-23345579D01*
X31440000Y-23932000D02*
X32566504Y-24518421D01*
X31440000Y-23932000D02*
X32566504Y-23345579D01*
X57440001Y-17260571D02*
X57154287Y-17260571D01*
X57011430Y-17332000D01*
X56940001Y-17403429D01*
X56797144Y-17617714D01*
X56725715Y-17903429D01*
X56725715Y-18474857D01*
X56797144Y-18617714D01*
X56868572Y-18689143D01*
X57011430Y-18760571D01*
X57297144Y-18760571D01*
X57440001Y-18689143D01*
X57511430Y-18617714D01*
X57582858Y-18474857D01*
X57582858Y-18117714D01*
X57511430Y-17974857D01*
X57440001Y-17903429D01*
X57297144Y-17832000D01*
X57011430Y-17832000D01*
X56868572Y-17903429D01*
X56797144Y-17974857D01*
X56725715Y-18117714D01*
X58940001Y-17260571D02*
X58225715Y-17260571D01*
X58154286Y-17974857D01*
X58225715Y-17903429D01*
X58368572Y-17832000D01*
X58725715Y-17832000D01*
X58868572Y-17903429D01*
X58940001Y-17974857D01*
X59011429Y-18117714D01*
X59011429Y-18474857D01*
X58940001Y-18617714D01*
X58868572Y-18689143D01*
X58725715Y-18760571D01*
X58368572Y-18760571D01*
X58225715Y-18689143D01*
X58154286Y-18617714D01*
X60797143Y-18760571D02*
X60797143Y-17760571D01*
X60797143Y-17903429D02*
X60868571Y-17832000D01*
X61011429Y-17760571D01*
X61225714Y-17760571D01*
X61368571Y-17832000D01*
X61440000Y-17974857D01*
X61440000Y-18760571D01*
X61440000Y-17974857D02*
X61511429Y-17832000D01*
X61654286Y-17760571D01*
X61868571Y-17760571D01*
X62011429Y-17832000D01*
X62082857Y-17974857D01*
X62082857Y-18760571D01*
X62797143Y-18760571D02*
X62797143Y-17760571D01*
X62797143Y-17903429D02*
X62868571Y-17832000D01*
X63011429Y-17760571D01*
X63225714Y-17760571D01*
X63368571Y-17832000D01*
X63440000Y-17974857D01*
X63440000Y-18760571D01*
X63440000Y-17974857D02*
X63511429Y-17832000D01*
X63654286Y-17760571D01*
X63868571Y-17760571D01*
X64011429Y-17832000D01*
X64082857Y-17974857D01*
X64082857Y-18760571D01*
X27940000Y-19432000D02*
X92940000Y-19432000D01*
X27940000Y-26432000D02*
X27940000Y-16732000D01*
X92940000Y-26432000D02*
X92940000Y-16732000D01*
X92940000Y-19432000D02*
X91813496Y-20018421D01*
X92940000Y-19432000D02*
X91813496Y-18845579D01*
X27940000Y-19432000D02*
X29066504Y-20018421D01*
X27940000Y-19432000D02*
X29066504Y-18845579D01*
D10*
X73940000Y-79932000D02*
G75*
G02X71940000Y-79932000I-1000000J0D01*
G01*
X73940000Y-64932000D02*
G75*
G03X71940000Y-64932000I-1000000J0D01*
G01*
X73940000Y-64932000D02*
X73940000Y-79932000D01*
X71940000Y-64932000D02*
X71940000Y-79932000D01*
X28940000Y-64432000D02*
G75*
G03X27940000Y-65432000I0J-1000000D01*
G01*
X31940000Y-64432000D02*
G75*
G03X32940000Y-63432000I0J1000000D01*
G01*
X32940000Y-48432000D02*
G75*
G03X31940000Y-47432000I-1000000J0D01*
G01*
X27940000Y-46432000D02*
G75*
G03X28940000Y-47432000I1000000J0D01*
G01*
X89940000Y-83932000D02*
G75*
G03X92940000Y-80932000I0J3000000D01*
G01*
X27940000Y-80932000D02*
G75*
G03X30940000Y-83932000I3000000J0D01*
G01*
X27940000Y-65432000D02*
X27940000Y-80932000D01*
X28940000Y-64432000D02*
X31940000Y-64432000D01*
X28940000Y-47432000D02*
X31940000Y-47432000D01*
X32940000Y-48432000D02*
X32940000Y-63432000D01*
X30940000Y-83932000D02*
X89940000Y-83932000D01*
M02*
