M48
;DRILL file {KiCad 4.0.7} date Thursday 07 December 2017 'o52' 11:52:01
;FORMAT={-:-/ absolute / inch / decimal}
FMAT,2
INCH,TZ
T1C0.016
T2C0.030
T3C0.040
T4C0.043
%
G90
G05
M72
T1
X1.5625Y-1.7325
X1.715Y-1.85
X1.7475Y-1.8875
X2.1Y-1.7275
X2.248Y-1.767
X2.495Y-1.331
X2.496Y-1.404
T2
X1.216Y-1.4938
X1.216Y-1.5725
X1.216Y-1.6513
X1.216Y-1.73
X1.47Y-1.4928
X1.47Y-1.5715
X1.47Y-1.6503
X1.47Y-1.729
X3.23Y-1.49
X3.33Y-1.49
X3.43Y-1.49
X3.53Y-1.49
T3
X1.425Y-1.175
X1.425Y-1.275
X1.525Y-1.175
X1.525Y-1.275
X1.625Y-1.175
X1.625Y-1.275
X1.725Y-1.175
X1.725Y-1.275
X1.825Y-1.175
X1.825Y-1.275
X1.925Y-1.175
X1.925Y-1.275
X2.025Y-1.175
X2.025Y-1.275
X2.125Y-1.175
X2.125Y-1.275
X2.225Y-1.175
X2.225Y-1.275
X2.325Y-1.175
X2.325Y-1.275
X2.425Y-1.175
X2.425Y-1.275
X2.525Y-1.175
X2.525Y-1.275
X2.615Y-1.445
X2.625Y-1.175
X2.625Y-1.275
X2.715Y-1.445
X2.725Y-1.175
X2.725Y-1.275
X2.815Y-1.445
X2.825Y-1.175
X2.825Y-1.275
X2.915Y-1.445
X2.925Y-1.175
X2.925Y-1.275
X3.015Y-1.445
X3.025Y-1.175
X3.025Y-1.275
X3.125Y-1.175
X3.125Y-1.275
X3.225Y-1.175
X3.225Y-1.275
X3.325Y-1.175
X3.325Y-1.275
T4
X1.4228Y-1.91
X1.4228Y-2.1659
X1.6Y-1.91
X1.6Y-2.1659
X1.95Y-1.9091
X1.95Y-2.165
X2.1272Y-1.9091
X2.1272Y-2.165
T0
M30
