G04 #@! TF.FileFunction,Legend,Top*
%FSLAX46Y46*%
G04 Gerber Fmt 4.6, Leading zero omitted, Abs format (unit mm)*
G04 Created by KiCad (PCBNEW 4.0.6) date Monday 17 April 2017 17:24:00*
%MOMM*%
%LPD*%
G01*
G04 APERTURE LIST*
%ADD10C,0.100000*%
%ADD11C,0.150000*%
%ADD12C,0.254000*%
%ADD13C,0.120000*%
G04 APERTURE END LIST*
D10*
D11*
X37580000Y-33972000D02*
X37580000Y-31432000D01*
X37580000Y-31432000D02*
X35040000Y-31432000D01*
D12*
X85840000Y-28892000D02*
X85840000Y-33972000D01*
X85840000Y-33972000D02*
X35040000Y-33972000D01*
X35040000Y-33972000D02*
X35040000Y-28892000D01*
X35040000Y-28892000D02*
X85840000Y-28892000D01*
D11*
X73406000Y-55111000D02*
X75946000Y-55111000D01*
X75946000Y-55111000D02*
X75946000Y-44951000D01*
X75946000Y-44951000D02*
X73406000Y-44951000D01*
X73406000Y-44951000D02*
X73406000Y-55111000D01*
X74676000Y-43801000D02*
X74676000Y-44951000D01*
X74676000Y-56261000D02*
X74676000Y-55111000D01*
X64452500Y-45092000D02*
X61912500Y-45092000D01*
X61912500Y-45092000D02*
X61912500Y-55252000D01*
X61912500Y-55252000D02*
X64452500Y-55252000D01*
X64452500Y-55252000D02*
X64452500Y-45092000D01*
X63182500Y-56402000D02*
X63182500Y-55252000D01*
X63182500Y-43942000D02*
X63182500Y-45092000D01*
X68135500Y-45028500D02*
X65595500Y-45028500D01*
X65595500Y-45028500D02*
X65595500Y-55188500D01*
X65595500Y-55188500D02*
X68135500Y-55188500D01*
X68135500Y-55188500D02*
X68135500Y-45028500D01*
X66865500Y-56338500D02*
X66865500Y-55188500D01*
X66865500Y-43878500D02*
X66865500Y-45028500D01*
X50038000Y-45092000D02*
X47498000Y-45092000D01*
X47498000Y-45092000D02*
X47498000Y-55252000D01*
X47498000Y-55252000D02*
X50038000Y-55252000D01*
X50038000Y-55252000D02*
X50038000Y-45092000D01*
X48768000Y-56402000D02*
X48768000Y-55252000D01*
X48768000Y-43942000D02*
X48768000Y-45092000D01*
D13*
X42910000Y-82462000D02*
X47410000Y-82462000D01*
X41660000Y-78462000D02*
X41660000Y-79962000D01*
X47410000Y-75962000D02*
X42910000Y-75962000D01*
X48660000Y-79962000D02*
X48660000Y-78462000D01*
X54340000Y-82462000D02*
X58840000Y-82462000D01*
X53090000Y-78462000D02*
X53090000Y-79962000D01*
X58840000Y-75962000D02*
X54340000Y-75962000D01*
X60090000Y-79962000D02*
X60090000Y-78462000D01*
X33274462Y-66352000D02*
G75*
G03X31729170Y-71902000I-462J-2990000D01*
G01*
X33273538Y-66352000D02*
G75*
G02X34818830Y-71902000I462J-2990000D01*
G01*
X35774000Y-69342000D02*
G75*
G03X35774000Y-69342000I-2500000J0D01*
G01*
X31729000Y-71902000D02*
X34819000Y-71902000D01*
D11*
X57340500Y-45092000D02*
X54800500Y-45092000D01*
X54800500Y-45092000D02*
X54800500Y-55252000D01*
X54800500Y-55252000D02*
X57340500Y-55252000D01*
X57340500Y-55252000D02*
X57340500Y-45092000D01*
X56070500Y-56402000D02*
X56070500Y-55252000D01*
X56070500Y-43942000D02*
X56070500Y-45092000D01*
D13*
X42926462Y-66352000D02*
G75*
G03X41381170Y-71902000I-462J-2990000D01*
G01*
X42925538Y-66352000D02*
G75*
G02X44470830Y-71902000I462J-2990000D01*
G01*
X45426000Y-69342000D02*
G75*
G03X45426000Y-69342000I-2500000J0D01*
G01*
X41381000Y-71902000D02*
X44471000Y-71902000D01*
X50038462Y-66352000D02*
G75*
G03X48493170Y-71902000I-462J-2990000D01*
G01*
X50037538Y-66352000D02*
G75*
G02X51582830Y-71902000I462J-2990000D01*
G01*
X52538000Y-69342000D02*
G75*
G03X52538000Y-69342000I-2500000J0D01*
G01*
X48493000Y-71902000D02*
X51583000Y-71902000D01*
X57150462Y-66352000D02*
G75*
G03X55605170Y-71902000I-462J-2990000D01*
G01*
X57149538Y-66352000D02*
G75*
G02X58694830Y-71902000I462J-2990000D01*
G01*
X59650000Y-69342000D02*
G75*
G03X59650000Y-69342000I-2500000J0D01*
G01*
X55605000Y-71902000D02*
X58695000Y-71902000D01*
D11*
X69469000Y-54984000D02*
X72009000Y-54984000D01*
X72009000Y-54984000D02*
X72009000Y-44824000D01*
X72009000Y-44824000D02*
X69469000Y-44824000D01*
X69469000Y-44824000D02*
X69469000Y-54984000D01*
X70739000Y-43674000D02*
X70739000Y-44824000D01*
X70739000Y-56134000D02*
X70739000Y-54984000D01*
X61023500Y-45028500D02*
X58483500Y-45028500D01*
X58483500Y-45028500D02*
X58483500Y-55188500D01*
X58483500Y-55188500D02*
X61023500Y-55188500D01*
X61023500Y-55188500D02*
X61023500Y-45028500D01*
X59753500Y-56338500D02*
X59753500Y-55188500D01*
X59753500Y-43878500D02*
X59753500Y-45028500D01*
X53721000Y-45092000D02*
X51181000Y-45092000D01*
X51181000Y-45092000D02*
X51181000Y-55252000D01*
X51181000Y-55252000D02*
X53721000Y-55252000D01*
X53721000Y-55252000D02*
X53721000Y-45092000D01*
X52451000Y-56402000D02*
X52451000Y-55252000D01*
X52451000Y-43942000D02*
X52451000Y-45092000D01*
X45746000Y-36800000D02*
X44196000Y-36800000D01*
X45746000Y-38100000D02*
X45746000Y-36800000D01*
X44323000Y-42291000D02*
X44323000Y-48133000D01*
X44323000Y-48133000D02*
X44069000Y-48133000D01*
X44069000Y-48133000D02*
X44069000Y-42291000D01*
X44069000Y-42291000D02*
X44196000Y-42291000D01*
X44196000Y-42291000D02*
X44196000Y-48133000D01*
X44450000Y-39624000D02*
X44450000Y-39243000D01*
X43942000Y-39624000D02*
X43942000Y-39243000D01*
X41910000Y-39624000D02*
X41910000Y-39243000D01*
X41402000Y-39624000D02*
X41402000Y-39243000D01*
X39370000Y-39624000D02*
X39370000Y-39243000D01*
X38862000Y-39624000D02*
X38862000Y-39243000D01*
X36322000Y-39624000D02*
X36322000Y-39243000D01*
X36830000Y-39624000D02*
X36830000Y-39243000D01*
X45466000Y-39624000D02*
X45466000Y-42164000D01*
X42926000Y-39624000D02*
X42926000Y-42164000D01*
X42926000Y-39624000D02*
X40386000Y-39624000D01*
X40386000Y-39624000D02*
X40386000Y-42164000D01*
X41910000Y-42164000D02*
X41910000Y-48260000D01*
X41910000Y-48260000D02*
X41402000Y-48260000D01*
X41402000Y-48260000D02*
X41402000Y-42164000D01*
X40386000Y-42164000D02*
X42926000Y-42164000D01*
X42926000Y-42164000D02*
X45466000Y-42164000D01*
X43942000Y-48260000D02*
X43942000Y-42164000D01*
X44450000Y-48260000D02*
X43942000Y-48260000D01*
X44450000Y-42164000D02*
X44450000Y-48260000D01*
X42926000Y-39624000D02*
X42926000Y-42164000D01*
X45466000Y-39624000D02*
X42926000Y-39624000D01*
X37846000Y-39624000D02*
X37846000Y-42164000D01*
X37846000Y-39624000D02*
X35306000Y-39624000D01*
X35306000Y-39624000D02*
X35306000Y-42164000D01*
X36830000Y-42164000D02*
X36830000Y-48260000D01*
X36830000Y-48260000D02*
X36322000Y-48260000D01*
X36322000Y-48260000D02*
X36322000Y-42164000D01*
X35306000Y-42164000D02*
X37846000Y-42164000D01*
X37846000Y-42164000D02*
X40386000Y-42164000D01*
X38862000Y-48260000D02*
X38862000Y-42164000D01*
X39370000Y-48260000D02*
X38862000Y-48260000D01*
X39370000Y-42164000D02*
X39370000Y-48260000D01*
X37846000Y-39624000D02*
X37846000Y-42164000D01*
X40386000Y-39624000D02*
X37846000Y-39624000D01*
X40386000Y-39624000D02*
X40386000Y-42164000D01*
X35988667Y-34250381D02*
X35988667Y-34964667D01*
X35941047Y-35107524D01*
X35845809Y-35202762D01*
X35702952Y-35250381D01*
X35607714Y-35250381D01*
X36988667Y-35250381D02*
X36417238Y-35250381D01*
X36702952Y-35250381D02*
X36702952Y-34250381D01*
X36607714Y-34393238D01*
X36512476Y-34488476D01*
X36417238Y-34536095D01*
X74509334Y-39695381D02*
X74176000Y-39219190D01*
X73937905Y-39695381D02*
X73937905Y-38695381D01*
X74318858Y-38695381D01*
X74414096Y-38743000D01*
X74461715Y-38790619D01*
X74509334Y-38885857D01*
X74509334Y-39028714D01*
X74461715Y-39123952D01*
X74414096Y-39171571D01*
X74318858Y-39219190D01*
X73937905Y-39219190D01*
X75461715Y-39695381D02*
X74890286Y-39695381D01*
X75176000Y-39695381D02*
X75176000Y-38695381D01*
X75080762Y-38838238D01*
X74985524Y-38933476D01*
X74890286Y-38981095D01*
X63015834Y-39822381D02*
X62682500Y-39346190D01*
X62444405Y-39822381D02*
X62444405Y-38822381D01*
X62825358Y-38822381D01*
X62920596Y-38870000D01*
X62968215Y-38917619D01*
X63015834Y-39012857D01*
X63015834Y-39155714D01*
X62968215Y-39250952D01*
X62920596Y-39298571D01*
X62825358Y-39346190D01*
X62444405Y-39346190D01*
X63396786Y-38917619D02*
X63444405Y-38870000D01*
X63539643Y-38822381D01*
X63777739Y-38822381D01*
X63872977Y-38870000D01*
X63920596Y-38917619D01*
X63968215Y-39012857D01*
X63968215Y-39108095D01*
X63920596Y-39250952D01*
X63349167Y-39822381D01*
X63968215Y-39822381D01*
X66571834Y-39885881D02*
X66238500Y-39409690D01*
X66000405Y-39885881D02*
X66000405Y-38885881D01*
X66381358Y-38885881D01*
X66476596Y-38933500D01*
X66524215Y-38981119D01*
X66571834Y-39076357D01*
X66571834Y-39219214D01*
X66524215Y-39314452D01*
X66476596Y-39362071D01*
X66381358Y-39409690D01*
X66000405Y-39409690D01*
X66905167Y-38885881D02*
X67524215Y-38885881D01*
X67190881Y-39266833D01*
X67333739Y-39266833D01*
X67428977Y-39314452D01*
X67476596Y-39362071D01*
X67524215Y-39457310D01*
X67524215Y-39695405D01*
X67476596Y-39790643D01*
X67428977Y-39838262D01*
X67333739Y-39885881D01*
X67048024Y-39885881D01*
X66952786Y-39838262D01*
X66905167Y-39790643D01*
X48601334Y-39822381D02*
X48268000Y-39346190D01*
X48029905Y-39822381D02*
X48029905Y-38822381D01*
X48410858Y-38822381D01*
X48506096Y-38870000D01*
X48553715Y-38917619D01*
X48601334Y-39012857D01*
X48601334Y-39155714D01*
X48553715Y-39250952D01*
X48506096Y-39298571D01*
X48410858Y-39346190D01*
X48029905Y-39346190D01*
X49458477Y-39155714D02*
X49458477Y-39822381D01*
X49220381Y-38774762D02*
X48982286Y-39489048D01*
X49601334Y-39489048D01*
X43826667Y-75366762D02*
X43969524Y-75414381D01*
X44207620Y-75414381D01*
X44302858Y-75366762D01*
X44350477Y-75319143D01*
X44398096Y-75223905D01*
X44398096Y-75128667D01*
X44350477Y-75033429D01*
X44302858Y-74985810D01*
X44207620Y-74938190D01*
X44017143Y-74890571D01*
X43921905Y-74842952D01*
X43874286Y-74795333D01*
X43826667Y-74700095D01*
X43826667Y-74604857D01*
X43874286Y-74509619D01*
X43921905Y-74462000D01*
X44017143Y-74414381D01*
X44255239Y-74414381D01*
X44398096Y-74462000D01*
X44731429Y-74414381D02*
X44969524Y-75414381D01*
X45160001Y-74700095D01*
X45350477Y-75414381D01*
X45588572Y-74414381D01*
X46493334Y-75414381D02*
X45921905Y-75414381D01*
X46207619Y-75414381D02*
X46207619Y-74414381D01*
X46112381Y-74557238D01*
X46017143Y-74652476D01*
X45921905Y-74700095D01*
X55256667Y-75366762D02*
X55399524Y-75414381D01*
X55637620Y-75414381D01*
X55732858Y-75366762D01*
X55780477Y-75319143D01*
X55828096Y-75223905D01*
X55828096Y-75128667D01*
X55780477Y-75033429D01*
X55732858Y-74985810D01*
X55637620Y-74938190D01*
X55447143Y-74890571D01*
X55351905Y-74842952D01*
X55304286Y-74795333D01*
X55256667Y-74700095D01*
X55256667Y-74604857D01*
X55304286Y-74509619D01*
X55351905Y-74462000D01*
X55447143Y-74414381D01*
X55685239Y-74414381D01*
X55828096Y-74462000D01*
X56161429Y-74414381D02*
X56399524Y-75414381D01*
X56590001Y-74700095D01*
X56780477Y-75414381D01*
X57018572Y-74414381D01*
X57351905Y-74509619D02*
X57399524Y-74462000D01*
X57494762Y-74414381D01*
X57732858Y-74414381D01*
X57828096Y-74462000D01*
X57875715Y-74509619D01*
X57923334Y-74604857D01*
X57923334Y-74700095D01*
X57875715Y-74842952D01*
X57304286Y-75414381D01*
X57923334Y-75414381D01*
X32472405Y-65857381D02*
X32472405Y-64857381D01*
X32710500Y-64857381D01*
X32853358Y-64905000D01*
X32948596Y-65000238D01*
X32996215Y-65095476D01*
X33043834Y-65285952D01*
X33043834Y-65428810D01*
X32996215Y-65619286D01*
X32948596Y-65714524D01*
X32853358Y-65809762D01*
X32710500Y-65857381D01*
X32472405Y-65857381D01*
X33996215Y-65857381D02*
X33424786Y-65857381D01*
X33710500Y-65857381D02*
X33710500Y-64857381D01*
X33615262Y-65000238D01*
X33520024Y-65095476D01*
X33424786Y-65143095D01*
X55903834Y-39822381D02*
X55570500Y-39346190D01*
X55332405Y-39822381D02*
X55332405Y-38822381D01*
X55713358Y-38822381D01*
X55808596Y-38870000D01*
X55856215Y-38917619D01*
X55903834Y-39012857D01*
X55903834Y-39155714D01*
X55856215Y-39250952D01*
X55808596Y-39298571D01*
X55713358Y-39346190D01*
X55332405Y-39346190D01*
X56808596Y-38822381D02*
X56332405Y-38822381D01*
X56284786Y-39298571D01*
X56332405Y-39250952D01*
X56427643Y-39203333D01*
X56665739Y-39203333D01*
X56760977Y-39250952D01*
X56808596Y-39298571D01*
X56856215Y-39393810D01*
X56856215Y-39631905D01*
X56808596Y-39727143D01*
X56760977Y-39774762D01*
X56665739Y-39822381D01*
X56427643Y-39822381D01*
X56332405Y-39774762D01*
X56284786Y-39727143D01*
X42187905Y-65857381D02*
X42187905Y-64857381D01*
X42426000Y-64857381D01*
X42568858Y-64905000D01*
X42664096Y-65000238D01*
X42711715Y-65095476D01*
X42759334Y-65285952D01*
X42759334Y-65428810D01*
X42711715Y-65619286D01*
X42664096Y-65714524D01*
X42568858Y-65809762D01*
X42426000Y-65857381D01*
X42187905Y-65857381D01*
X43140286Y-64952619D02*
X43187905Y-64905000D01*
X43283143Y-64857381D01*
X43521239Y-64857381D01*
X43616477Y-64905000D01*
X43664096Y-64952619D01*
X43711715Y-65047857D01*
X43711715Y-65143095D01*
X43664096Y-65285952D01*
X43092667Y-65857381D01*
X43711715Y-65857381D01*
X49045905Y-65793881D02*
X49045905Y-64793881D01*
X49284000Y-64793881D01*
X49426858Y-64841500D01*
X49522096Y-64936738D01*
X49569715Y-65031976D01*
X49617334Y-65222452D01*
X49617334Y-65365310D01*
X49569715Y-65555786D01*
X49522096Y-65651024D01*
X49426858Y-65746262D01*
X49284000Y-65793881D01*
X49045905Y-65793881D01*
X49950667Y-64793881D02*
X50569715Y-64793881D01*
X50236381Y-65174833D01*
X50379239Y-65174833D01*
X50474477Y-65222452D01*
X50522096Y-65270071D01*
X50569715Y-65365310D01*
X50569715Y-65603405D01*
X50522096Y-65698643D01*
X50474477Y-65746262D01*
X50379239Y-65793881D01*
X50093524Y-65793881D01*
X49998286Y-65746262D01*
X49950667Y-65698643D01*
X56475405Y-65857381D02*
X56475405Y-64857381D01*
X56713500Y-64857381D01*
X56856358Y-64905000D01*
X56951596Y-65000238D01*
X56999215Y-65095476D01*
X57046834Y-65285952D01*
X57046834Y-65428810D01*
X56999215Y-65619286D01*
X56951596Y-65714524D01*
X56856358Y-65809762D01*
X56713500Y-65857381D01*
X56475405Y-65857381D01*
X57903977Y-65190714D02*
X57903977Y-65857381D01*
X57665881Y-64809762D02*
X57427786Y-65524048D01*
X58046834Y-65524048D01*
X70572334Y-39885881D02*
X70239000Y-39409690D01*
X70000905Y-39885881D02*
X70000905Y-38885881D01*
X70381858Y-38885881D01*
X70477096Y-38933500D01*
X70524715Y-38981119D01*
X70572334Y-39076357D01*
X70572334Y-39219214D01*
X70524715Y-39314452D01*
X70477096Y-39362071D01*
X70381858Y-39409690D01*
X70000905Y-39409690D01*
X71429477Y-38885881D02*
X71239000Y-38885881D01*
X71143762Y-38933500D01*
X71096143Y-38981119D01*
X71000905Y-39123976D01*
X70953286Y-39314452D01*
X70953286Y-39695405D01*
X71000905Y-39790643D01*
X71048524Y-39838262D01*
X71143762Y-39885881D01*
X71334239Y-39885881D01*
X71429477Y-39838262D01*
X71477096Y-39790643D01*
X71524715Y-39695405D01*
X71524715Y-39457310D01*
X71477096Y-39362071D01*
X71429477Y-39314452D01*
X71334239Y-39266833D01*
X71143762Y-39266833D01*
X71048524Y-39314452D01*
X71000905Y-39362071D01*
X70953286Y-39457310D01*
X59586834Y-39758881D02*
X59253500Y-39282690D01*
X59015405Y-39758881D02*
X59015405Y-38758881D01*
X59396358Y-38758881D01*
X59491596Y-38806500D01*
X59539215Y-38854119D01*
X59586834Y-38949357D01*
X59586834Y-39092214D01*
X59539215Y-39187452D01*
X59491596Y-39235071D01*
X59396358Y-39282690D01*
X59015405Y-39282690D01*
X59920167Y-38758881D02*
X60586834Y-38758881D01*
X60158262Y-39758881D01*
X52284334Y-39822381D02*
X51951000Y-39346190D01*
X51712905Y-39822381D02*
X51712905Y-38822381D01*
X52093858Y-38822381D01*
X52189096Y-38870000D01*
X52236715Y-38917619D01*
X52284334Y-39012857D01*
X52284334Y-39155714D01*
X52236715Y-39250952D01*
X52189096Y-39298571D01*
X52093858Y-39346190D01*
X51712905Y-39346190D01*
X52855762Y-39250952D02*
X52760524Y-39203333D01*
X52712905Y-39155714D01*
X52665286Y-39060476D01*
X52665286Y-39012857D01*
X52712905Y-38917619D01*
X52760524Y-38870000D01*
X52855762Y-38822381D01*
X53046239Y-38822381D01*
X53141477Y-38870000D01*
X53189096Y-38917619D01*
X53236715Y-39012857D01*
X53236715Y-39060476D01*
X53189096Y-39155714D01*
X53141477Y-39203333D01*
X53046239Y-39250952D01*
X52855762Y-39250952D01*
X52760524Y-39298571D01*
X52712905Y-39346190D01*
X52665286Y-39441429D01*
X52665286Y-39631905D01*
X52712905Y-39727143D01*
X52760524Y-39774762D01*
X52855762Y-39822381D01*
X53046239Y-39822381D01*
X53141477Y-39774762D01*
X53189096Y-39727143D01*
X53236715Y-39631905D01*
X53236715Y-39441429D01*
X53189096Y-39346190D01*
X53141477Y-39298571D01*
X53046239Y-39250952D01*
X39751095Y-35266381D02*
X39751095Y-36075905D01*
X39798714Y-36171143D01*
X39846333Y-36218762D01*
X39941571Y-36266381D01*
X40132048Y-36266381D01*
X40227286Y-36218762D01*
X40274905Y-36171143D01*
X40322524Y-36075905D01*
X40322524Y-35266381D01*
X41322524Y-36266381D02*
X40751095Y-36266381D01*
X41036809Y-36266381D02*
X41036809Y-35266381D01*
X40941571Y-35409238D01*
X40846333Y-35504476D01*
X40751095Y-35552095D01*
M02*
